<svg width="1024" height="1024" viewBox="0 0 1024 1024" fill="none" xmlns="http://www.w3.org/2000/svg">
<mask id="mask0_3373_59" style="mask-type:alpha" maskUnits="userSpaceOnUse" x="0" y="0" width="1024" height="1024">
<rect width="1024" height="1024" fill="#33005D"/>
</mask>
<g mask="url(#mask0_3373_59)">
<rect width="1024" height="1024" fill="#AA43FF" fill-opacity="0.1"/>
<path d="M512 20C783.724 20 1004 240.276 1004 512C1004 783.724 783.724 1004 512 1004C240.276 1004 20 783.724 20 512C20 240.276 240.276 20 512 20Z" stroke="#2F0056" stroke-width="40"/>
<path d="M512 83.1428C748.851 83.143 940.857 275.149 940.857 512C940.857 748.851 748.851 940.857 512 940.857C275.149 940.857 83.143 748.851 83.1429 512C83.1429 275.149 275.149 83.1428 512 83.1428Z" stroke="#AA43FF" stroke-width="20"/>
<mask id="path-5-outside-1_3373_59" maskUnits="userSpaceOnUse" x="191" y="136" width="648" height="753" fill="black">
<rect fill="white" x="191" y="136" width="648" height="753"/>
<path d="M231.458 849V214C263.125 204.833 303.958 196.5 353.958 189C403.958 180.667 456.458 176.5 511.458 176.5C586.458 176.5 644.791 189.417 686.458 215.25C728.125 240.25 757.291 275.25 773.958 320.25C790.625 365.25 798.958 417.75 798.958 477.75V849H612.708V500.25C612.708 460.25 609.375 428.167 602.708 404C596.041 379.833 584.375 362.333 567.708 351.5C551.875 340.667 529.375 335.25 500.208 335.25C486.875 335.25 472.708 336.083 457.708 337.75C442.708 338.583 429.375 339.833 417.708 341.5V849H231.458Z"/>
</mask>
<path d="M231.458 849V214C263.125 204.833 303.958 196.5 353.958 189C403.958 180.667 456.458 176.5 511.458 176.5C586.458 176.5 644.791 189.417 686.458 215.25C728.125 240.25 757.291 275.25 773.958 320.25C790.625 365.25 798.958 417.75 798.958 477.75V849H612.708V500.25C612.708 460.25 609.375 428.167 602.708 404C596.041 379.833 584.375 362.333 567.708 351.5C551.875 340.667 529.375 335.25 500.208 335.25C486.875 335.25 472.708 336.083 457.708 337.75C442.708 338.583 429.375 339.833 417.708 341.5V849H231.458Z" fill="#AA43FF" fill-opacity="0.5"/>
<path d="M231.458 849H191.458V889H231.458V849ZM231.458 214L220.336 175.577L191.458 183.937V214H231.458ZM353.958 189L359.892 228.557L360.213 228.509L360.534 228.456L353.958 189ZM686.458 215.25L665.38 249.246L665.628 249.4L665.878 249.55L686.458 215.25ZM773.958 320.25L736.448 334.143V334.143L773.958 320.25ZM798.958 849V889H838.958V849H798.958ZM612.708 849H572.708V889H612.708V849ZM602.708 404L564.148 414.637V414.637L602.708 404ZM567.708 351.5L545.121 384.512L545.511 384.78L545.908 385.038L567.708 351.5ZM457.708 337.75L459.927 377.688L461.029 377.627L462.125 377.505L457.708 337.75ZM417.708 341.5L412.051 301.902L377.708 306.808V341.5H417.708ZM417.708 849V889H457.708V849H417.708ZM231.458 849H271.458V214H231.458H191.458V849H231.458ZM231.458 214L242.58 252.423C271.901 243.935 310.826 235.917 359.892 228.557L353.958 189L348.024 149.443C297.09 157.083 254.349 165.732 220.336 175.577L231.458 214ZM353.958 189L360.534 228.456C408.186 220.514 458.477 216.5 511.458 216.5V176.5V136.5C454.439 136.5 399.73 140.82 347.382 149.544L353.958 189ZM511.458 176.5V216.5C582.658 216.5 632.557 228.895 665.38 249.246L686.458 215.25L707.536 181.254C657.026 149.938 590.258 136.5 511.458 136.5V176.5ZM686.458 215.25L665.878 249.55C699.852 269.934 722.983 297.788 736.448 334.143L773.958 320.25L811.468 306.357C791.599 252.712 756.397 210.566 707.038 180.95L686.458 215.25ZM773.958 320.25L736.448 334.143C751.114 373.739 758.958 421.352 758.958 477.75H798.958H838.958C838.958 414.148 830.136 356.761 811.468 306.357L773.958 320.25ZM798.958 477.75H758.958V849H798.958H838.958V477.75H798.958ZM798.958 849V809H612.708V849V889H798.958V849ZM612.708 849H652.708V500.25H612.708H572.708V849H612.708ZM612.708 500.25H652.708C652.708 458.519 649.284 422.421 641.268 393.363L602.708 404L564.148 414.637C569.466 433.913 572.708 461.981 572.708 500.25H612.708ZM602.708 404L641.268 393.363C632.703 362.317 616.345 335.407 589.508 317.962L567.708 351.5L545.908 385.038C552.404 389.26 559.379 397.35 564.148 414.637L602.708 404ZM567.708 351.5L590.295 318.488C565.175 301.3 533.511 295.25 500.208 295.25V335.25V375.25C525.239 375.25 538.574 380.033 545.121 384.512L567.708 351.5ZM500.208 335.25V295.25C485.221 295.25 469.57 296.186 453.291 297.995L457.708 337.75L462.125 377.505C475.846 375.981 488.528 375.25 500.208 375.25V335.25ZM457.708 337.75L455.489 297.812C439.634 298.692 425.118 300.035 412.051 301.902L417.708 341.5L423.365 381.098C433.632 379.631 445.782 378.474 459.927 377.688L457.708 337.75ZM417.708 341.5H377.708V849H417.708H457.708V341.5H417.708ZM417.708 849V809H231.458V849V889H417.708V849Z" fill="#2F0056" mask="url(#path-5-outside-1_3373_59)"/>
<circle cx="512" cy="512" r="256" fill="#AA43FF"/>
<mask id="path-8-outside-2_3373_59" maskUnits="userSpaceOnUse" x="146" y="282" width="743" height="419" fill="black">
<rect fill="white" x="146" y="282" width="743" height="419"/>
<path d="M302.015 660.46C277.655 660.46 256.935 655.84 239.855 646.6C222.775 637.36 209.615 624.2 200.375 607.12C191.415 589.76 186.935 569.32 186.935 545.8C186.935 521.72 190.855 501 198.695 483.64C206.535 466.28 217.735 452.98 232.295 443.74C247.135 434.22 264.915 429.46 285.635 429.46C294.315 429.46 302.015 430.3 308.735 431.98C315.735 433.66 322.735 436.04 329.735 439.12V339.16L392.315 329.08V647.86C385.035 650.1 376.215 652.2 365.855 654.16C355.495 656.12 344.715 657.66 333.515 658.78C322.595 659.9 312.095 660.46 302.015 660.46ZM302.435 607.12C308.035 607.12 313.215 606.98 317.975 606.7C322.735 606.14 326.655 605.58 329.735 605.02V491.2C325.815 488.68 320.635 486.58 314.195 484.9C308.035 483.22 301.735 482.38 295.295 482.38C287.735 482.38 281.155 483.64 275.555 486.16C270.235 488.68 265.615 492.46 261.695 497.5C258.055 502.54 255.255 508.84 253.295 516.4C251.615 523.96 250.775 532.78 250.775 542.86C250.775 555.74 252.735 567.08 256.655 576.88C260.575 586.4 266.315 593.82 273.875 599.14C281.715 604.46 291.235 607.12 302.435 607.12ZM417.311 655V434.08H479.891V655H417.311ZM448.811 398.8C438.731 398.8 429.911 395.58 422.351 389.14C415.071 382.42 411.431 373.32 411.431 361.84C411.431 350.36 415.071 341.4 422.351 334.96C429.911 328.24 438.731 324.88 448.811 324.88C458.891 324.88 467.571 328.24 474.851 334.96C482.411 341.4 486.191 350.36 486.191 361.84C486.191 373.32 482.411 382.42 474.851 389.14C467.571 395.58 458.891 398.8 448.811 398.8ZM568.118 660.88C548.518 660.88 532.138 659.2 518.978 655.84C506.098 652.48 497.138 649.68 492.098 647.44L502.598 596.62C513.238 600.82 524.158 604.18 535.358 606.7C546.558 608.94 557.618 610.06 568.538 610.06C580.018 610.06 588.138 608.94 592.898 606.7C597.658 604.46 600.038 600.12 600.038 593.68C600.038 590.32 598.638 587.38 595.838 584.86C593.038 582.06 588.838 579.26 583.238 576.46C577.918 573.66 571.058 570.72 562.658 567.64C549.778 562.6 538.438 557.28 528.638 551.68C518.838 546.08 511.278 538.94 505.958 530.26C500.638 521.3 497.978 509.68 497.978 495.4C497.978 481.4 501.478 469.5 508.478 459.7C515.478 449.62 525.418 441.92 538.298 436.6C551.178 431 566.578 428.2 584.498 428.2C597.938 428.2 610.818 429.46 623.138 431.98C635.458 434.22 645.258 436.74 652.538 439.54L641.618 488.26C634.338 485.74 626.358 483.5 617.678 481.54C609.278 479.58 599.758 478.6 589.118 478.6C579.318 478.6 571.898 480 566.858 482.8C562.098 485.32 559.718 489.38 559.718 494.98C559.718 498.06 560.558 501 562.238 503.8C563.918 506.32 567.138 508.84 571.898 511.36C576.658 513.88 583.658 516.82 592.898 520.18C611.378 526.9 625.518 533.62 635.318 540.34C645.398 547.06 652.398 554.76 656.318 563.44C660.238 571.84 662.198 582.2 662.198 594.52C662.198 609.08 658.558 621.26 651.278 631.06C643.998 640.86 633.358 648.28 619.358 653.32C605.358 658.36 588.278 660.88 568.118 660.88ZM779.945 660.88C753.065 660.88 731.085 655.7 714.005 645.34C697.205 634.98 684.745 621.12 676.625 603.76C668.785 586.12 664.865 566.38 664.865 544.54C664.865 523.26 669.345 503.8 678.305 486.16C687.545 468.52 700.565 454.52 717.365 444.16C734.445 433.52 754.885 428.2 778.685 428.2C790.445 428.2 801.225 429.32 811.025 431.56C820.825 433.52 830.345 436.46 839.585 440.38L826.565 490.36C820.685 488.12 814.245 486.16 807.245 484.48C800.245 482.8 792.405 481.96 783.725 481.96C765.245 481.96 751.385 487.7 742.145 499.18C733.185 510.66 728.705 525.78 728.705 544.54C728.705 557.7 730.525 569.04 734.165 578.56C737.805 587.8 743.825 594.94 752.225 599.98C760.905 604.74 772.245 607.12 786.245 607.12C793.805 607.12 801.925 606.42 810.605 605.02C819.285 603.62 827.265 601.38 834.545 598.3L843.365 649.54C836.085 652.62 826.985 655.28 816.065 657.52C805.145 659.76 793.105 660.88 779.945 660.88Z"/>
</mask>
<path d="M302.015 660.46C277.655 660.46 256.935 655.84 239.855 646.6C222.775 637.36 209.615 624.2 200.375 607.12C191.415 589.76 186.935 569.32 186.935 545.8C186.935 521.72 190.855 501 198.695 483.64C206.535 466.28 217.735 452.98 232.295 443.74C247.135 434.22 264.915 429.46 285.635 429.46C294.315 429.46 302.015 430.3 308.735 431.98C315.735 433.66 322.735 436.04 329.735 439.12V339.16L392.315 329.08V647.86C385.035 650.1 376.215 652.2 365.855 654.16C355.495 656.12 344.715 657.66 333.515 658.78C322.595 659.9 312.095 660.46 302.015 660.46ZM302.435 607.12C308.035 607.12 313.215 606.98 317.975 606.7C322.735 606.14 326.655 605.58 329.735 605.02V491.2C325.815 488.68 320.635 486.58 314.195 484.9C308.035 483.22 301.735 482.38 295.295 482.38C287.735 482.38 281.155 483.64 275.555 486.16C270.235 488.68 265.615 492.46 261.695 497.5C258.055 502.54 255.255 508.84 253.295 516.4C251.615 523.96 250.775 532.78 250.775 542.86C250.775 555.74 252.735 567.08 256.655 576.88C260.575 586.4 266.315 593.82 273.875 599.14C281.715 604.46 291.235 607.12 302.435 607.12ZM417.311 655V434.08H479.891V655H417.311ZM448.811 398.8C438.731 398.8 429.911 395.58 422.351 389.14C415.071 382.42 411.431 373.32 411.431 361.84C411.431 350.36 415.071 341.4 422.351 334.96C429.911 328.24 438.731 324.88 448.811 324.88C458.891 324.88 467.571 328.24 474.851 334.96C482.411 341.4 486.191 350.36 486.191 361.84C486.191 373.32 482.411 382.42 474.851 389.14C467.571 395.58 458.891 398.8 448.811 398.8ZM568.118 660.88C548.518 660.88 532.138 659.2 518.978 655.84C506.098 652.48 497.138 649.68 492.098 647.44L502.598 596.62C513.238 600.82 524.158 604.18 535.358 606.7C546.558 608.94 557.618 610.06 568.538 610.06C580.018 610.06 588.138 608.94 592.898 606.7C597.658 604.46 600.038 600.12 600.038 593.68C600.038 590.32 598.638 587.38 595.838 584.86C593.038 582.06 588.838 579.26 583.238 576.46C577.918 573.66 571.058 570.72 562.658 567.64C549.778 562.6 538.438 557.28 528.638 551.68C518.838 546.08 511.278 538.94 505.958 530.26C500.638 521.3 497.978 509.68 497.978 495.4C497.978 481.4 501.478 469.5 508.478 459.7C515.478 449.62 525.418 441.92 538.298 436.6C551.178 431 566.578 428.2 584.498 428.2C597.938 428.2 610.818 429.46 623.138 431.98C635.458 434.22 645.258 436.74 652.538 439.54L641.618 488.26C634.338 485.74 626.358 483.5 617.678 481.54C609.278 479.58 599.758 478.6 589.118 478.6C579.318 478.6 571.898 480 566.858 482.8C562.098 485.32 559.718 489.38 559.718 494.98C559.718 498.06 560.558 501 562.238 503.8C563.918 506.32 567.138 508.84 571.898 511.36C576.658 513.88 583.658 516.82 592.898 520.18C611.378 526.9 625.518 533.62 635.318 540.34C645.398 547.06 652.398 554.76 656.318 563.44C660.238 571.84 662.198 582.2 662.198 594.52C662.198 609.08 658.558 621.26 651.278 631.06C643.998 640.86 633.358 648.28 619.358 653.32C605.358 658.36 588.278 660.88 568.118 660.88ZM779.945 660.88C753.065 660.88 731.085 655.7 714.005 645.34C697.205 634.98 684.745 621.12 676.625 603.76C668.785 586.12 664.865 566.38 664.865 544.54C664.865 523.26 669.345 503.8 678.305 486.16C687.545 468.52 700.565 454.52 717.365 444.16C734.445 433.52 754.885 428.2 778.685 428.2C790.445 428.2 801.225 429.32 811.025 431.56C820.825 433.52 830.345 436.46 839.585 440.38L826.565 490.36C820.685 488.12 814.245 486.16 807.245 484.48C800.245 482.8 792.405 481.96 783.725 481.96C765.245 481.96 751.385 487.7 742.145 499.18C733.185 510.66 728.705 525.78 728.705 544.54C728.705 557.7 730.525 569.04 734.165 578.56C737.805 587.8 743.825 594.94 752.225 599.98C760.905 604.74 772.245 607.12 786.245 607.12C793.805 607.12 801.925 606.42 810.605 605.02C819.285 603.62 827.265 601.38 834.545 598.3L843.365 649.54C836.085 652.62 826.985 655.28 816.065 657.52C805.145 659.76 793.105 660.88 779.945 660.88Z" fill="#EED9FF"/>
<path d="M239.855 646.6L220.822 681.782V681.782L239.855 646.6ZM200.375 607.12L164.83 625.466L165.008 625.811L165.193 626.153L200.375 607.12ZM198.695 483.64L235.15 500.103V500.103L198.695 483.64ZM232.295 443.74L253.728 477.513L253.81 477.461L253.893 477.408L232.295 443.74ZM308.735 431.98L299.033 470.786L299.216 470.831L299.4 470.875L308.735 431.98ZM329.735 439.12L313.625 475.733L369.735 500.421V439.12H329.735ZM329.735 339.16L323.374 299.669L289.735 305.087V339.16H329.735ZM392.315 329.08H432.315V282.121L385.954 289.589L392.315 329.08ZM392.315 647.86L404.078 686.091L432.315 677.403V647.86H392.315ZM333.515 658.78L329.535 618.979L329.484 618.984L329.434 618.989L333.515 658.78ZM317.975 606.7L320.324 646.631L321.489 646.562L322.648 646.426L317.975 606.7ZM329.735 605.02L336.89 644.375L369.735 638.403V605.02H329.735ZM329.735 491.2H369.735V469.362L351.365 457.553L329.735 491.2ZM314.195 484.9L303.67 523.491L303.884 523.549L304.098 523.605L314.195 484.9ZM275.555 486.16L259.14 449.683L258.784 449.843L258.431 450.01L275.555 486.16ZM261.695 497.5L230.121 472.942L229.684 473.504L229.268 474.08L261.695 497.5ZM253.295 516.4L214.575 506.362L214.399 507.039L214.247 507.723L253.295 516.4ZM256.655 576.88L219.516 591.736L219.591 591.923L219.668 592.11L256.655 576.88ZM273.875 599.14L250.855 631.852L251.133 632.048L251.415 632.239L273.875 599.14ZM302.015 660.46V620.46C282.641 620.46 268.818 616.791 258.888 611.418L239.855 646.6L220.822 681.782C245.051 694.889 272.669 700.46 302.015 700.46V660.46ZM239.855 646.6L258.888 611.418C248.645 605.878 241.097 598.329 235.557 588.087L200.375 607.12L165.193 626.153C178.132 650.071 196.904 668.842 220.822 681.782L239.855 646.6ZM200.375 607.12L235.92 588.774C230.426 578.131 226.935 564.227 226.935 545.8H186.935H146.935C146.935 574.413 152.403 601.389 164.83 625.466L200.375 607.12ZM186.935 545.8H226.935C226.935 525.947 230.177 511.113 235.15 500.103L198.695 483.64L162.24 467.177C151.532 490.886 146.935 517.493 146.935 545.8H186.935ZM198.695 483.64L235.15 500.103C240.127 489.082 246.437 482.14 253.728 477.513L232.295 443.74L210.862 409.967C189.032 423.82 172.943 443.478 162.24 467.177L198.695 483.64ZM232.295 443.74L253.893 477.408C261.228 472.702 271.207 469.46 285.635 469.46V429.46V389.46C258.623 389.46 233.041 395.738 210.697 410.072L232.295 443.74ZM285.635 429.46V469.46C291.829 469.46 296.167 470.069 299.033 470.786L308.735 431.98L318.436 393.174C307.863 390.531 296.8 389.46 285.635 389.46V429.46ZM308.735 431.98L299.4 470.875C303.939 471.965 308.676 473.555 313.625 475.733L329.735 439.12L345.844 402.507C336.794 398.525 327.531 395.355 318.07 393.085L308.735 431.98ZM329.735 439.12H369.735V339.16H329.735H289.735V439.12H329.735ZM329.735 339.16L336.096 378.651L398.676 368.571L392.315 329.08L385.954 289.589L323.374 299.669L329.735 339.16ZM392.315 329.08H352.315V647.86H392.315H432.315V329.08H392.315ZM392.315 647.86L380.551 609.629C375.115 611.302 367.828 613.077 358.419 614.857L365.855 654.16L373.29 693.463C384.602 691.323 394.954 688.898 404.078 686.091L392.315 647.86ZM365.855 654.16L358.419 614.857C349.277 616.587 339.653 617.967 329.535 618.979L333.515 658.78L337.495 698.581C349.776 697.353 361.713 695.653 373.29 693.463L365.855 654.16ZM333.515 658.78L329.434 618.989C319.751 619.982 310.618 620.46 302.015 620.46V660.46V700.46C313.572 700.46 325.438 699.818 337.596 698.571L333.515 658.78ZM302.435 607.12V647.12C308.687 647.12 314.661 646.964 320.324 646.631L317.975 606.7L315.626 566.769C311.769 566.996 307.382 567.12 302.435 567.12V607.12ZM317.975 606.7L322.648 646.426C327.854 645.814 332.678 645.141 336.89 644.375L329.735 605.02L322.579 565.665C320.632 566.019 317.616 566.466 313.301 566.974L317.975 606.7ZM329.735 605.02H369.735V491.2H329.735H289.735V605.02H329.735ZM329.735 491.2L351.365 457.553C342.728 452 333.221 448.525 324.292 446.195L314.195 484.9L304.098 523.605C305.946 524.087 307.167 524.515 307.882 524.805C308.609 525.099 308.598 525.165 308.104 524.847L329.735 491.2ZM314.195 484.9L324.719 446.309C315.1 443.686 305.259 442.38 295.295 442.38V482.38V522.38C298.21 522.38 300.97 522.754 303.67 523.491L314.195 484.9ZM295.295 482.38V442.38C283.351 442.38 270.949 444.369 259.14 449.683L275.555 486.16L291.969 522.637C291.36 522.911 292.119 522.38 295.295 522.38V482.38ZM275.555 486.16L258.431 450.01C246.985 455.433 237.552 463.388 230.121 472.942L261.695 497.5L293.269 522.058C293.52 521.735 293.588 521.713 293.429 521.843C293.355 521.904 293.248 521.984 293.109 522.072C292.971 522.16 292.825 522.24 292.678 522.31L275.555 486.16ZM261.695 497.5L229.268 474.08C222.077 484.037 217.475 495.174 214.575 506.362L253.295 516.4L292.015 526.438C293.034 522.506 294.033 521.043 294.122 520.92L261.695 497.5ZM253.295 516.4L214.247 507.723C211.778 518.836 210.775 530.684 210.775 542.86H250.775H290.775C290.775 534.876 291.452 529.084 292.342 525.077L253.295 516.4ZM250.775 542.86H210.775C210.775 559.74 213.34 576.295 219.516 591.736L256.655 576.88L293.794 562.024C292.13 557.865 290.775 551.74 290.775 542.86H250.775ZM256.655 576.88L219.668 592.11C226.145 607.841 236.378 621.665 250.855 631.852L273.875 599.14L296.895 566.428C296.251 565.975 295.004 564.959 293.642 561.65L256.655 576.88ZM273.875 599.14L251.415 632.239C267.016 642.826 284.716 647.12 302.435 647.12V607.12V567.12C297.754 567.12 296.414 566.094 296.335 566.041L273.875 599.14ZM417.311 655H377.311V695H417.311V655ZM417.311 434.08V394.08H377.311V434.08H417.311ZM479.891 434.08H519.891V394.08H479.891V434.08ZM479.891 655V695H519.891V655H479.891ZM422.351 389.14L395.22 418.532L395.806 419.073L396.413 419.59L422.351 389.14ZM422.351 334.96L448.854 364.92L448.89 364.888L448.926 364.856L422.351 334.96ZM474.851 334.96L447.72 364.352L448.306 364.893L448.913 365.41L474.851 334.96ZM474.851 389.14L501.354 419.1L501.39 419.068L501.426 419.036L474.851 389.14ZM417.311 655H457.311V434.08H417.311H377.311V655H417.311ZM417.311 434.08V474.08H479.891V434.08V394.08H417.311V434.08ZM479.891 434.08H439.891V655H479.891H519.891V434.08H479.891ZM479.891 655V615H417.311V655V695H479.891V655ZM448.811 398.8V358.8C448.428 358.8 448.238 358.77 448.206 358.764C448.178 358.76 448.24 358.769 448.354 358.811C448.469 358.853 448.55 358.896 448.577 358.912C448.6 358.925 448.503 358.872 448.29 358.69L422.351 389.14L396.413 419.59C411.327 432.295 429.381 438.8 448.811 438.8V398.8ZM422.351 389.14L449.483 359.748C449.765 360.009 450.13 360.405 450.493 360.931C450.857 361.458 451.124 361.978 451.3 362.419C451.665 363.33 451.431 363.349 451.431 361.84H411.431H371.431C371.431 382.542 378.411 403.016 395.22 418.532L422.351 389.14ZM411.431 361.84H451.431C451.431 360.314 451.67 360.458 451.22 361.565C450.998 362.11 450.664 362.749 450.203 363.4C449.742 364.05 449.263 364.558 448.854 364.92L422.351 334.96L395.848 305C378.416 320.421 371.431 341.179 371.431 361.84H411.431ZM422.351 334.96L448.926 364.856C449.046 364.75 449.13 364.684 449.177 364.649C449.224 364.614 449.239 364.606 449.221 364.616C449.204 364.627 449.163 364.651 449.099 364.683C449.035 364.714 448.96 364.748 448.876 364.78C448.792 364.811 448.712 364.837 448.64 364.857C448.568 364.877 448.516 364.888 448.489 364.892C448.462 364.897 448.47 364.894 448.519 364.89C448.567 364.886 448.663 364.88 448.811 364.88V324.88V284.88C428.897 284.88 410.631 291.86 395.777 305.064L422.351 334.96ZM448.811 324.88V364.88C449.102 364.88 449.169 364.904 449.057 364.883C448.939 364.862 448.718 364.81 448.442 364.703C448.164 364.595 447.932 364.472 447.769 364.37C447.611 364.27 447.597 364.239 447.72 364.352L474.851 334.96L501.983 305.568C487.172 291.897 468.753 284.88 448.811 284.88V324.88ZM474.851 334.96L448.913 365.41C448.551 365.101 448.079 364.627 447.603 363.98C447.125 363.331 446.758 362.665 446.502 362.058C445.976 360.813 446.191 360.492 446.191 361.84H486.191H526.191C526.191 340.673 518.711 319.776 500.79 304.51L474.851 334.96ZM486.191 361.84H446.191C446.191 363.172 445.981 362.978 446.416 361.931C446.625 361.428 446.923 360.879 447.302 360.35C447.679 359.824 448.037 359.457 448.277 359.244L474.851 389.14L501.426 419.036C518.726 403.658 526.191 383.034 526.191 361.84H486.191ZM474.851 389.14L448.348 359.18C448.252 359.266 448.273 359.233 448.417 359.146C448.563 359.057 448.756 358.961 448.969 358.882C449.18 358.804 449.319 358.777 449.342 358.773C449.359 358.77 449.196 358.8 448.811 358.8V398.8V438.8C468.258 438.8 486.47 432.267 501.354 419.1L474.851 389.14ZM518.978 655.84L508.881 694.545L508.981 694.571L509.082 694.597L518.978 655.84ZM492.098 647.44L452.925 639.346L446.405 670.905L475.852 683.992L492.098 647.44ZM502.598 596.62L517.284 559.414L473.048 541.952L463.425 588.526L502.598 596.62ZM535.358 606.7L526.577 645.724L527.044 645.829L527.513 645.923L535.358 606.7ZM592.898 606.7L609.929 642.893V642.893L592.898 606.7ZM595.838 584.86L567.553 613.144L568.297 613.888L569.079 614.592L595.838 584.86ZM583.238 576.46L564.608 611.857L564.976 612.051L565.349 612.237L583.238 576.46ZM562.658 567.64L548.082 604.89L548.483 605.047L548.887 605.195L562.658 567.64ZM528.638 551.68L508.792 586.41H508.792L528.638 551.68ZM505.958 530.26L471.563 550.682L471.707 550.923L471.854 551.162L505.958 530.26ZM508.478 459.7L541.027 482.95L541.181 482.734L541.332 482.516L508.478 459.7ZM538.298 436.6L553.568 473.57L553.909 473.43L554.247 473.283L538.298 436.6ZM623.138 431.98L615.122 471.169L615.551 471.256L615.982 471.335L623.138 431.98ZM652.538 439.54L691.569 448.288L699.12 414.6L666.897 402.206L652.538 439.54ZM641.618 488.26L628.533 526.059L670.854 540.709L680.649 497.008L641.618 488.26ZM617.678 481.54L608.588 520.494L608.728 520.526L608.867 520.558L617.678 481.54ZM566.858 482.8L585.573 518.151L585.93 517.962L586.283 517.766L566.858 482.8ZM562.238 503.8L527.938 524.38L528.428 525.196L528.956 525.988L562.238 503.8ZM571.898 511.36L590.613 476.008V476.008L571.898 511.36ZM635.318 540.34L612.696 573.329L612.912 573.477L613.13 573.622L635.318 540.34ZM656.318 563.44L619.863 579.903L619.965 580.13L620.07 580.355L656.318 563.44ZM651.278 631.06L619.168 607.207H619.168L651.278 631.06ZM619.358 653.32L605.809 615.685V615.685L619.358 653.32ZM568.118 660.88V620.88C550.519 620.88 537.72 619.342 528.873 617.083L518.978 655.84L509.082 694.597C526.555 699.058 546.516 700.88 568.118 700.88V660.88ZM518.978 655.84L529.074 617.135C516.186 613.773 510.084 611.661 508.343 610.888L492.098 647.44L475.852 683.992C484.191 687.699 496.009 691.187 508.881 694.545L518.978 655.84ZM492.098 647.44L531.27 655.534L541.77 604.714L502.598 596.62L463.425 588.526L452.925 639.346L492.098 647.44ZM502.598 596.62L487.911 633.826C500.477 638.786 513.372 642.753 526.577 645.724L535.358 606.7L544.138 567.676C534.943 565.607 525.998 562.854 517.284 559.414L502.598 596.62ZM535.358 606.7L527.513 645.923C541.178 648.656 554.866 650.06 568.538 650.06V610.06V570.06C560.37 570.06 551.938 569.224 543.202 567.477L535.358 606.7ZM568.538 610.06V650.06C580.544 650.06 596.508 649.209 609.929 642.893L592.898 606.7L575.866 570.507C577.4 569.785 578.421 569.512 578.601 569.465C578.816 569.409 578.583 569.483 577.772 569.595C576.079 569.829 573.113 570.06 568.538 570.06V610.06ZM592.898 606.7L609.929 642.893C619.455 638.41 627.803 631.067 633.325 620.998C638.577 611.422 640.038 601.658 640.038 593.68H600.038H560.038C560.038 592.142 560.308 587.768 563.18 582.532C566.322 576.803 571.1 572.75 575.866 570.507L592.898 606.7ZM600.038 593.68H640.038C640.038 577.538 632.69 564.213 622.596 555.128L595.838 584.86L569.079 614.592C567.173 612.876 564.763 610.121 562.873 606.152C560.932 602.077 560.038 597.755 560.038 593.68H600.038ZM595.838 584.86L624.122 556.576C617.044 549.498 608.608 544.424 601.126 540.683L583.238 576.46L565.349 612.237C567.002 613.064 567.961 613.649 568.4 613.942C568.605 614.079 568.62 614.101 568.487 613.995C568.357 613.891 568.022 613.613 567.553 613.144L595.838 584.86ZM583.238 576.46L601.867 541.063C594.42 537.143 585.773 533.512 576.428 530.085L562.658 567.64L548.887 605.195C556.342 607.928 561.415 610.177 564.608 611.857L583.238 576.46ZM562.658 567.64L577.234 530.39C565.781 525.909 556.264 521.396 548.483 516.95L528.638 551.68L508.792 586.41C520.612 593.164 533.774 599.291 548.082 604.89L562.658 567.64ZM528.638 551.68L548.483 516.95C543.875 514.317 541.497 511.699 540.062 509.358L505.958 530.26L471.854 551.162C481.059 566.181 493.8 577.843 508.792 586.41L528.638 551.68ZM505.958 530.26L540.352 509.838C539.817 508.937 537.978 505.048 537.978 495.4H497.978H457.978C457.978 514.312 461.458 533.663 471.563 550.682L505.958 530.26ZM497.978 495.4H537.978C537.978 488.338 539.627 484.91 541.027 482.95L508.478 459.7L475.928 436.45C463.328 454.09 457.978 474.462 457.978 495.4H497.978ZM508.478 459.7L541.332 482.516C543.378 479.57 546.797 476.367 553.568 473.57L538.298 436.6L523.027 399.63C504.038 407.473 487.577 419.67 475.623 436.884L508.478 459.7ZM538.298 436.6L554.247 473.283C560.911 470.385 570.609 468.2 584.498 468.2V428.2V388.2C562.546 388.2 541.444 391.615 522.349 399.917L538.298 436.6ZM584.498 428.2V468.2C595.429 468.2 605.613 469.224 615.122 471.169L623.138 431.98L631.153 392.791C616.022 389.696 600.447 388.2 584.498 388.2V428.2ZM623.138 431.98L615.982 471.335C627.127 473.361 634.196 475.342 638.178 476.874L652.538 439.54L666.897 402.206C656.32 398.138 643.788 395.079 630.293 392.625L623.138 431.98ZM652.538 439.54L613.506 430.792L602.586 479.512L641.618 488.26L680.649 497.008L691.569 448.288L652.538 439.54ZM641.618 488.26L654.702 450.461C645.826 447.388 636.398 444.76 626.488 442.522L617.678 481.54L608.867 520.558C616.317 522.24 622.849 524.092 628.533 526.059L641.618 488.26ZM617.678 481.54L626.767 442.586C614.791 439.792 602.137 438.6 589.118 438.6V478.6V518.6C597.378 518.6 603.764 519.368 608.588 520.494L617.678 481.54ZM589.118 478.6V438.6C576.69 438.6 561.224 440.172 547.432 447.834L566.858 482.8L586.283 517.766C585.15 518.396 584.291 518.722 583.861 518.867C583.431 519.012 583.32 519.013 583.619 518.956C584.287 518.83 586.015 518.6 589.118 518.6V478.6ZM566.858 482.8L548.142 447.448C540.165 451.672 532.461 458.182 526.995 467.506C521.579 476.745 519.718 486.426 519.718 494.98H559.718H599.718C599.718 497.934 599.046 502.785 596.01 507.964C592.925 513.228 588.79 516.448 585.573 518.151L566.858 482.8ZM559.718 494.98H519.718C519.718 505.751 522.762 515.753 527.938 524.38L562.238 503.8L596.537 483.22C598.354 486.247 599.718 490.369 599.718 494.98H559.718ZM562.238 503.8L528.956 525.988C536.179 536.823 546.469 543.158 553.182 546.712L571.898 511.36L590.613 476.008C589.707 475.529 589.836 475.509 590.565 476.08C591.215 476.588 593.333 478.333 595.52 481.612L562.238 503.8ZM571.898 511.36L553.182 546.712C560.386 550.525 569.42 554.205 579.228 557.772L592.898 520.18L606.567 482.588C597.895 479.435 592.93 477.235 590.613 476.008L571.898 511.36ZM592.898 520.18L579.228 557.772C596.317 563.986 606.89 569.348 612.696 573.329L635.318 540.34L657.939 507.351C644.145 497.892 626.438 489.814 606.567 482.588L592.898 520.18ZM635.318 540.34L613.13 573.622C618.651 577.303 619.765 579.687 619.863 579.903L656.318 563.44L692.772 546.977C685.03 529.833 672.144 516.817 657.506 507.058L635.318 540.34ZM656.318 563.44L620.07 580.355C620.846 582.017 622.198 586.213 622.198 594.52H662.198H702.198C702.198 578.187 699.629 561.663 692.565 546.525L656.318 563.44ZM662.198 594.52H622.198C622.198 602.192 620.394 605.557 619.168 607.207L651.278 631.06L683.387 654.913C696.721 636.963 702.198 615.968 702.198 594.52H662.198ZM651.278 631.06L619.168 607.207C617.523 609.421 614.037 612.722 605.809 615.685L619.358 653.32L632.906 690.956C652.678 683.838 670.472 672.299 683.387 654.913L651.278 631.06ZM619.358 653.32L605.809 615.685C597.393 618.714 585.189 620.88 568.118 620.88V660.88V700.88C591.366 700.88 613.322 698.006 632.906 690.956L619.358 653.32ZM714.005 645.34L693.01 679.387L693.135 679.464L693.261 679.54L714.005 645.34ZM676.625 603.76L640.073 620.006L640.229 620.358L640.393 620.707L676.625 603.76ZM678.305 486.16L642.872 467.6L642.756 467.822L642.642 468.045L678.305 486.16ZM717.365 444.16L738.361 478.207L738.438 478.159L738.515 478.111L717.365 444.16ZM811.025 431.56L802.112 470.554L802.645 470.676L803.181 470.783L811.025 431.56ZM839.585 440.38L878.293 450.464L886.999 417.044L855.207 403.557L839.585 440.38ZM826.565 490.36L812.325 527.74L854.024 543.625L865.273 500.444L826.565 490.36ZM807.245 484.48L797.91 523.375V523.375L807.245 484.48ZM742.145 499.18L710.985 474.1L710.797 474.333L710.613 474.569L742.145 499.18ZM734.165 578.56L696.803 592.845L696.875 593.034L696.949 593.221L734.165 578.56ZM752.225 599.98L731.645 634.28L732.311 634.679L732.992 635.052L752.225 599.98ZM810.605 605.02L816.974 644.51V644.51L810.605 605.02ZM834.545 598.3L873.965 591.515L865.41 541.809L818.96 561.461L834.545 598.3ZM843.365 649.54L858.951 686.379L888.167 674.018L882.786 642.755L843.365 649.54ZM816.065 657.52L808.027 618.336L816.065 657.52ZM779.945 660.88V620.88C757.933 620.88 743.77 616.611 734.75 611.14L714.005 645.34L693.261 679.54C718.4 694.789 748.197 700.88 779.945 700.88V660.88ZM714.005 645.34L735.001 611.293C724.628 604.897 717.571 596.889 712.858 586.813L676.625 603.76L640.393 620.707C651.919 645.35 669.782 665.063 693.01 679.387L714.005 645.34ZM676.625 603.76L713.178 587.514C707.891 575.62 704.865 561.518 704.865 544.54H664.865H624.865C624.865 571.242 629.679 596.62 640.073 620.006L676.625 603.76ZM664.865 544.54H704.865C704.865 529.069 708.072 515.883 713.968 504.275L678.305 486.16L642.642 468.045C630.619 491.717 624.865 517.451 624.865 544.54H664.865ZM678.305 486.16L713.738 504.72C719.676 493.386 727.734 484.76 738.361 478.207L717.365 444.16L696.37 410.113C673.396 424.28 655.415 443.654 642.872 467.6L678.305 486.16ZM717.365 444.16L738.515 478.111C748.169 472.097 760.979 468.2 778.685 468.2V428.2V388.2C748.792 388.2 720.721 394.943 696.215 410.209L717.365 444.16ZM778.685 428.2V468.2C787.938 468.2 795.68 469.084 802.112 470.554L811.025 431.56L819.938 392.566C806.77 389.556 792.952 388.2 778.685 388.2V428.2ZM811.025 431.56L803.181 470.783C810.302 472.207 817.216 474.341 823.963 477.203L839.585 440.38L855.207 403.557C843.474 398.579 831.349 394.833 818.87 392.337L811.025 431.56ZM839.585 440.38L800.877 430.296L787.857 480.276L826.565 490.36L865.273 500.444L878.293 450.464L839.585 440.38ZM826.565 490.36L840.805 452.98C833.116 450.051 825.014 447.609 816.58 445.585L807.245 484.48L797.91 523.375C803.477 524.711 808.255 526.189 812.325 527.74L826.565 490.36ZM807.245 484.48L816.58 445.585C805.973 443.039 794.929 441.96 783.725 441.96V481.96V521.96C789.881 521.96 794.517 522.561 797.91 523.375L807.245 484.48ZM783.725 481.96V441.96C756.501 441.96 729.703 450.844 710.985 474.1L742.145 499.18L773.306 524.26C773.642 523.843 773.926 523.573 774.775 523.221C775.869 522.768 778.556 521.96 783.725 521.96V481.96ZM742.145 499.18L710.613 474.569C694.758 494.883 688.705 519.458 688.705 544.54H728.705H768.705C768.705 532.102 771.613 526.437 773.678 523.791L742.145 499.18ZM728.705 544.54H688.705C688.705 561.23 690.994 577.652 696.803 592.845L734.165 578.56L771.527 564.275C770.057 560.428 768.705 554.17 768.705 544.54H728.705ZM734.165 578.56L696.949 593.221C703.771 610.539 715.576 624.638 731.645 634.28L752.225 599.98L772.805 565.68C772.199 565.317 772.023 565.098 771.991 565.061C771.955 565.019 771.71 564.733 771.382 563.899L734.165 578.56ZM752.225 599.98L732.992 635.052C749.505 644.108 768.147 647.12 786.245 647.12V607.12V567.12C776.344 567.12 772.305 565.372 771.459 564.908L752.225 599.98ZM786.245 607.12V647.12C796.249 647.12 806.519 646.196 816.974 644.51L810.605 605.02L804.236 565.53C797.331 566.644 791.361 567.12 786.245 567.12V607.12ZM810.605 605.02L816.974 644.51C828.472 642.655 839.587 639.599 850.131 635.139L834.545 598.3L818.96 561.461C814.943 563.16 810.098 564.585 804.236 565.53L810.605 605.02ZM834.545 598.3L795.125 605.085L803.945 656.325L843.365 649.54L882.786 642.755L873.965 591.515L834.545 598.3ZM843.365 649.54L827.78 612.701C823.695 614.429 817.323 616.429 808.027 618.336L816.065 657.52L824.103 696.704C836.648 694.131 848.475 690.811 858.951 686.379L843.365 649.54ZM816.065 657.52L808.027 618.336C800.175 619.947 790.875 620.88 779.945 620.88V660.88V700.88C795.336 700.88 810.115 699.573 824.103 696.704L816.065 657.52Z" fill="#2F0056" mask="url(#path-8-outside-2_3373_59)"/>
</g>
</svg>
