<svg width="1024" height="1024" viewBox="0 0 1024 1024" fill="none" xmlns="http://www.w3.org/2000/svg">
<mask id="mask0_3327_96" style="mask-type:alpha" maskUnits="userSpaceOnUse" x="0" y="0" width="1024" height="1024">
<rect width="1024" height="1024" fill="url(#paint0_linear_3327_96)"/>
</mask>
<g mask="url(#mask0_3327_96)">
<rect width="1024" height="1024" rx="80" fill="url(#paint1_linear_3327_96)"/>
<path d="M512 950.857C754.374 950.857 950.857 754.374 950.857 512C950.857 269.626 754.374 73.1428 512 73.1428C269.626 73.1428 73.1429 269.626 73.1429 512C73.1429 754.374 269.626 950.857 512 950.857Z" stroke="white" stroke-width="6"/>
<path d="M512 877.714C713.978 877.714 877.714 713.978 877.714 512C877.714 310.022 713.978 146.286 512 146.286C310.022 146.286 146.286 310.022 146.286 512C146.286 713.978 310.022 877.714 512 877.714Z" stroke="white" stroke-width="6"/>
<path d="M512 804.571C673.583 804.571 804.571 673.583 804.571 512C804.571 350.417 673.583 219.429 512 219.429C350.417 219.429 219.429 350.417 219.429 512C219.429 673.583 350.417 804.571 512 804.571Z" stroke="white" stroke-width="6"/>
<path opacity="0.9" d="M512 824.076C684.355 824.076 824.076 684.355 824.076 512C824.076 339.645 684.355 199.924 512 199.924C339.645 199.924 199.924 339.645 199.924 512C199.924 684.355 339.645 824.076 512 824.076Z" fill="url(#paint2_radial_3327_96)" stroke="white" stroke-width="6"/>
<path d="M512 785.067C662.811 785.067 785.067 662.811 785.067 512C785.067 361.189 662.811 238.933 512 238.933C361.189 238.933 238.933 361.189 238.933 512C238.933 662.811 361.189 785.067 512 785.067Z" stroke="white" stroke-width="6"/>
<path d="M512 746.057C641.266 746.057 746.057 641.266 746.057 512C746.057 382.734 641.266 277.943 512 277.943C382.734 277.943 277.943 382.734 277.943 512C277.943 641.266 382.734 746.057 512 746.057Z" stroke="white" stroke-width="6"/>
<path d="M512 707.048C619.722 707.048 707.048 619.722 707.048 512C707.048 404.278 619.722 316.952 512 316.952C404.278 316.952 316.952 404.278 316.952 512C316.952 619.722 404.278 707.048 512 707.048Z" stroke="white" stroke-width="6"/>
<path d="M512 668.038C598.177 668.038 668.038 598.177 668.038 512C668.038 425.823 598.177 355.962 512 355.962C425.823 355.962 355.962 425.823 355.962 512C355.962 598.177 425.823 668.038 512 668.038Z" stroke="white" stroke-width="6"/>
<path d="M512 397.971C574.976 397.971 626.029 449.024 626.029 512C626.029 574.976 574.976 626.029 512 626.029C449.024 626.029 397.971 574.976 397.971 512C397.972 449.024 449.024 397.972 512 397.971Z" stroke="white" stroke-width="6"/>
<path d="M90.5727 695V481.64C101.213 478.56 114.933 475.76 131.733 473.24C148.533 470.44 166.173 469.04 184.653 469.04C209.853 469.04 229.453 473.38 243.453 482.06C257.453 490.46 267.253 502.22 272.853 517.34C278.453 532.46 281.253 550.1 281.253 570.26V695H218.673V577.82C218.673 564.38 217.553 553.6 215.313 545.48C213.073 537.36 209.153 531.48 203.553 527.84C198.233 524.2 190.673 522.38 180.873 522.38C176.393 522.38 171.633 522.66 166.593 523.22C161.553 523.5 157.073 523.92 153.153 524.48V695H90.5727Z" fill="#AA43FF"/>
<path d="M408.877 700.46C384.517 700.46 363.797 695.84 346.717 686.6C329.637 677.36 316.477 664.2 307.237 647.12C298.277 629.76 293.797 609.32 293.797 585.8C293.797 561.72 297.717 541 305.557 523.64C313.397 506.28 324.597 492.98 339.157 483.74C353.997 474.22 371.777 469.46 392.497 469.46C401.177 469.46 408.877 470.3 415.597 471.98C422.597 473.66 429.597 476.04 436.597 479.12V379.16L499.177 369.08V687.86C491.897 690.1 483.077 692.2 472.717 694.16C462.357 696.12 451.577 697.66 440.377 698.78C429.457 699.9 418.957 700.46 408.877 700.46ZM409.297 647.12C414.897 647.12 420.077 646.98 424.837 646.7C429.597 646.14 433.517 645.58 436.597 645.02V531.2C432.677 528.68 427.497 526.58 421.057 524.9C414.897 523.22 408.597 522.38 402.157 522.38C394.597 522.38 388.017 523.64 382.417 526.16C377.097 528.68 372.477 532.46 368.557 537.5C364.917 542.54 362.117 548.84 360.157 556.4C358.477 563.96 357.637 572.78 357.637 582.86C357.637 595.74 359.597 607.08 363.517 616.88C367.437 626.4 373.177 633.82 380.737 639.14C388.577 644.46 398.097 647.12 409.297 647.12ZM524.173 695V474.08H586.753V695H524.173ZM555.673 438.8C545.593 438.8 536.773 435.58 529.213 429.14C521.933 422.42 518.293 413.32 518.293 401.84C518.293 390.36 521.933 381.4 529.213 374.96C536.773 368.24 545.593 364.88 555.673 364.88C565.753 364.88 574.433 368.24 581.713 374.96C589.273 381.4 593.053 390.36 593.053 401.84C593.053 413.32 589.273 422.42 581.713 429.14C574.433 435.58 565.753 438.8 555.673 438.8ZM674.98 700.88C655.38 700.88 639 699.2 625.84 695.84C612.96 692.48 604 689.68 598.96 687.44L609.46 636.62C620.1 640.82 631.02 644.18 642.22 646.7C653.42 648.94 664.48 650.06 675.4 650.06C686.88 650.06 695 648.94 699.76 646.7C704.52 644.46 706.9 640.12 706.9 633.68C706.9 630.32 705.5 627.38 702.7 624.86C699.9 622.06 695.7 619.26 690.1 616.46C684.78 613.66 677.92 610.72 669.52 607.64C656.64 602.6 645.3 597.28 635.5 591.68C625.7 586.08 618.14 578.94 612.82 570.26C607.5 561.3 604.84 549.68 604.84 535.4C604.84 521.4 608.34 509.5 615.34 499.7C622.34 489.62 632.28 481.92 645.16 476.6C658.04 471 673.44 468.2 691.36 468.2C704.8 468.2 717.68 469.46 730 471.98C742.32 474.22 752.12 476.74 759.4 479.54L748.48 528.26C741.2 525.74 733.22 523.5 724.54 521.54C716.14 519.58 706.62 518.6 695.98 518.6C686.18 518.6 678.76 520 673.72 522.8C668.96 525.32 666.58 529.38 666.58 534.98C666.58 538.06 667.42 541 669.1 543.8C670.78 546.32 674 548.84 678.76 551.36C683.52 553.88 690.52 556.82 699.76 560.18C718.24 566.9 732.38 573.62 742.18 580.34C752.26 587.06 759.26 594.76 763.18 603.44C767.1 611.84 769.06 622.2 769.06 634.52C769.06 649.08 765.42 661.26 758.14 671.06C750.86 680.86 740.22 688.28 726.22 693.32C712.22 698.36 695.14 700.88 674.98 700.88ZM886.807 700.88C859.927 700.88 837.947 695.7 820.867 685.34C804.067 674.98 791.607 661.12 783.487 643.76C775.647 626.12 771.727 606.38 771.727 584.54C771.727 563.26 776.207 543.8 785.167 526.16C794.407 508.52 807.427 494.52 824.227 484.16C841.307 473.52 861.747 468.2 885.547 468.2C897.307 468.2 908.087 469.32 917.887 471.56C927.687 473.52 937.207 476.46 946.447 480.38L933.427 530.36C927.547 528.12 921.107 526.16 914.107 524.48C907.107 522.8 899.267 521.96 890.587 521.96C872.107 521.96 858.247 527.7 849.007 539.18C840.047 550.66 835.567 565.78 835.567 584.54C835.567 597.7 837.387 609.04 841.027 618.56C844.667 627.8 850.687 634.94 859.087 639.98C867.767 644.74 879.107 647.12 893.107 647.12C900.667 647.12 908.787 646.42 917.467 645.02C926.147 643.62 934.127 641.38 941.407 638.3L950.227 689.54C942.947 692.62 933.847 695.28 922.927 697.52C912.007 699.76 899.967 700.88 886.807 700.88Z" fill="white"/>
<path d="M512 562C498.517 562 486.719 557.644 476.607 548.932C466.869 539.841 462 527.53 462 512C462 496.47 466.869 484.348 476.607 475.636C486.719 466.545 498.517 462 512 462C525.483 462 537.094 466.545 546.831 475.636C556.944 484.348 562 496.47 562 512C562 527.53 556.944 539.841 546.831 548.932C537.094 557.644 525.483 562 512 562Z" fill="#AA43FF"/>
</g>
<defs>
<linearGradient id="paint0_linear_3327_96" x1="512" y1="0" x2="512" y2="1024" gradientUnits="userSpaceOnUse">
<stop offset="0.177885" stop-color="#1E1E2E"/>
<stop offset="1" stop-color="#0B0B10"/>
</linearGradient>
<linearGradient id="paint1_linear_3327_96" x1="512" y1="0" x2="512" y2="1024" gradientUnits="userSpaceOnUse">
<stop offset="0.177885" stop-color="#1E1E2E"/>
<stop offset="1" stop-color="#0B0B10"/>
</linearGradient>
<radialGradient id="paint2_radial_3327_96" cx="0" cy="0" r="1" gradientUnits="userSpaceOnUse" gradientTransform="translate(512 512) scale(312.076)">
<stop stop-color="#313244"/>
<stop offset="0.8" stop-color="#181825"/>
<stop offset="1" stop-color="#1E1E2E"/>
</radialGradient>
</defs>
</svg>
