<svg width="128" height="128" viewBox="0 0 128 128" fill="none" xmlns="http://www.w3.org/2000/svg">

<g id="ndisc 2">
<path id="rect5" d="M102 4H26C13.8497 4 4 13.8497 4 26V102C4 114.15 13.8497 124 26 124H102C114.15 124 124 114.15 124 102V26C124 13.8497 114.15 4 102 4Z" fill="url(#paint0_linear_3311_2)"/>
<path id="circle6" opacity="0.9" d="M64 94C81.6731 94 96 79.6731 96 62C96 44.3269 81.6731 30 64 30C46.3269 30 32 44.3269 32 62C32 79.6731 46.3269 94 64 94Z" fill="url(#paint1_radial_3311_2)" stroke="#A6E3A1" stroke-width="0.5"/>
<g id="g10" opacity="0.35">
<path id="circle7" d="M64 90C79.464 90 92 77.464 92 62C92 46.536 79.464 34 64 34C48.536 34 36 46.536 36 62C36 77.464 48.536 90 64 90Z" stroke="#CDD6F4" stroke-width="0.4"/>
<path id="circle8" d="M64 86C77.2548 86 88 75.2548 88 62C88 48.7452 77.2548 38 64 38C50.7452 38 40 48.7452 40 62C40 75.2548 50.7452 86 64 86Z" stroke="#CDD6F4" stroke-width="0.4"/>
<path id="circle9" d="M64 82C75.0457 82 84 73.0457 84 62C84 50.9543 75.0457 42 64 42C52.9543 42 44 50.9543 44 62C44 73.0457 52.9543 82 64 82Z" stroke="#CDD6F4" stroke-width="0.4"/>
<path id="circle10" d="M64 78C72.8366 78 80 70.8366 80 62C80 53.1634 72.8366 46 64 46C55.1634 46 48 53.1634 48 62C48 70.8366 55.1634 78 64 78Z" stroke="#CDD6F4" stroke-width="0.4"/>
</g>
<path id="circle11" d="M64 71C68.9706 71 73 66.9706 73 62C73 57.0294 68.9706 53 64 53C59.0294 53 55 57.0294 55 62C55 66.9706 59.0294 71 64 71Z" fill="#89B4FA"/>
<path id="circle12" d="M64 63.6C64.8836 63.6 65.6 62.8836 65.6 62C65.6 61.1163 64.8836 60.4 64 60.4C63.1163 60.4 62.4 61.1163 62.4 62C62.4 62.8836 63.1163 63.6 64 63.6Z" fill="#1E1E2E"/>
<path id="ndisc" d="M20.6177 99V80.712C21.5297 80.448 22.7057 80.208 24.1457 79.992C25.5857 79.752 27.0977 79.632 28.6817 79.632C30.8417 79.632 32.5217 80.004 33.7217 80.748C34.9217 81.468 35.7617 82.476 36.2417 83.772C36.7217 85.068 36.9617 86.58 36.9617 88.308V99H31.5977V88.956C31.5977 87.804 31.5017 86.88 31.3097 86.184C31.1177 85.488 30.7817 84.984 30.3017 84.672C29.8457 84.36 29.1977 84.204 28.3577 84.204C27.9737 84.204 27.5657 84.228 27.1337 84.276C26.7017 84.3 26.3177 84.336 25.9817 84.384V99H20.6177ZM50.7809 99.468C48.6929 99.468 46.9169 99.072 45.4529 98.28C43.9889 97.488 42.8609 96.36 42.0689 94.896C41.3009 93.408 40.9169 91.656 40.9169 89.64C40.9169 87.576 41.2529 85.8 41.9249 84.312C42.5969 82.824 43.5569 81.684 44.8049 80.892C46.0769 80.076 47.6009 79.668 49.3769 79.668C50.1209 79.668 50.7809 79.74 51.3569 79.884C51.9569 80.028 52.5569 80.232 53.1569 80.496V71.928L58.5209 71.064V98.388C57.8969 98.58 57.1409 98.76 56.2529 98.928C55.3649 99.096 54.4409 99.228 53.4809 99.324C52.5449 99.42 51.6449 99.468 50.7809 99.468ZM50.8169 94.896C51.2969 94.896 51.7409 94.884 52.1489 94.86C52.5569 94.812 52.8929 94.764 53.1569 94.716V84.96C52.8209 84.744 52.3769 84.564 51.8249 84.42C51.2969 84.276 50.7569 84.204 50.2049 84.204C49.5569 84.204 48.9929 84.312 48.5129 84.528C48.0569 84.744 47.6609 85.068 47.3249 85.5C47.0129 85.932 46.7729 86.472 46.6049 87.12C46.4609 87.768 46.3889 88.524 46.3889 89.388C46.3889 90.492 46.5569 91.464 46.8929 92.304C47.2289 93.12 47.7209 93.756 48.3689 94.212C49.0409 94.668 49.8569 94.896 50.8169 94.896ZM63.5434 99V80.064H68.9074V99H63.5434ZM66.2434 77.04C65.3794 77.04 64.6234 76.764 63.9754 76.212C63.3514 75.636 63.0394 74.856 63.0394 73.872C63.0394 72.888 63.3514 72.12 63.9754 71.568C64.6234 70.992 65.3794 70.704 66.2434 70.704C67.1074 70.704 67.8514 70.992 68.4754 71.568C69.1234 72.12 69.4474 72.888 69.4474 73.872C69.4474 74.856 69.1234 75.636 68.4754 76.212C67.8514 76.764 67.1074 77.04 66.2434 77.04ZM79.3497 99.504C77.6697 99.504 76.2657 99.36 75.1377 99.072C74.0337 98.784 73.2657 98.544 72.8337 98.352L73.7337 93.996C74.6457 94.356 75.5817 94.644 76.5417 94.86C77.5017 95.052 78.4497 95.148 79.3857 95.148C80.3697 95.148 81.0657 95.052 81.4737 94.86C81.8817 94.668 82.0857 94.296 82.0857 93.744C82.0857 93.456 81.9657 93.204 81.7257 92.988C81.4857 92.748 81.1257 92.508 80.6457 92.268C80.1897 92.028 79.6017 91.776 78.8817 91.512C77.7777 91.08 76.8057 90.624 75.9657 90.144C75.1257 89.664 74.4777 89.052 74.0217 88.308C73.5657 87.54 73.3377 86.544 73.3377 85.32C73.3377 84.12 73.6377 83.1 74.2377 82.26C74.8377 81.396 75.6897 80.736 76.7937 80.28C77.8977 79.8 79.2177 79.56 80.7537 79.56C81.9057 79.56 83.0097 79.668 84.0657 79.884C85.1217 80.076 85.9617 80.292 86.5857 80.532L85.6497 84.708C85.0257 84.492 84.3417 84.3 83.5977 84.132C82.8777 83.964 82.0617 83.88 81.1497 83.88C80.3097 83.88 79.6737 84 79.2417 84.24C78.8337 84.456 78.6297 84.804 78.6297 85.284C78.6297 85.548 78.7017 85.8 78.8457 86.04C78.9897 86.256 79.2657 86.472 79.6737 86.688C80.0817 86.904 80.6817 87.156 81.4737 87.444C83.0577 88.02 84.2697 88.596 85.1097 89.172C85.9737 89.748 86.5737 90.408 86.9097 91.152C87.2457 91.872 87.4137 92.76 87.4137 93.816C87.4137 95.064 87.1017 96.108 86.4777 96.948C85.8537 97.788 84.9417 98.424 83.7417 98.856C82.5417 99.288 81.0777 99.504 79.3497 99.504ZM100.386 99.504C98.0823 99.504 96.1983 99.06 94.7343 98.172C93.2943 97.284 92.2263 96.096 91.5303 94.608C90.8583 93.096 90.5223 91.404 90.5223 89.532C90.5223 87.708 90.9063 86.04 91.6743 84.528C92.4663 83.016 93.5823 81.816 95.0223 80.928C96.4863 80.016 98.2383 79.56 100.278 79.56C101.286 79.56 102.21 79.656 103.05 79.848C103.89 80.016 104.706 80.268 105.498 80.604L104.382 84.888C103.878 84.696 103.326 84.528 102.726 84.384C102.126 84.24 101.454 84.168 100.71 84.168C99.1263 84.168 97.9383 84.66 97.1463 85.644C96.3783 86.628 95.9943 87.924 95.9943 89.532C95.9943 90.66 96.1503 91.632 96.4623 92.448C96.7743 93.24 97.2903 93.852 98.0103 94.284C98.7543 94.692 99.7263 94.896 100.926 94.896C101.574 94.896 102.27 94.836 103.014 94.716C103.758 94.596 104.442 94.404 105.066 94.14L105.822 98.532C105.198 98.796 104.418 99.024 103.482 99.216C102.546 99.408 101.514 99.504 100.386 99.504Z" fill="#89B4FA"/>
</g>
<defs>
<linearGradient id="paint0_linear_3311_2" x1="4" y1="4" x2="4" y2="124" gradientUnits="userSpaceOnUse">
<stop stop-color="#0B0B10"/>
<stop offset="1" stop-color="#1E1E2E"/>
</linearGradient>
<radialGradient id="paint1_radial_3311_2" cx="0" cy="0" r="1" gradientUnits="userSpaceOnUse" gradientTransform="translate(64 62) scale(32)">
<stop stop-color="#313244"/>
<stop offset="0.8" stop-color="#181825"/>
<stop offset="1" stop-color="#1E1E2E"/>
</radialGradient>
</defs>
</svg>
