<svg width="1024" height="1024" viewBox="0 0 1024 1024" fill="none" xmlns="http://www.w3.org/2000/svg">
<mask id="mask0_3327_96" style="mask-type:alpha" maskUnits="userSpaceOnUse" x="0" y="0" width="1024" height="1024">
<rect width="1024" height="1024" fill="url(#paint0_linear_3327_96)"/>
</mask>
<g mask="url(#mask0_3327_96)">
<rect width="1024" height="1024" rx="80" fill="url(#paint1_linear_3327_96)"/>
<path d="M512 950.857C754.374 950.857 950.857 754.374 950.857 512C950.857 269.626 754.374 73.1428 512 73.1428C269.626 73.1428 73.1429 269.626 73.1429 512C73.1429 754.374 269.626 950.857 512 950.857Z" fill="url(#paint2_radial_3327_96)" fill-opacity="0.2" stroke="#E0BBFF" stroke-width="6"/>
<path d="M512 877.714C713.978 877.714 877.714 713.978 877.714 512C877.714 310.022 713.978 146.286 512 146.286C310.022 146.286 146.286 310.022 146.286 512C146.286 713.978 310.022 877.714 512 877.714Z" fill="url(#paint3_radial_3327_96)" fill-opacity="0.2" stroke="#E0BBFF" stroke-width="6"/>
<path d="M512 804.571C673.583 804.571 804.571 673.583 804.571 512C804.571 350.417 673.583 219.429 512 219.429C350.417 219.429 219.429 350.417 219.429 512C219.429 673.583 350.417 804.571 512 804.571Z" fill="url(#paint4_radial_3327_96)" fill-opacity="0.2" stroke="#E0BBFF" stroke-width="6"/>
<path opacity="0.9" d="M512 824.076C684.355 824.076 824.076 684.355 824.076 512C824.076 339.645 684.355 199.924 512 199.924C339.645 199.924 199.924 339.645 199.924 512C199.924 684.355 339.645 824.076 512 824.076Z" fill="url(#paint5_radial_3327_96)" fill-opacity="0.2" stroke="#E0BBFF" stroke-width="6"/>
<path d="M512 785.067C662.811 785.067 785.067 662.811 785.067 512C785.067 361.189 662.811 238.933 512 238.933C361.189 238.933 238.933 361.189 238.933 512C238.933 662.811 361.189 785.067 512 785.067Z" fill="url(#paint6_radial_3327_96)" fill-opacity="0.2" stroke="#E0BBFF" stroke-width="6"/>
<path d="M512 746.057C641.266 746.057 746.057 641.266 746.057 512C746.057 382.734 641.266 277.943 512 277.943C382.734 277.943 277.943 382.734 277.943 512C277.943 641.266 382.734 746.057 512 746.057Z" fill="url(#paint7_radial_3327_96)" fill-opacity="0.2" stroke="#E0BBFF" stroke-width="6"/>
<path d="M512 707.048C619.722 707.048 707.048 619.722 707.048 512C707.048 404.278 619.722 316.952 512 316.952C404.278 316.952 316.952 404.278 316.952 512C316.952 619.722 404.278 707.048 512 707.048Z" fill="url(#paint8_radial_3327_96)" fill-opacity="0.2" stroke="#E0BBFF" stroke-width="6"/>
<path d="M512 668.038C598.177 668.038 668.038 598.177 668.038 512C668.038 425.823 598.177 355.962 512 355.962C425.823 355.962 355.962 425.823 355.962 512C355.962 598.177 425.823 668.038 512 668.038Z" fill="url(#paint9_radial_3327_96)" fill-opacity="0.2" stroke="#E0BBFF" stroke-width="6"/>
<path d="M512 397.971C574.976 397.971 626.029 449.024 626.029 512C626.029 574.976 574.976 626.029 512 626.029C449.024 626.029 397.971 574.976 397.971 512C397.972 449.024 449.024 397.972 512 397.971Z" fill="url(#paint10_radial_3327_96)" fill-opacity="0.2" stroke="#E0BBFF" stroke-width="6"/>
<path d="M512 762C444.584 762 385.596 740.22 335.034 696.659C286.345 651.205 262 589.652 262 512C262 434.348 286.345 373.742 335.034 330.182C385.596 284.727 444.584 262 512 262C579.416 262 637.468 284.727 686.157 330.182C736.719 373.742 762 434.348 762 512C762 589.652 736.719 651.205 686.157 696.659C637.468 740.22 579.416 762 512 762Z" fill="#6F00CA"/>
<mask id="path-13-outside-1_3327_96" maskUnits="userSpaceOnUse" x="50" y="322" width="946" height="419" fill="black">
<rect fill="white" x="50" y="322" width="946" height="419"/>
<path d="M90.5727 695V481.64C101.213 478.56 114.933 475.76 131.733 473.24C148.533 470.44 166.173 469.04 184.653 469.04C209.853 469.04 229.453 473.38 243.453 482.06C257.453 490.46 267.253 502.22 272.853 517.34C278.453 532.46 281.253 550.1 281.253 570.26V695H218.673V577.82C218.673 564.38 217.553 553.6 215.313 545.48C213.073 537.36 209.153 531.48 203.553 527.84C198.233 524.2 190.673 522.38 180.873 522.38C176.393 522.38 171.633 522.66 166.593 523.22C161.553 523.5 157.073 523.92 153.153 524.48V695H90.5727Z"/>
<path d="M408.877 700.46C384.517 700.46 363.797 695.84 346.717 686.6C329.637 677.36 316.477 664.2 307.237 647.12C298.277 629.76 293.797 609.32 293.797 585.8C293.797 561.72 297.717 541 305.557 523.64C313.397 506.28 324.597 492.98 339.157 483.74C353.997 474.22 371.777 469.46 392.497 469.46C401.177 469.46 408.877 470.3 415.597 471.98C422.597 473.66 429.597 476.04 436.597 479.12V379.16L499.177 369.08V687.86C491.897 690.1 483.077 692.2 472.717 694.16C462.357 696.12 451.577 697.66 440.377 698.78C429.457 699.9 418.957 700.46 408.877 700.46ZM409.297 647.12C414.897 647.12 420.077 646.98 424.837 646.7C429.597 646.14 433.517 645.58 436.597 645.02V531.2C432.677 528.68 427.497 526.58 421.057 524.9C414.897 523.22 408.597 522.38 402.157 522.38C394.597 522.38 388.017 523.64 382.417 526.16C377.097 528.68 372.477 532.46 368.557 537.5C364.917 542.54 362.117 548.84 360.157 556.4C358.477 563.96 357.637 572.78 357.637 582.86C357.637 595.74 359.597 607.08 363.517 616.88C367.437 626.4 373.177 633.82 380.737 639.14C388.577 644.46 398.097 647.12 409.297 647.12ZM524.173 695V474.08H586.753V695H524.173ZM555.673 438.8C545.593 438.8 536.773 435.58 529.213 429.14C521.933 422.42 518.293 413.32 518.293 401.84C518.293 390.36 521.933 381.4 529.213 374.96C536.773 368.24 545.593 364.88 555.673 364.88C565.753 364.88 574.433 368.24 581.713 374.96C589.273 381.4 593.053 390.36 593.053 401.84C593.053 413.32 589.273 422.42 581.713 429.14C574.433 435.58 565.753 438.8 555.673 438.8ZM674.98 700.88C655.38 700.88 639 699.2 625.84 695.84C612.96 692.48 604 689.68 598.96 687.44L609.46 636.62C620.1 640.82 631.02 644.18 642.22 646.7C653.42 648.94 664.48 650.06 675.4 650.06C686.88 650.06 695 648.94 699.76 646.7C704.52 644.46 706.9 640.12 706.9 633.68C706.9 630.32 705.5 627.38 702.7 624.86C699.9 622.06 695.7 619.26 690.1 616.46C684.78 613.66 677.92 610.72 669.52 607.64C656.64 602.6 645.3 597.28 635.5 591.68C625.7 586.08 618.14 578.94 612.82 570.26C607.5 561.3 604.84 549.68 604.84 535.4C604.84 521.4 608.34 509.5 615.34 499.7C622.34 489.62 632.28 481.92 645.16 476.6C658.04 471 673.44 468.2 691.36 468.2C704.8 468.2 717.68 469.46 730 471.98C742.32 474.22 752.12 476.74 759.4 479.54L748.48 528.26C741.2 525.74 733.22 523.5 724.54 521.54C716.14 519.58 706.62 518.6 695.98 518.6C686.18 518.6 678.76 520 673.72 522.8C668.96 525.32 666.58 529.38 666.58 534.98C666.58 538.06 667.42 541 669.1 543.8C670.78 546.32 674 548.84 678.76 551.36C683.52 553.88 690.52 556.82 699.76 560.18C718.24 566.9 732.38 573.62 742.18 580.34C752.26 587.06 759.26 594.76 763.18 603.44C767.1 611.84 769.06 622.2 769.06 634.52C769.06 649.08 765.42 661.26 758.14 671.06C750.86 680.86 740.22 688.28 726.22 693.32C712.22 698.36 695.14 700.88 674.98 700.88ZM886.807 700.88C859.927 700.88 837.947 695.7 820.867 685.34C804.067 674.98 791.607 661.12 783.487 643.76C775.647 626.12 771.727 606.38 771.727 584.54C771.727 563.26 776.207 543.8 785.167 526.16C794.407 508.52 807.427 494.52 824.227 484.16C841.307 473.52 861.747 468.2 885.547 468.2C897.307 468.2 908.087 469.32 917.887 471.56C927.687 473.52 937.207 476.46 946.447 480.38L933.427 530.36C927.547 528.12 921.107 526.16 914.107 524.48C907.107 522.8 899.267 521.96 890.587 521.96C872.107 521.96 858.247 527.7 849.007 539.18C840.047 550.66 835.567 565.78 835.567 584.54C835.567 597.7 837.387 609.04 841.027 618.56C844.667 627.8 850.687 634.94 859.087 639.98C867.767 644.74 879.107 647.12 893.107 647.12C900.667 647.12 908.787 646.42 917.467 645.02C926.147 643.62 934.127 641.38 941.407 638.3L950.227 689.54C942.947 692.62 933.847 695.28 922.927 697.52C912.007 699.76 899.967 700.88 886.807 700.88Z"/>
</mask>
<path d="M90.5727 695V481.64C101.213 478.56 114.933 475.76 131.733 473.24C148.533 470.44 166.173 469.04 184.653 469.04C209.853 469.04 229.453 473.38 243.453 482.06C257.453 490.46 267.253 502.22 272.853 517.34C278.453 532.46 281.253 550.1 281.253 570.26V695H218.673V577.82C218.673 564.38 217.553 553.6 215.313 545.48C213.073 537.36 209.153 531.48 203.553 527.84C198.233 524.2 190.673 522.38 180.873 522.38C176.393 522.38 171.633 522.66 166.593 523.22C161.553 523.5 157.073 523.92 153.153 524.48V695H90.5727Z" fill="#E8CDFF"/>
<path d="M408.877 700.46C384.517 700.46 363.797 695.84 346.717 686.6C329.637 677.36 316.477 664.2 307.237 647.12C298.277 629.76 293.797 609.32 293.797 585.8C293.797 561.72 297.717 541 305.557 523.64C313.397 506.28 324.597 492.98 339.157 483.74C353.997 474.22 371.777 469.46 392.497 469.46C401.177 469.46 408.877 470.3 415.597 471.98C422.597 473.66 429.597 476.04 436.597 479.12V379.16L499.177 369.08V687.86C491.897 690.1 483.077 692.2 472.717 694.16C462.357 696.12 451.577 697.66 440.377 698.78C429.457 699.9 418.957 700.46 408.877 700.46ZM409.297 647.12C414.897 647.12 420.077 646.98 424.837 646.7C429.597 646.14 433.517 645.58 436.597 645.02V531.2C432.677 528.68 427.497 526.58 421.057 524.9C414.897 523.22 408.597 522.38 402.157 522.38C394.597 522.38 388.017 523.64 382.417 526.16C377.097 528.68 372.477 532.46 368.557 537.5C364.917 542.54 362.117 548.84 360.157 556.4C358.477 563.96 357.637 572.78 357.637 582.86C357.637 595.74 359.597 607.08 363.517 616.88C367.437 626.4 373.177 633.82 380.737 639.14C388.577 644.46 398.097 647.12 409.297 647.12ZM524.173 695V474.08H586.753V695H524.173ZM555.673 438.8C545.593 438.8 536.773 435.58 529.213 429.14C521.933 422.42 518.293 413.32 518.293 401.84C518.293 390.36 521.933 381.4 529.213 374.96C536.773 368.24 545.593 364.88 555.673 364.88C565.753 364.88 574.433 368.24 581.713 374.96C589.273 381.4 593.053 390.36 593.053 401.84C593.053 413.32 589.273 422.42 581.713 429.14C574.433 435.58 565.753 438.8 555.673 438.8ZM674.98 700.88C655.38 700.88 639 699.2 625.84 695.84C612.96 692.48 604 689.68 598.96 687.44L609.46 636.62C620.1 640.82 631.02 644.18 642.22 646.7C653.42 648.94 664.48 650.06 675.4 650.06C686.88 650.06 695 648.94 699.76 646.7C704.52 644.46 706.9 640.12 706.9 633.68C706.9 630.32 705.5 627.38 702.7 624.86C699.9 622.06 695.7 619.26 690.1 616.46C684.78 613.66 677.92 610.72 669.52 607.64C656.64 602.6 645.3 597.28 635.5 591.68C625.7 586.08 618.14 578.94 612.82 570.26C607.5 561.3 604.84 549.68 604.84 535.4C604.84 521.4 608.34 509.5 615.34 499.7C622.34 489.62 632.28 481.92 645.16 476.6C658.04 471 673.44 468.2 691.36 468.2C704.8 468.2 717.68 469.46 730 471.98C742.32 474.22 752.12 476.74 759.4 479.54L748.48 528.26C741.2 525.74 733.22 523.5 724.54 521.54C716.14 519.58 706.62 518.6 695.98 518.6C686.18 518.6 678.76 520 673.72 522.8C668.96 525.32 666.58 529.38 666.58 534.98C666.58 538.06 667.42 541 669.1 543.8C670.78 546.32 674 548.84 678.76 551.36C683.52 553.88 690.52 556.82 699.76 560.18C718.24 566.9 732.38 573.62 742.18 580.34C752.26 587.06 759.26 594.76 763.18 603.44C767.1 611.84 769.06 622.2 769.06 634.52C769.06 649.08 765.42 661.26 758.14 671.06C750.86 680.86 740.22 688.28 726.22 693.32C712.22 698.36 695.14 700.88 674.98 700.88ZM886.807 700.88C859.927 700.88 837.947 695.7 820.867 685.34C804.067 674.98 791.607 661.12 783.487 643.76C775.647 626.12 771.727 606.38 771.727 584.54C771.727 563.26 776.207 543.8 785.167 526.16C794.407 508.52 807.427 494.52 824.227 484.16C841.307 473.52 861.747 468.2 885.547 468.2C897.307 468.2 908.087 469.32 917.887 471.56C927.687 473.52 937.207 476.46 946.447 480.38L933.427 530.36C927.547 528.12 921.107 526.16 914.107 524.48C907.107 522.8 899.267 521.96 890.587 521.96C872.107 521.96 858.247 527.7 849.007 539.18C840.047 550.66 835.567 565.78 835.567 584.54C835.567 597.7 837.387 609.04 841.027 618.56C844.667 627.8 850.687 634.94 859.087 639.98C867.767 644.74 879.107 647.12 893.107 647.12C900.667 647.12 908.787 646.42 917.467 645.02C926.147 643.62 934.127 641.38 941.407 638.3L950.227 689.54C942.947 692.62 933.847 695.28 922.927 697.52C912.007 699.76 899.967 700.88 886.807 700.88Z" fill="#F5E9FF"/>
<path d="M90.5727 695H50.5727V735H90.5727V695ZM90.5727 481.64L79.4503 443.217L50.5727 451.577V481.64H90.5727ZM131.733 473.24L137.666 512.797L137.988 512.749L138.309 512.696L131.733 473.24ZM243.453 482.06L222.375 516.056L222.623 516.21L222.873 516.36L243.453 482.06ZM272.853 517.34L235.343 531.233L235.343 531.233L272.853 517.34ZM281.253 695V735H321.253V695H281.253ZM218.673 695H178.673V735H218.673V695ZM215.313 545.48L176.753 556.117L176.753 556.117L215.313 545.48ZM203.553 527.84L180.965 560.852L181.356 561.12L181.753 561.378L203.553 527.84ZM166.593 523.22L168.811 563.158L169.913 563.097L171.01 562.975L166.593 523.22ZM153.153 524.48L147.496 484.882L113.153 489.788V524.48H153.153ZM153.153 695V735H193.153V695H153.153ZM90.5727 695H130.573V481.64H90.5727H50.5727V695H90.5727ZM90.5727 481.64L101.695 520.063C109.989 517.662 121.8 515.177 137.666 512.797L131.733 473.24L125.799 433.683C108.065 436.343 92.4366 439.458 79.4503 443.217L90.5727 481.64ZM131.733 473.24L138.309 512.696C152.761 510.287 168.192 509.04 184.653 509.04V469.04V429.04C164.154 429.04 144.304 430.593 125.157 433.784L131.733 473.24ZM184.653 469.04V509.04C206.053 509.04 217.218 512.859 222.375 516.056L243.453 482.06L264.53 448.064C241.687 433.901 213.653 429.04 184.653 429.04V469.04ZM243.453 482.06L222.873 516.36C229.18 520.144 232.945 524.758 235.343 531.233L272.853 517.34L310.363 503.447C301.561 479.682 285.725 460.776 264.033 447.76L243.453 482.06ZM272.853 517.34L235.343 531.233C238.942 540.949 241.253 553.702 241.253 570.26H281.253H321.253C321.253 546.498 317.964 523.971 310.363 503.447L272.853 517.34ZM281.253 570.26H241.253V695H281.253H321.253V570.26H281.253ZM281.253 695V655H218.673V695V735H281.253V695ZM218.673 695H258.673V577.82H218.673H178.673V695H218.673ZM218.673 577.82H258.673C258.673 562.649 257.462 547.854 253.872 534.843L215.313 545.48L176.753 556.117C177.644 559.346 178.673 566.111 178.673 577.82H218.673ZM215.313 545.48L253.872 534.843C249.735 519.844 241.123 504.553 225.352 494.302L203.553 527.84L181.753 561.378C179.732 560.064 178.289 558.485 177.411 557.168C176.604 555.958 176.555 555.399 176.753 556.117L215.313 545.48ZM203.553 527.84L226.14 494.828C211.533 484.834 194.809 482.38 180.873 482.38V522.38V562.38C182.096 562.38 183.004 562.437 183.632 562.503C184.262 562.569 184.542 562.637 184.531 562.634C184.517 562.631 184.153 562.543 183.531 562.279C182.9 562.011 182.005 561.563 180.965 560.852L203.553 527.84ZM180.873 522.38V482.38C174.739 482.38 168.495 482.763 162.175 483.465L166.593 523.22L171.01 562.975C174.771 562.557 178.046 562.38 180.873 562.38V522.38ZM166.593 523.22L164.374 483.282C158.479 483.609 152.816 484.122 147.496 484.882L153.153 524.48L158.81 564.078C161.33 563.718 164.627 563.391 168.811 563.158L166.593 523.22ZM153.153 524.48H113.153V695H153.153H193.153V524.48H153.153ZM153.153 695V655H90.5727V695V735H153.153V695ZM346.717 686.6L327.684 721.782V721.782L346.717 686.6ZM307.237 647.12L271.692 665.466L271.87 665.811L272.055 666.153L307.237 647.12ZM305.557 523.64L342.012 540.103V540.103L305.557 523.64ZM339.157 483.74L360.59 517.513L360.673 517.461L360.755 517.408L339.157 483.74ZM415.597 471.98L405.895 510.786L406.079 510.831L406.262 510.875L415.597 471.98ZM436.597 479.12L420.487 515.733L476.597 540.421V479.12H436.597ZM436.597 379.16L430.236 339.669L396.597 345.087V379.16H436.597ZM499.177 369.08H539.177V322.121L492.816 329.589L499.177 369.08ZM499.177 687.86L510.94 726.091L539.177 717.403V687.86H499.177ZM440.377 698.78L436.397 658.979L436.346 658.984L436.296 658.989L440.377 698.78ZM424.837 646.7L427.186 686.631L428.351 686.562L429.511 686.426L424.837 646.7ZM436.597 645.02L443.752 684.375L476.597 678.403V645.02H436.597ZM436.597 531.2H476.597V509.362L458.227 497.553L436.597 531.2ZM421.057 524.9L410.532 563.491L410.746 563.549L410.96 563.605L421.057 524.9ZM382.417 526.16L366.002 489.683L365.646 489.843L365.293 490.01L382.417 526.16ZM368.557 537.5L336.983 512.942L336.546 513.504L336.13 514.08L368.557 537.5ZM360.157 556.4L321.437 546.362L321.261 547.039L321.109 547.723L360.157 556.4ZM363.517 616.88L326.378 631.736L326.453 631.923L326.53 632.11L363.517 616.88ZM380.737 639.14L357.717 671.852L357.995 672.048L358.277 672.239L380.737 639.14ZM408.877 700.46V660.46C389.503 660.46 375.68 656.791 365.75 651.418L346.717 686.6L327.684 721.782C351.914 734.889 379.531 740.46 408.877 740.46V700.46ZM346.717 686.6L365.75 651.418C355.508 645.878 347.959 638.329 342.419 628.087L307.237 647.12L272.055 666.153C284.994 690.071 303.766 708.842 327.684 721.782L346.717 686.6ZM307.237 647.12L342.782 628.774C337.289 618.131 333.797 604.227 333.797 585.8H293.797H253.797C253.797 614.413 259.265 641.389 271.692 665.466L307.237 647.12ZM293.797 585.8H333.797C333.797 565.947 337.039 551.113 342.012 540.103L305.557 523.64L269.102 507.177C258.394 530.886 253.797 557.493 253.797 585.8H293.797ZM305.557 523.64L342.012 540.103C346.989 529.082 353.299 522.14 360.59 517.513L339.157 483.74L317.724 449.967C295.894 463.82 279.805 483.478 269.102 507.177L305.557 523.64ZM339.157 483.74L360.755 517.408C368.09 512.702 378.069 509.46 392.497 509.46V469.46V429.46C365.485 429.46 339.904 435.738 317.559 450.072L339.157 483.74ZM392.497 469.46V509.46C398.691 509.46 403.029 510.069 405.895 510.786L415.597 471.98L425.298 433.174C414.725 430.531 403.663 429.46 392.497 429.46V469.46ZM415.597 471.98L406.262 510.875C410.801 511.965 415.538 513.555 420.487 515.733L436.597 479.12L452.706 442.507C443.656 438.525 434.393 435.355 424.932 433.085L415.597 471.98ZM436.597 479.12H476.597V379.16H436.597H396.597V479.12H436.597ZM436.597 379.16L442.958 418.651L505.538 408.571L499.177 369.08L492.816 329.589L430.236 339.669L436.597 379.16ZM499.177 369.08H459.177V687.86H499.177H539.177V369.08H499.177ZM499.177 687.86L487.413 649.629C481.977 651.302 474.69 653.077 465.281 654.857L472.717 694.16L480.153 733.463C491.464 731.323 501.817 728.898 510.94 726.091L499.177 687.86ZM472.717 694.16L465.281 654.857C456.139 656.587 446.515 657.967 436.397 658.979L440.377 698.78L444.357 738.581C456.639 737.353 468.575 735.653 480.153 733.463L472.717 694.16ZM440.377 698.78L436.296 658.989C426.613 659.982 417.48 660.46 408.877 660.46V700.46V740.46C420.434 740.46 432.3 739.818 444.458 738.571L440.377 698.78ZM409.297 647.12V687.12C415.549 687.12 421.523 686.964 427.186 686.631L424.837 646.7L422.488 606.769C418.631 606.996 414.244 607.12 409.297 607.12V647.12ZM424.837 646.7L429.511 686.426C434.716 685.814 439.54 685.141 443.752 684.375L436.597 645.02L429.441 605.665C427.494 606.019 424.478 606.466 420.163 606.974L424.837 646.7ZM436.597 645.02H476.597V531.2H436.597H396.597V645.02H436.597ZM436.597 531.2L458.227 497.553C449.59 492 440.083 488.525 431.154 486.195L421.057 524.9L410.96 563.605C412.808 564.087 414.029 564.515 414.744 564.805C415.471 565.099 415.46 565.165 414.967 564.847L436.597 531.2ZM421.057 524.9L431.582 486.309C421.962 483.686 412.121 482.38 402.157 482.38V522.38V562.38C405.073 562.38 407.832 562.754 410.532 563.491L421.057 524.9ZM402.157 522.38V482.38C390.213 482.38 377.811 484.369 366.002 489.683L382.417 526.16L398.831 562.637C398.222 562.911 398.981 562.38 402.157 562.38V522.38ZM382.417 526.16L365.293 490.01C353.847 495.433 344.414 503.388 336.983 512.942L368.557 537.5L400.131 562.058C400.382 561.735 400.45 561.713 400.291 561.843C400.217 561.904 400.11 561.984 399.972 562.072C399.833 562.16 399.687 562.24 399.54 562.31L382.417 526.16ZM368.557 537.5L336.13 514.08C328.939 524.037 324.337 535.174 321.437 546.362L360.157 556.4L398.877 566.438C399.896 562.506 400.895 561.043 400.984 560.92L368.557 537.5ZM360.157 556.4L321.109 547.723C318.64 558.836 317.637 570.684 317.637 582.86H357.637H397.637C397.637 574.876 398.314 569.084 399.204 565.077L360.157 556.4ZM357.637 582.86H317.637C317.637 599.74 320.202 616.295 326.378 631.736L363.517 616.88L400.656 602.024C398.992 597.865 397.637 591.74 397.637 582.86H357.637ZM363.517 616.88L326.53 632.11C333.007 647.841 343.24 661.665 357.717 671.852L380.737 639.14L403.757 606.428C403.114 605.975 401.867 604.959 400.504 601.65L363.517 616.88ZM380.737 639.14L358.277 672.239C373.878 682.826 391.578 687.12 409.297 687.12V647.12V607.12C404.616 607.12 403.276 606.094 403.197 606.041L380.737 639.14ZM524.173 695H484.173V735H524.173V695ZM524.173 474.08V434.08H484.173V474.08H524.173ZM586.753 474.08H626.753V434.08H586.753V474.08ZM586.753 695V735H626.753V695H586.753ZM529.213 429.14L502.082 458.532L502.668 459.073L503.275 459.59L529.213 429.14ZM529.213 374.96L555.716 404.92L555.752 404.888L555.788 404.856L529.213 374.96ZM581.713 374.96L554.582 404.352L555.168 404.893L555.775 405.41L581.713 374.96ZM581.713 429.14L608.216 459.1L608.252 459.068L608.288 459.036L581.713 429.14ZM524.173 695H564.173V474.08H524.173H484.173V695H524.173ZM524.173 474.08V514.08H586.753V474.08V434.08H524.173V474.08ZM586.753 474.08H546.753V695H586.753H626.753V474.08H586.753ZM586.753 695V655H524.173V695V735H586.753V695ZM555.673 438.8V398.8C555.29 398.8 555.1 398.77 555.068 398.764C555.04 398.76 555.102 398.769 555.216 398.811C555.331 398.853 555.412 398.896 555.439 398.912C555.462 398.925 555.365 398.872 555.152 398.69L529.213 429.14L503.275 459.59C518.19 472.295 536.243 478.8 555.673 478.8V438.8ZM529.213 429.14L556.345 399.748C556.627 400.009 556.992 400.405 557.355 400.931C557.719 401.458 557.986 401.978 558.162 402.419C558.527 403.33 558.293 403.349 558.293 401.84H518.293H478.293C478.293 422.542 485.273 443.016 502.082 458.532L529.213 429.14ZM518.293 401.84H558.293C558.293 400.314 558.532 400.458 558.082 401.565C557.861 402.11 557.527 402.749 557.065 403.4C556.604 404.05 556.125 404.558 555.716 404.92L529.213 374.96L502.71 345C485.278 360.421 478.293 381.179 478.293 401.84H518.293ZM529.213 374.96L555.788 404.856C555.908 404.75 555.992 404.684 556.039 404.649C556.086 404.614 556.101 404.606 556.084 404.616C556.066 404.627 556.025 404.651 555.961 404.683C555.897 404.714 555.822 404.748 555.738 404.78C555.654 404.811 555.574 404.837 555.502 404.857C555.43 404.877 555.378 404.888 555.351 404.892C555.324 404.897 555.332 404.894 555.381 404.89C555.429 404.886 555.525 404.88 555.673 404.88V364.88V324.88C535.759 324.88 517.493 331.86 502.639 345.064L529.213 374.96ZM555.673 364.88V404.88C555.964 404.88 556.031 404.904 555.919 404.883C555.801 404.862 555.581 404.81 555.304 404.703C555.026 404.595 554.794 404.472 554.631 404.37C554.473 404.27 554.459 404.239 554.582 404.352L581.713 374.96L608.845 345.568C594.034 331.897 575.615 324.88 555.673 324.88V364.88ZM581.713 374.96L555.775 405.41C555.413 405.101 554.941 404.627 554.465 403.98C553.987 403.331 553.62 402.665 553.364 402.058C552.838 400.813 553.053 400.492 553.053 401.84H593.053H633.053C633.053 380.673 625.573 359.776 607.652 344.51L581.713 374.96ZM593.053 401.84H553.053C553.053 403.172 552.843 402.978 553.279 401.931C553.487 401.428 553.785 400.879 554.164 400.35C554.541 399.824 554.899 399.457 555.139 399.244L581.713 429.14L608.288 459.036C625.588 443.658 633.053 423.034 633.053 401.84H593.053ZM581.713 429.14L555.211 399.18C555.114 399.266 555.135 399.233 555.279 399.146C555.426 399.057 555.618 398.961 555.831 398.882C556.042 398.804 556.181 398.777 556.204 398.773C556.222 398.77 556.058 398.8 555.673 398.8V438.8V478.8C575.12 478.8 593.332 472.267 608.216 459.1L581.713 429.14ZM625.84 695.84L615.743 734.545L615.844 734.571L615.944 734.597L625.84 695.84ZM598.96 687.44L559.787 679.346L553.267 710.905L582.714 723.992L598.96 687.44ZM609.46 636.62L624.146 599.414L579.91 581.952L570.287 628.526L609.46 636.62ZM642.22 646.7L633.439 685.724L633.906 685.829L634.375 685.923L642.22 646.7ZM699.76 646.7L716.792 682.893V682.893L699.76 646.7ZM702.7 624.86L674.415 653.144L675.159 653.888L675.941 654.592L702.7 624.86ZM690.1 616.46L671.47 651.857L671.839 652.051L672.211 652.237L690.1 616.46ZM669.52 607.64L654.944 644.89L655.345 645.047L655.75 645.195L669.52 607.64ZM635.5 591.68L615.654 626.41V626.41L635.5 591.68ZM612.82 570.26L578.426 590.682L578.569 590.923L578.716 591.162L612.82 570.26ZM615.34 499.7L647.889 522.95L648.043 522.734L648.195 522.516L615.34 499.7ZM645.16 476.6L660.43 513.57L660.771 513.43L661.109 513.283L645.16 476.6ZM730 471.98L721.984 511.169L722.413 511.256L722.844 511.335L730 471.98ZM759.4 479.54L798.431 488.288L805.982 454.6L773.759 442.206L759.4 479.54ZM748.48 528.26L735.395 566.059L777.716 580.709L787.511 537.008L748.48 528.26ZM724.54 521.54L715.451 560.494L715.59 560.526L715.729 560.558L724.54 521.54ZM673.72 522.8L692.435 558.151L692.792 557.962L693.145 557.766L673.72 522.8ZM669.1 543.8L634.8 564.38L635.29 565.196L635.818 565.988L669.1 543.8ZM678.76 551.36L697.475 516.008V516.008L678.76 551.36ZM742.18 580.34L719.559 613.329L719.774 613.477L719.992 613.622L742.18 580.34ZM763.18 603.44L726.725 619.903L726.827 620.13L726.932 620.355L763.18 603.44ZM758.14 671.06L726.03 647.207V647.207L758.14 671.06ZM726.22 693.32L712.671 655.685H712.671L726.22 693.32ZM674.98 700.88V660.88C657.382 660.88 644.583 659.342 635.735 657.083L625.84 695.84L615.944 734.597C633.417 739.058 653.378 740.88 674.98 740.88V700.88ZM625.84 695.84L635.937 657.135C623.048 653.773 616.946 651.661 615.205 650.888L598.96 687.44L582.714 723.992C591.053 727.699 602.871 731.187 615.743 734.545L625.84 695.84ZM598.96 687.44L638.132 695.534L648.632 644.714L609.46 636.62L570.287 628.526L559.787 679.346L598.96 687.44ZM609.46 636.62L594.773 673.826C607.339 678.786 620.234 682.753 633.439 685.724L642.22 646.7L651 607.676C641.806 605.607 632.861 602.854 624.146 599.414L609.46 636.62ZM642.22 646.7L634.375 685.923C648.04 688.656 661.728 690.06 675.4 690.06V650.06V610.06C667.232 610.06 658.8 609.224 650.064 607.477L642.22 646.7ZM675.4 650.06V690.06C687.407 690.06 703.37 689.209 716.792 682.893L699.76 646.7L682.728 610.507C684.262 609.785 685.283 609.512 685.463 609.465C685.678 609.409 685.445 609.483 684.634 609.595C682.941 609.829 679.975 610.06 675.4 610.06V650.06ZM699.76 646.7L716.792 682.893C726.317 678.41 734.666 671.067 740.187 660.998C745.439 651.422 746.9 641.658 746.9 633.68H706.9H666.9C666.9 632.142 667.171 627.768 670.042 622.532C673.184 616.803 677.963 612.75 682.728 610.507L699.76 646.7ZM706.9 633.68H746.9C746.9 617.538 739.552 604.213 729.458 595.128L702.7 624.86L675.941 654.592C674.035 652.876 671.625 650.121 669.735 646.152C667.795 642.077 666.9 637.755 666.9 633.68H706.9ZM702.7 624.86L730.984 596.576C723.906 589.498 715.471 584.424 707.988 580.683L690.1 616.46L672.211 652.237C673.864 653.064 674.823 653.649 675.262 653.942C675.467 654.079 675.482 654.101 675.349 653.995C675.219 653.891 674.884 653.613 674.415 653.144L702.7 624.86ZM690.1 616.46L708.73 581.063C701.282 577.143 692.636 573.512 683.29 570.085L669.52 607.64L655.75 645.195C663.204 647.928 668.278 650.177 671.47 651.857L690.1 616.46ZM669.52 607.64L684.096 570.39C672.643 565.909 663.126 561.396 655.345 556.95L635.5 591.68L615.654 626.41C627.474 633.164 640.636 639.291 654.944 644.89L669.52 607.64ZM635.5 591.68L655.345 556.95C650.737 554.317 648.359 551.699 646.924 549.358L612.82 570.26L578.716 591.162C587.921 606.181 600.662 617.843 615.654 626.41L635.5 591.68ZM612.82 570.26L647.214 549.838C646.679 548.937 644.84 545.048 644.84 535.4H604.84H564.84C564.84 554.312 568.321 573.663 578.426 590.682L612.82 570.26ZM604.84 535.4H644.84C644.84 528.338 646.489 524.91 647.889 522.95L615.34 499.7L582.79 476.45C570.19 494.09 564.84 514.462 564.84 535.4H604.84ZM615.34 499.7L648.195 522.516C650.241 519.57 653.66 516.367 660.43 513.57L645.16 476.6L629.889 439.63C610.9 447.473 594.439 459.67 582.485 476.884L615.34 499.7ZM645.16 476.6L661.109 513.283C667.773 510.385 677.471 508.2 691.36 508.2V468.2V428.2C669.409 428.2 648.306 431.615 629.211 439.917L645.16 476.6ZM691.36 468.2V508.2C702.291 508.2 712.476 509.224 721.984 511.169L730 471.98L738.016 432.791C722.884 429.696 707.309 428.2 691.36 428.2V468.2ZM730 471.98L722.844 511.335C733.989 513.361 741.058 515.342 745.041 516.874L759.4 479.54L773.759 442.206C763.182 438.138 750.651 435.079 737.155 432.625L730 471.98ZM759.4 479.54L720.368 470.792L709.448 519.512L748.48 528.26L787.511 537.008L798.431 488.288L759.4 479.54ZM748.48 528.26L761.564 490.461C752.688 487.388 743.26 484.76 733.35 482.522L724.54 521.54L715.729 560.558C723.179 562.24 729.711 564.092 735.395 566.059L748.48 528.26ZM724.54 521.54L733.629 482.586C721.653 479.792 709 478.6 695.98 478.6V518.6V558.6C704.24 558.6 710.627 559.368 715.451 560.494L724.54 521.54ZM695.98 518.6V478.6C683.552 478.6 668.086 480.172 654.294 487.834L673.72 522.8L693.145 557.766C692.012 558.396 691.153 558.722 690.723 558.867C690.293 559.012 690.182 559.013 690.481 558.956C691.149 558.83 692.877 558.6 695.98 558.6V518.6ZM673.72 522.8L655.004 487.448C647.027 491.672 639.323 498.182 633.857 507.506C628.441 516.745 626.58 526.426 626.58 534.98H666.58H706.58C706.58 537.934 705.908 542.785 702.873 547.964C699.787 553.228 695.653 556.448 692.435 558.151L673.72 522.8ZM666.58 534.98H626.58C626.58 545.751 629.624 555.753 634.8 564.38L669.1 543.8L703.399 523.22C705.216 526.247 706.58 530.369 706.58 534.98H666.58ZM669.1 543.8L635.818 565.988C643.041 576.823 653.331 583.158 660.044 586.712L678.76 551.36L697.475 516.008C696.569 515.529 696.698 515.509 697.427 516.08C698.077 516.588 700.195 518.333 702.382 521.612L669.1 543.8ZM678.76 551.36L660.044 586.712C667.248 590.525 676.282 594.205 686.09 597.772L699.76 560.18L713.429 522.588C704.758 519.435 699.792 517.235 697.475 516.008L678.76 551.36ZM699.76 560.18L686.09 597.772C703.179 603.986 713.752 609.348 719.559 613.329L742.18 580.34L764.801 547.351C751.007 537.892 733.301 529.814 713.429 522.588L699.76 560.18ZM742.18 580.34L719.992 613.622C725.513 617.303 726.627 619.687 726.725 619.903L763.18 603.44L799.635 586.977C791.892 569.833 779.007 556.817 764.368 547.058L742.18 580.34ZM763.18 603.44L726.932 620.355C727.708 622.017 729.06 626.213 729.06 634.52H769.06H809.06C809.06 618.187 806.491 601.663 799.427 586.525L763.18 603.44ZM769.06 634.52H729.06C729.06 642.192 727.256 645.557 726.03 647.207L758.14 671.06L790.249 694.913C803.584 676.963 809.06 655.968 809.06 634.52H769.06ZM758.14 671.06L726.03 647.207C724.385 649.421 720.899 652.722 712.671 655.685L726.22 693.32L739.768 730.956C759.541 723.838 777.334 712.299 790.25 694.913L758.14 671.06ZM726.22 693.32L712.671 655.685C704.255 658.714 692.051 660.88 674.98 660.88V700.88V740.88C698.228 740.88 720.184 738.006 739.768 730.956L726.22 693.32ZM820.867 685.34L799.872 719.387L799.997 719.464L800.123 719.54L820.867 685.34ZM783.487 643.76L746.935 660.006L747.092 660.358L747.255 660.707L783.487 643.76ZM785.167 526.16L749.734 507.6L749.618 507.822L749.504 508.045L785.167 526.16ZM824.227 484.16L845.223 518.207L845.3 518.159L845.377 518.111L824.227 484.16ZM917.887 471.56L908.974 510.554L909.507 510.676L910.043 510.783L917.887 471.56ZM946.447 480.38L985.156 490.464L993.861 457.044L962.069 443.557L946.447 480.38ZM933.427 530.36L919.188 567.74L960.887 583.625L972.135 540.444L933.427 530.36ZM914.107 524.48L904.772 563.375V563.375L914.107 524.48ZM849.007 539.18L817.847 514.1L817.659 514.333L817.475 514.569L849.007 539.18ZM841.027 618.56L803.665 632.845L803.737 633.034L803.811 633.221L841.027 618.56ZM859.087 639.98L838.508 674.28L839.173 674.679L839.854 675.052L859.087 639.98ZM917.467 645.02L923.837 684.51V684.51L917.467 645.02ZM941.407 638.3L980.828 631.515L972.272 581.809L925.822 601.461L941.407 638.3ZM950.227 689.54L965.813 726.379L995.029 714.018L989.648 682.755L950.227 689.54ZM922.927 697.52L914.89 658.336L922.927 697.52ZM886.807 700.88V660.88C864.795 660.88 850.632 656.611 841.612 651.14L820.867 685.34L800.123 719.54C825.263 734.789 855.059 740.88 886.807 740.88V700.88ZM820.867 685.34L841.863 651.293C831.49 644.897 824.433 636.889 819.72 626.813L783.487 643.76L747.255 660.707C758.782 685.35 776.645 705.063 799.872 719.387L820.867 685.34ZM783.487 643.76L820.04 627.514C814.754 615.62 811.727 601.518 811.727 584.54H771.727H731.727C731.727 611.242 736.541 636.62 746.935 660.006L783.487 643.76ZM771.727 584.54H811.727C811.727 569.069 814.934 555.883 820.831 544.275L785.167 526.16L749.504 508.045C737.481 531.717 731.727 557.451 731.727 584.54H771.727ZM785.167 526.16L820.601 544.72C826.538 533.386 834.596 524.76 845.223 518.207L824.227 484.16L803.232 450.113C780.258 464.28 762.277 483.654 749.734 507.6L785.167 526.16ZM824.227 484.16L845.377 518.111C855.031 512.097 867.841 508.2 885.547 508.2V468.2V428.2C855.654 428.2 827.583 434.943 803.077 450.209L824.227 484.16ZM885.547 468.2V508.2C894.801 508.2 902.542 509.084 908.974 510.554L917.887 471.56L926.8 432.566C913.632 429.556 899.814 428.2 885.547 428.2V468.2ZM917.887 471.56L910.043 510.783C917.164 512.207 924.079 514.341 930.825 517.203L946.447 480.38L962.069 443.557C950.336 438.579 938.211 434.833 925.732 432.337L917.887 471.56ZM946.447 480.38L907.739 470.296L894.719 520.276L933.427 530.36L972.135 540.444L985.156 490.464L946.447 480.38ZM933.427 530.36L947.667 492.98C939.978 490.051 931.876 487.609 923.442 485.585L914.107 524.48L904.772 563.375C910.339 564.711 915.117 566.189 919.188 567.74L933.427 530.36ZM914.107 524.48L923.442 485.585C912.835 483.039 901.791 481.96 890.587 481.96V521.96V561.96C896.743 561.96 901.379 562.561 904.772 563.375L914.107 524.48ZM890.587 521.96V481.96C863.363 481.96 836.565 490.844 817.847 514.1L849.007 539.18L880.168 564.26C880.504 563.843 880.788 563.573 881.637 563.221C882.731 562.768 885.418 561.96 890.587 561.96V521.96ZM849.007 539.18L817.475 514.569C801.62 534.883 795.567 559.458 795.567 584.54H835.567H875.567C875.567 572.102 878.475 566.437 880.54 563.791L849.007 539.18ZM835.567 584.54H795.567C795.567 601.23 797.856 617.652 803.665 632.845L841.027 618.56L878.389 604.275C876.919 600.428 875.567 594.17 875.567 584.54H835.567ZM841.027 618.56L803.811 633.221C810.633 650.539 822.438 664.638 838.508 674.28L859.087 639.98L879.667 605.68C879.061 605.317 878.885 605.098 878.853 605.061C878.818 605.019 878.572 604.733 878.244 603.899L841.027 618.56ZM859.087 639.98L839.854 675.052C856.367 684.108 875.009 687.12 893.107 687.12V647.12V607.12C883.206 607.12 879.167 605.372 878.321 604.908L859.087 639.98ZM893.107 647.12V687.12C903.112 687.12 913.381 686.196 923.837 684.51L917.467 645.02L911.098 605.53C904.193 606.644 898.223 607.12 893.107 607.12V647.12ZM917.467 645.02L923.837 684.51C935.335 682.655 946.449 679.599 956.993 675.139L941.407 638.3L925.822 601.461C921.805 603.16 916.96 604.585 911.098 605.53L917.467 645.02ZM941.407 638.3L901.987 645.085L910.807 696.325L950.227 689.54L989.648 682.755L980.828 631.515L941.407 638.3ZM950.227 689.54L934.642 652.701C930.557 654.429 924.185 656.429 914.89 658.336L922.927 697.52L930.965 736.704C943.51 734.131 955.338 730.811 965.813 726.379L950.227 689.54ZM922.927 697.52L914.89 658.336C907.037 659.947 897.737 660.88 886.807 660.88V700.88V740.88C902.198 740.88 916.977 739.573 930.965 736.704L922.927 697.52Z" fill="#17002A" mask="url(#path-13-outside-1_3327_96)"/>
<path d="M512 562C498.517 562 486.719 557.644 476.607 548.932C466.869 539.841 462 527.53 462 512C462 496.47 466.869 484.348 476.607 475.636C486.719 466.545 498.517 462 512 462C525.483 462 537.094 466.545 546.831 475.636C556.944 484.348 562 496.47 562 512C562 527.53 556.944 539.841 546.831 548.932C537.094 557.644 525.483 562 512 562Z" fill="#6F00CA"/>
</g>
<defs>
<linearGradient id="paint0_linear_3327_96" x1="512" y1="0" x2="512" y2="1024" gradientUnits="userSpaceOnUse">
<stop offset="0.177885" stop-color="#1E1E2E"/>
<stop offset="1" stop-color="#0B0B10"/>
</linearGradient>
<linearGradient id="paint1_linear_3327_96" x1="512" y1="0" x2="512" y2="1024" gradientUnits="userSpaceOnUse">
<stop stop-color="#300057"/>
<stop offset="0.990385"/>
</linearGradient>
<radialGradient id="paint2_radial_3327_96" cx="0" cy="0" r="1" gradientUnits="userSpaceOnUse" gradientTransform="translate(512 512) scale(438.857)">
<stop stop-color="#130023"/>
<stop offset="1" stop-color="#AA43FF"/>
</radialGradient>
<radialGradient id="paint3_radial_3327_96" cx="0" cy="0" r="1" gradientUnits="userSpaceOnUse" gradientTransform="translate(512 512) scale(365.714)">
<stop stop-color="#130023"/>
<stop offset="1" stop-color="#AA43FF"/>
</radialGradient>
<radialGradient id="paint4_radial_3327_96" cx="0" cy="0" r="1" gradientUnits="userSpaceOnUse" gradientTransform="translate(512 512) scale(292.571)">
<stop stop-color="#130023"/>
<stop offset="1" stop-color="#AA43FF"/>
</radialGradient>
<radialGradient id="paint5_radial_3327_96" cx="0" cy="0" r="1" gradientUnits="userSpaceOnUse" gradientTransform="translate(512 512) scale(312.076)">
<stop stop-color="#130023"/>
<stop offset="1" stop-color="#AA43FF"/>
</radialGradient>
<radialGradient id="paint6_radial_3327_96" cx="0" cy="0" r="1" gradientUnits="userSpaceOnUse" gradientTransform="translate(512 512) scale(273.067)">
<stop stop-color="#130023"/>
<stop offset="1" stop-color="#AA43FF"/>
</radialGradient>
<radialGradient id="paint7_radial_3327_96" cx="0" cy="0" r="1" gradientUnits="userSpaceOnUse" gradientTransform="translate(512 512) scale(234.057)">
<stop stop-color="#130023"/>
<stop offset="1" stop-color="#AA43FF"/>
</radialGradient>
<radialGradient id="paint8_radial_3327_96" cx="0" cy="0" r="1" gradientUnits="userSpaceOnUse" gradientTransform="translate(512 512) scale(195.048)">
<stop stop-color="#130023"/>
<stop offset="1" stop-color="#AA43FF"/>
</radialGradient>
<radialGradient id="paint9_radial_3327_96" cx="0" cy="0" r="1" gradientUnits="userSpaceOnUse" gradientTransform="translate(512 512) scale(156.038)">
<stop stop-color="#130023"/>
<stop offset="1" stop-color="#AA43FF"/>
</radialGradient>
<radialGradient id="paint10_radial_3327_96" cx="0" cy="0" r="1" gradientUnits="userSpaceOnUse" gradientTransform="translate(512 512) scale(117.029)">
<stop stop-color="#130023"/>
<stop offset="1" stop-color="#AA43FF"/>
</radialGradient>
</defs>
</svg>
