<svg width="1024" height="1024" viewBox="0 0 1024 1024" fill="none" xmlns="http://www.w3.org/2000/svg">
<mask id="mask0_3373_59" style="mask-type:alpha" maskUnits="userSpaceOnUse" x="0" y="0" width="1024" height="1024">
<rect width="1024" height="1024" fill="#33005D"/>
</mask>
<g mask="url(#mask0_3373_59)">
<rect width="1024" height="1024" fill="#2F0056"/>
<circle cx="512" cy="512" r="512" fill="#3C006E"/>
<circle cx="512" cy="512" r="256" fill="#AA43FF"/>
<path d="M512 950.857C754.374 950.857 950.857 754.374 950.857 512C950.857 269.626 754.374 73.1428 512 73.1428C269.626 73.1428 73.1429 269.626 73.1429 512C73.1429 754.374 269.626 950.857 512 950.857Z" stroke="#E0BBFF" stroke-width="20"/>
<path d="M512 877.714C713.978 877.714 877.714 713.978 877.714 512C877.714 310.022 713.978 146.286 512 146.286C310.022 146.286 146.286 310.022 146.286 512C146.286 713.978 310.022 877.714 512 877.714Z" stroke="#E0BBFF" stroke-width="20"/>
<path opacity="0.9" d="M511.514 826.029C685.216 826.029 826.029 685.216 826.029 511.514C826.029 337.813 685.216 197 511.514 197C337.813 197 197 337.813 197 511.514C197 685.216 337.813 826.029 511.514 826.029Z" fill="#AA43FF" stroke="#2F0056" stroke-width="20"/>
<path d="M513.586 254.787C656.518 254.787 772.386 370.655 772.386 513.586C772.386 656.518 656.518 772.386 513.586 772.386C370.655 772.386 254.787 656.518 254.787 513.586C254.787 370.655 370.655 254.787 513.586 254.787Z" fill="#2F0056" fill-opacity="0.5" stroke="#2F0056" stroke-width="20"/>
<mask id="path-9-outside-1_3373_59" maskUnits="userSpaceOnUse" x="50" y="282" width="946" height="419" fill="black">
<rect fill="white" x="50" y="282" width="946" height="419"/>
<path d="M90.5727 655V441.64C101.213 438.56 114.933 435.76 131.733 433.24C148.533 430.44 166.173 429.04 184.653 429.04C209.853 429.04 229.453 433.38 243.453 442.06C257.453 450.46 267.253 462.22 272.853 477.34C278.453 492.46 281.253 510.1 281.253 530.26V655H218.673V537.82C218.673 524.38 217.553 513.6 215.313 505.48C213.073 497.36 209.153 491.48 203.553 487.84C198.233 484.2 190.673 482.38 180.873 482.38C176.393 482.38 171.633 482.66 166.593 483.22C161.553 483.5 157.073 483.92 153.153 484.48V655H90.5727Z"/>
<path d="M408.877 660.46C384.517 660.46 363.797 655.84 346.717 646.6C329.637 637.36 316.477 624.2 307.237 607.12C298.277 589.76 293.797 569.32 293.797 545.8C293.797 521.72 297.717 501 305.557 483.64C313.397 466.28 324.597 452.98 339.157 443.74C353.997 434.22 371.777 429.46 392.497 429.46C401.177 429.46 408.877 430.3 415.597 431.98C422.597 433.66 429.597 436.04 436.597 439.12V339.16L499.177 329.08V647.86C491.897 650.1 483.077 652.2 472.717 654.16C462.357 656.12 451.577 657.66 440.377 658.78C429.457 659.9 418.957 660.46 408.877 660.46ZM409.297 607.12C414.897 607.12 420.077 606.98 424.837 606.7C429.597 606.14 433.517 605.58 436.597 605.02V491.2C432.677 488.68 427.497 486.58 421.057 484.9C414.897 483.22 408.597 482.38 402.157 482.38C394.597 482.38 388.017 483.64 382.417 486.16C377.097 488.68 372.477 492.46 368.557 497.5C364.917 502.54 362.117 508.84 360.157 516.4C358.477 523.96 357.637 532.78 357.637 542.86C357.637 555.74 359.597 567.08 363.517 576.88C367.437 586.4 373.177 593.82 380.737 599.14C388.577 604.46 398.097 607.12 409.297 607.12ZM524.173 655V434.08H586.753V655H524.173ZM555.673 398.8C545.593 398.8 536.773 395.58 529.213 389.14C521.933 382.42 518.293 373.32 518.293 361.84C518.293 350.36 521.933 341.4 529.213 334.96C536.773 328.24 545.593 324.88 555.673 324.88C565.753 324.88 574.433 328.24 581.713 334.96C589.273 341.4 593.053 350.36 593.053 361.84C593.053 373.32 589.273 382.42 581.713 389.14C574.433 395.58 565.753 398.8 555.673 398.8ZM674.98 660.88C655.38 660.88 639 659.2 625.84 655.84C612.96 652.48 604 649.68 598.96 647.44L609.46 596.62C620.1 600.82 631.02 604.18 642.22 606.7C653.42 608.94 664.48 610.06 675.4 610.06C686.88 610.06 695 608.94 699.76 606.7C704.52 604.46 706.9 600.12 706.9 593.68C706.9 590.32 705.5 587.38 702.7 584.86C699.9 582.06 695.7 579.26 690.1 576.46C684.78 573.66 677.92 570.72 669.52 567.64C656.64 562.6 645.3 557.28 635.5 551.68C625.7 546.08 618.14 538.94 612.82 530.26C607.5 521.3 604.84 509.68 604.84 495.4C604.84 481.4 608.34 469.5 615.34 459.7C622.34 449.62 632.28 441.92 645.16 436.6C658.04 431 673.44 428.2 691.36 428.2C704.8 428.2 717.68 429.46 730 431.98C742.32 434.22 752.12 436.74 759.4 439.54L748.48 488.26C741.2 485.74 733.22 483.5 724.54 481.54C716.14 479.58 706.62 478.6 695.98 478.6C686.18 478.6 678.76 480 673.72 482.8C668.96 485.32 666.58 489.38 666.58 494.98C666.58 498.06 667.42 501 669.1 503.8C670.78 506.32 674 508.84 678.76 511.36C683.52 513.88 690.52 516.82 699.76 520.18C718.24 526.9 732.38 533.62 742.18 540.34C752.26 547.06 759.26 554.76 763.18 563.44C767.1 571.84 769.06 582.2 769.06 594.52C769.06 609.08 765.42 621.26 758.14 631.06C750.86 640.86 740.22 648.28 726.22 653.32C712.22 658.36 695.14 660.88 674.98 660.88ZM886.807 660.88C859.927 660.88 837.947 655.7 820.867 645.34C804.067 634.98 791.607 621.12 783.487 603.76C775.647 586.12 771.727 566.38 771.727 544.54C771.727 523.26 776.207 503.8 785.167 486.16C794.407 468.52 807.427 454.52 824.227 444.16C841.307 433.52 861.747 428.2 885.547 428.2C897.307 428.2 908.087 429.32 917.887 431.56C927.687 433.52 937.207 436.46 946.447 440.38L933.427 490.36C927.547 488.12 921.107 486.16 914.107 484.48C907.107 482.8 899.267 481.96 890.587 481.96C872.107 481.96 858.247 487.7 849.007 499.18C840.047 510.66 835.567 525.78 835.567 544.54C835.567 557.7 837.387 569.04 841.027 578.56C844.667 587.8 850.687 594.94 859.087 599.98C867.767 604.74 879.107 607.12 893.107 607.12C900.667 607.12 908.787 606.42 917.467 605.02C926.147 603.62 934.127 601.38 941.407 598.3L950.227 649.54C942.947 652.62 933.847 655.28 922.927 657.52C912.007 659.76 899.967 660.88 886.807 660.88Z"/>
</mask>
<path d="M90.5727 655V441.64C101.213 438.56 114.933 435.76 131.733 433.24C148.533 430.44 166.173 429.04 184.653 429.04C209.853 429.04 229.453 433.38 243.453 442.06C257.453 450.46 267.253 462.22 272.853 477.34C278.453 492.46 281.253 510.1 281.253 530.26V655H218.673V537.82C218.673 524.38 217.553 513.6 215.313 505.48C213.073 497.36 209.153 491.48 203.553 487.84C198.233 484.2 190.673 482.38 180.873 482.38C176.393 482.38 171.633 482.66 166.593 483.22C161.553 483.5 157.073 483.92 153.153 484.48V655H90.5727Z" fill="#F4E7FF"/>
<path d="M408.877 660.46C384.517 660.46 363.797 655.84 346.717 646.6C329.637 637.36 316.477 624.2 307.237 607.12C298.277 589.76 293.797 569.32 293.797 545.8C293.797 521.72 297.717 501 305.557 483.64C313.397 466.28 324.597 452.98 339.157 443.74C353.997 434.22 371.777 429.46 392.497 429.46C401.177 429.46 408.877 430.3 415.597 431.98C422.597 433.66 429.597 436.04 436.597 439.12V339.16L499.177 329.08V647.86C491.897 650.1 483.077 652.2 472.717 654.16C462.357 656.12 451.577 657.66 440.377 658.78C429.457 659.9 418.957 660.46 408.877 660.46ZM409.297 607.12C414.897 607.12 420.077 606.98 424.837 606.7C429.597 606.14 433.517 605.58 436.597 605.02V491.2C432.677 488.68 427.497 486.58 421.057 484.9C414.897 483.22 408.597 482.38 402.157 482.38C394.597 482.38 388.017 483.64 382.417 486.16C377.097 488.68 372.477 492.46 368.557 497.5C364.917 502.54 362.117 508.84 360.157 516.4C358.477 523.96 357.637 532.78 357.637 542.86C357.637 555.74 359.597 567.08 363.517 576.88C367.437 586.4 373.177 593.82 380.737 599.14C388.577 604.46 398.097 607.12 409.297 607.12ZM524.173 655V434.08H586.753V655H524.173ZM555.673 398.8C545.593 398.8 536.773 395.58 529.213 389.14C521.933 382.42 518.293 373.32 518.293 361.84C518.293 350.36 521.933 341.4 529.213 334.96C536.773 328.24 545.593 324.88 555.673 324.88C565.753 324.88 574.433 328.24 581.713 334.96C589.273 341.4 593.053 350.36 593.053 361.84C593.053 373.32 589.273 382.42 581.713 389.14C574.433 395.58 565.753 398.8 555.673 398.8ZM674.98 660.88C655.38 660.88 639 659.2 625.84 655.84C612.96 652.48 604 649.68 598.96 647.44L609.46 596.62C620.1 600.82 631.02 604.18 642.22 606.7C653.42 608.94 664.48 610.06 675.4 610.06C686.88 610.06 695 608.94 699.76 606.7C704.52 604.46 706.9 600.12 706.9 593.68C706.9 590.32 705.5 587.38 702.7 584.86C699.9 582.06 695.7 579.26 690.1 576.46C684.78 573.66 677.92 570.72 669.52 567.64C656.64 562.6 645.3 557.28 635.5 551.68C625.7 546.08 618.14 538.94 612.82 530.26C607.5 521.3 604.84 509.68 604.84 495.4C604.84 481.4 608.34 469.5 615.34 459.7C622.34 449.62 632.28 441.92 645.16 436.6C658.04 431 673.44 428.2 691.36 428.2C704.8 428.2 717.68 429.46 730 431.98C742.32 434.22 752.12 436.74 759.4 439.54L748.48 488.26C741.2 485.74 733.22 483.5 724.54 481.54C716.14 479.58 706.62 478.6 695.98 478.6C686.18 478.6 678.76 480 673.72 482.8C668.96 485.32 666.58 489.38 666.58 494.98C666.58 498.06 667.42 501 669.1 503.8C670.78 506.32 674 508.84 678.76 511.36C683.52 513.88 690.52 516.82 699.76 520.18C718.24 526.9 732.38 533.62 742.18 540.34C752.26 547.06 759.26 554.76 763.18 563.44C767.1 571.84 769.06 582.2 769.06 594.52C769.06 609.08 765.42 621.26 758.14 631.06C750.86 640.86 740.22 648.28 726.22 653.32C712.22 658.36 695.14 660.88 674.98 660.88ZM886.807 660.88C859.927 660.88 837.947 655.7 820.867 645.34C804.067 634.98 791.607 621.12 783.487 603.76C775.647 586.12 771.727 566.38 771.727 544.54C771.727 523.26 776.207 503.8 785.167 486.16C794.407 468.52 807.427 454.52 824.227 444.16C841.307 433.52 861.747 428.2 885.547 428.2C897.307 428.2 908.087 429.32 917.887 431.56C927.687 433.52 937.207 436.46 946.447 440.38L933.427 490.36C927.547 488.12 921.107 486.16 914.107 484.48C907.107 482.8 899.267 481.96 890.587 481.96C872.107 481.96 858.247 487.7 849.007 499.18C840.047 510.66 835.567 525.78 835.567 544.54C835.567 557.7 837.387 569.04 841.027 578.56C844.667 587.8 850.687 594.94 859.087 599.98C867.767 604.74 879.107 607.12 893.107 607.12C900.667 607.12 908.787 606.42 917.467 605.02C926.147 603.62 934.127 601.38 941.407 598.3L950.227 649.54C942.947 652.62 933.847 655.28 922.927 657.52C912.007 659.76 899.967 660.88 886.807 660.88Z" fill="#E7CAFF"/>
<path d="M90.5727 655H50.5727V695H90.5727V655ZM90.5727 441.64L79.4503 403.217L50.5727 411.577V441.64H90.5727ZM131.733 433.24L137.666 472.797L137.988 472.749L138.309 472.696L131.733 433.24ZM243.453 442.06L222.375 476.056L222.623 476.21L222.873 476.36L243.453 442.06ZM272.853 477.34L235.343 491.233L235.343 491.233L272.853 477.34ZM281.253 655V695H321.253V655H281.253ZM218.673 655H178.673V695H218.673V655ZM215.313 505.48L176.753 516.117L176.753 516.117L215.313 505.48ZM203.553 487.84L180.965 520.852L181.356 521.12L181.753 521.378L203.553 487.84ZM166.593 483.22L168.811 523.158L169.913 523.097L171.01 522.975L166.593 483.22ZM153.153 484.48L147.496 444.882L113.153 449.788V484.48H153.153ZM153.153 655V695H193.153V655H153.153ZM90.5727 655H130.573V441.64H90.5727H50.5727V655H90.5727ZM90.5727 441.64L101.695 480.063C109.989 477.662 121.8 475.177 137.666 472.797L131.733 433.24L125.799 393.683C108.065 396.343 92.4366 399.458 79.4503 403.217L90.5727 441.64ZM131.733 433.24L138.309 472.696C152.761 470.287 168.192 469.04 184.653 469.04V429.04V389.04C164.154 389.04 144.304 390.593 125.157 393.784L131.733 433.24ZM184.653 429.04V469.04C206.053 469.04 217.218 472.859 222.375 476.056L243.453 442.06L264.53 408.064C241.687 393.901 213.653 389.04 184.653 389.04V429.04ZM243.453 442.06L222.873 476.36C229.18 480.144 232.945 484.758 235.343 491.233L272.853 477.34L310.363 463.447C301.561 439.682 285.725 420.776 264.033 407.76L243.453 442.06ZM272.853 477.34L235.343 491.233C238.942 500.949 241.253 513.702 241.253 530.26H281.253H321.253C321.253 506.498 317.964 483.971 310.363 463.447L272.853 477.34ZM281.253 530.26H241.253V655H281.253H321.253V530.26H281.253ZM281.253 655V615H218.673V655V695H281.253V655ZM218.673 655H258.673V537.82H218.673H178.673V655H218.673ZM218.673 537.82H258.673C258.673 522.649 257.462 507.854 253.872 494.843L215.313 505.48L176.753 516.117C177.644 519.346 178.673 526.111 178.673 537.82H218.673ZM215.313 505.48L253.872 494.843C249.735 479.844 241.123 464.553 225.352 454.302L203.553 487.84L181.753 521.378C179.732 520.064 178.289 518.485 177.411 517.168C176.604 515.958 176.555 515.399 176.753 516.117L215.313 505.48ZM203.553 487.84L226.14 454.828C211.533 444.834 194.809 442.38 180.873 442.38V482.38V522.38C182.096 522.38 183.004 522.437 183.632 522.503C184.262 522.569 184.542 522.637 184.531 522.634C184.517 522.631 184.153 522.543 183.531 522.279C182.9 522.011 182.005 521.563 180.965 520.852L203.553 487.84ZM180.873 482.38V442.38C174.739 442.38 168.495 442.763 162.175 443.465L166.593 483.22L171.01 522.975C174.771 522.557 178.046 522.38 180.873 522.38V482.38ZM166.593 483.22L164.374 443.282C158.479 443.609 152.816 444.122 147.496 444.882L153.153 484.48L158.81 524.078C161.33 523.718 164.627 523.391 168.811 523.158L166.593 483.22ZM153.153 484.48H113.153V655H153.153H193.153V484.48H153.153ZM153.153 655V615H90.5727V655V695H153.153V655ZM346.717 646.6L327.684 681.782V681.782L346.717 646.6ZM307.237 607.12L271.692 625.466L271.87 625.811L272.055 626.153L307.237 607.12ZM305.557 483.64L342.012 500.103V500.103L305.557 483.64ZM339.157 443.74L360.59 477.513L360.673 477.461L360.755 477.408L339.157 443.74ZM415.597 431.98L405.895 470.786L406.079 470.831L406.262 470.875L415.597 431.98ZM436.597 439.12L420.487 475.733L476.597 500.421V439.12H436.597ZM436.597 339.16L430.236 299.669L396.597 305.087V339.16H436.597ZM499.177 329.08H539.177V282.121L492.816 289.589L499.177 329.08ZM499.177 647.86L510.94 686.091L539.177 677.403V647.86H499.177ZM440.377 658.78L436.397 618.979L436.346 618.984L436.296 618.989L440.377 658.78ZM424.837 606.7L427.186 646.631L428.351 646.562L429.511 646.426L424.837 606.7ZM436.597 605.02L443.752 644.375L476.597 638.403V605.02H436.597ZM436.597 491.2H476.597V469.362L458.227 457.553L436.597 491.2ZM421.057 484.9L410.532 523.491L410.746 523.549L410.96 523.605L421.057 484.9ZM382.417 486.16L366.002 449.683L365.646 449.843L365.293 450.01L382.417 486.16ZM368.557 497.5L336.983 472.942L336.546 473.504L336.13 474.08L368.557 497.5ZM360.157 516.4L321.437 506.362L321.261 507.039L321.109 507.723L360.157 516.4ZM363.517 576.88L326.378 591.736L326.453 591.923L326.53 592.11L363.517 576.88ZM380.737 599.14L357.717 631.852L357.995 632.048L358.277 632.239L380.737 599.14ZM408.877 660.46V620.46C389.503 620.46 375.68 616.791 365.75 611.418L346.717 646.6L327.684 681.782C351.914 694.889 379.531 700.46 408.877 700.46V660.46ZM346.717 646.6L365.75 611.418C355.508 605.878 347.959 598.329 342.419 588.087L307.237 607.12L272.055 626.153C284.994 650.071 303.766 668.842 327.684 681.782L346.717 646.6ZM307.237 607.12L342.782 588.774C337.289 578.131 333.797 564.227 333.797 545.8H293.797H253.797C253.797 574.413 259.265 601.389 271.692 625.466L307.237 607.12ZM293.797 545.8H333.797C333.797 525.947 337.039 511.113 342.012 500.103L305.557 483.64L269.102 467.177C258.394 490.886 253.797 517.493 253.797 545.8H293.797ZM305.557 483.64L342.012 500.103C346.989 489.082 353.299 482.14 360.59 477.513L339.157 443.74L317.724 409.967C295.894 423.82 279.805 443.478 269.102 467.177L305.557 483.64ZM339.157 443.74L360.755 477.408C368.09 472.702 378.069 469.46 392.497 469.46V429.46V389.46C365.485 389.46 339.904 395.738 317.559 410.072L339.157 443.74ZM392.497 429.46V469.46C398.691 469.46 403.029 470.069 405.895 470.786L415.597 431.98L425.298 393.174C414.725 390.531 403.663 389.46 392.497 389.46V429.46ZM415.597 431.98L406.262 470.875C410.801 471.965 415.538 473.555 420.487 475.733L436.597 439.12L452.706 402.507C443.656 398.525 434.393 395.355 424.932 393.085L415.597 431.98ZM436.597 439.12H476.597V339.16H436.597H396.597V439.12H436.597ZM436.597 339.16L442.958 378.651L505.538 368.571L499.177 329.08L492.816 289.589L430.236 299.669L436.597 339.16ZM499.177 329.08H459.177V647.86H499.177H539.177V329.08H499.177ZM499.177 647.86L487.413 609.629C481.977 611.302 474.69 613.077 465.281 614.857L472.717 654.16L480.153 693.463C491.464 691.323 501.817 688.898 510.94 686.091L499.177 647.86ZM472.717 654.16L465.281 614.857C456.139 616.587 446.515 617.967 436.397 618.979L440.377 658.78L444.357 698.581C456.639 697.353 468.575 695.653 480.153 693.463L472.717 654.16ZM440.377 658.78L436.296 618.989C426.613 619.982 417.48 620.46 408.877 620.46V660.46V700.46C420.434 700.46 432.3 699.818 444.458 698.571L440.377 658.78ZM409.297 607.12V647.12C415.549 647.12 421.523 646.964 427.186 646.631L424.837 606.7L422.488 566.769C418.631 566.996 414.244 567.12 409.297 567.12V607.12ZM424.837 606.7L429.511 646.426C434.716 645.814 439.54 645.141 443.752 644.375L436.597 605.02L429.441 565.665C427.494 566.019 424.478 566.466 420.163 566.974L424.837 606.7ZM436.597 605.02H476.597V491.2H436.597H396.597V605.02H436.597ZM436.597 491.2L458.227 457.553C449.59 452 440.083 448.525 431.154 446.195L421.057 484.9L410.96 523.605C412.808 524.087 414.029 524.515 414.744 524.805C415.471 525.099 415.46 525.165 414.967 524.847L436.597 491.2ZM421.057 484.9L431.582 446.309C421.962 443.686 412.121 442.38 402.157 442.38V482.38V522.38C405.073 522.38 407.832 522.754 410.532 523.491L421.057 484.9ZM402.157 482.38V442.38C390.213 442.38 377.811 444.369 366.002 449.683L382.417 486.16L398.831 522.637C398.222 522.911 398.981 522.38 402.157 522.38V482.38ZM382.417 486.16L365.293 450.01C353.847 455.433 344.414 463.388 336.983 472.942L368.557 497.5L400.131 522.058C400.382 521.735 400.45 521.713 400.291 521.843C400.217 521.904 400.11 521.984 399.972 522.072C399.833 522.16 399.687 522.24 399.54 522.31L382.417 486.16ZM368.557 497.5L336.13 474.08C328.939 484.037 324.337 495.174 321.437 506.362L360.157 516.4L398.877 526.438C399.896 522.506 400.895 521.043 400.984 520.92L368.557 497.5ZM360.157 516.4L321.109 507.723C318.64 518.836 317.637 530.684 317.637 542.86H357.637H397.637C397.637 534.876 398.314 529.084 399.204 525.077L360.157 516.4ZM357.637 542.86H317.637C317.637 559.74 320.202 576.295 326.378 591.736L363.517 576.88L400.656 562.024C398.992 557.865 397.637 551.74 397.637 542.86H357.637ZM363.517 576.88L326.53 592.11C333.007 607.841 343.24 621.665 357.717 631.852L380.737 599.14L403.757 566.428C403.114 565.975 401.867 564.959 400.504 561.65L363.517 576.88ZM380.737 599.14L358.277 632.239C373.878 642.826 391.578 647.12 409.297 647.12V607.12V567.12C404.616 567.12 403.276 566.094 403.197 566.041L380.737 599.14ZM524.173 655H484.173V695H524.173V655ZM524.173 434.08V394.08H484.173V434.08H524.173ZM586.753 434.08H626.753V394.08H586.753V434.08ZM586.753 655V695H626.753V655H586.753ZM529.213 389.14L502.082 418.532L502.668 419.073L503.275 419.59L529.213 389.14ZM529.213 334.96L555.716 364.92L555.752 364.888L555.788 364.856L529.213 334.96ZM581.713 334.96L554.582 364.352L555.168 364.893L555.775 365.41L581.713 334.96ZM581.713 389.14L608.216 419.1L608.252 419.068L608.288 419.036L581.713 389.14ZM524.173 655H564.173V434.08H524.173H484.173V655H524.173ZM524.173 434.08V474.08H586.753V434.08V394.08H524.173V434.08ZM586.753 434.08H546.753V655H586.753H626.753V434.08H586.753ZM586.753 655V615H524.173V655V695H586.753V655ZM555.673 398.8V358.8C555.29 358.8 555.1 358.77 555.068 358.764C555.04 358.76 555.102 358.769 555.216 358.811C555.331 358.853 555.412 358.896 555.439 358.912C555.462 358.925 555.365 358.872 555.152 358.69L529.213 389.14L503.275 419.59C518.19 432.295 536.243 438.8 555.673 438.8V398.8ZM529.213 389.14L556.345 359.748C556.627 360.009 556.992 360.405 557.355 360.931C557.719 361.458 557.986 361.978 558.162 362.419C558.527 363.33 558.293 363.349 558.293 361.84H518.293H478.293C478.293 382.542 485.273 403.016 502.082 418.532L529.213 389.14ZM518.293 361.84H558.293C558.293 360.314 558.532 360.458 558.082 361.565C557.861 362.11 557.527 362.749 557.065 363.4C556.604 364.05 556.125 364.558 555.716 364.92L529.213 334.96L502.71 305C485.278 320.421 478.293 341.179 478.293 361.84H518.293ZM529.213 334.96L555.788 364.856C555.908 364.75 555.992 364.684 556.039 364.649C556.086 364.614 556.101 364.606 556.084 364.616C556.066 364.627 556.025 364.651 555.961 364.683C555.897 364.714 555.822 364.748 555.738 364.78C555.654 364.811 555.574 364.837 555.502 364.857C555.43 364.877 555.378 364.888 555.351 364.892C555.324 364.897 555.332 364.894 555.381 364.89C555.429 364.886 555.525 364.88 555.673 364.88V324.88V284.88C535.759 284.88 517.493 291.86 502.639 305.064L529.213 334.96ZM555.673 324.88V364.88C555.964 364.88 556.031 364.904 555.919 364.883C555.801 364.862 555.581 364.81 555.304 364.703C555.026 364.595 554.794 364.472 554.631 364.37C554.473 364.27 554.459 364.239 554.582 364.352L581.713 334.96L608.845 305.568C594.034 291.897 575.615 284.88 555.673 284.88V324.88ZM581.713 334.96L555.775 365.41C555.413 365.101 554.941 364.627 554.465 363.98C553.987 363.331 553.62 362.665 553.364 362.058C552.838 360.813 553.053 360.492 553.053 361.84H593.053H633.053C633.053 340.673 625.573 319.776 607.652 304.51L581.713 334.96ZM593.053 361.84H553.053C553.053 363.172 552.843 362.978 553.279 361.931C553.487 361.428 553.785 360.879 554.164 360.35C554.541 359.824 554.899 359.457 555.139 359.244L581.713 389.14L608.288 419.036C625.588 403.658 633.053 383.034 633.053 361.84H593.053ZM581.713 389.14L555.211 359.18C555.114 359.266 555.135 359.233 555.279 359.146C555.426 359.057 555.618 358.961 555.831 358.882C556.042 358.804 556.181 358.777 556.204 358.773C556.222 358.77 556.058 358.8 555.673 358.8V398.8V438.8C575.12 438.8 593.332 432.267 608.216 419.1L581.713 389.14ZM625.84 655.84L615.743 694.545L615.844 694.571L615.944 694.597L625.84 655.84ZM598.96 647.44L559.787 639.346L553.267 670.905L582.714 683.992L598.96 647.44ZM609.46 596.62L624.146 559.414L579.91 541.952L570.287 588.526L609.46 596.62ZM642.22 606.7L633.439 645.724L633.906 645.829L634.375 645.923L642.22 606.7ZM699.76 606.7L716.792 642.893V642.893L699.76 606.7ZM702.7 584.86L674.415 613.144L675.159 613.888L675.941 614.592L702.7 584.86ZM690.1 576.46L671.47 611.857L671.839 612.051L672.211 612.237L690.1 576.46ZM669.52 567.64L654.944 604.89L655.345 605.047L655.75 605.195L669.52 567.64ZM635.5 551.68L615.654 586.41V586.41L635.5 551.68ZM612.82 530.26L578.426 550.682L578.569 550.923L578.716 551.162L612.82 530.26ZM615.34 459.7L647.889 482.95L648.043 482.734L648.195 482.516L615.34 459.7ZM645.16 436.6L660.43 473.57L660.771 473.43L661.109 473.283L645.16 436.6ZM730 431.98L721.984 471.169L722.413 471.256L722.844 471.335L730 431.98ZM759.4 439.54L798.431 448.288L805.982 414.6L773.759 402.206L759.4 439.54ZM748.48 488.26L735.395 526.059L777.716 540.709L787.511 497.008L748.48 488.26ZM724.54 481.54L715.451 520.494L715.59 520.526L715.729 520.558L724.54 481.54ZM673.72 482.8L692.435 518.151L692.792 517.962L693.145 517.766L673.72 482.8ZM669.1 503.8L634.8 524.38L635.29 525.196L635.818 525.988L669.1 503.8ZM678.76 511.36L697.475 476.008V476.008L678.76 511.36ZM742.18 540.34L719.559 573.329L719.774 573.477L719.992 573.622L742.18 540.34ZM763.18 563.44L726.725 579.903L726.827 580.13L726.932 580.355L763.18 563.44ZM758.14 631.06L726.03 607.207V607.207L758.14 631.06ZM726.22 653.32L712.671 615.685H712.671L726.22 653.32ZM674.98 660.88V620.88C657.382 620.88 644.583 619.342 635.735 617.083L625.84 655.84L615.944 694.597C633.417 699.058 653.378 700.88 674.98 700.88V660.88ZM625.84 655.84L635.937 617.135C623.048 613.773 616.946 611.661 615.205 610.888L598.96 647.44L582.714 683.992C591.053 687.699 602.871 691.187 615.743 694.545L625.84 655.84ZM598.96 647.44L638.132 655.534L648.632 604.714L609.46 596.62L570.287 588.526L559.787 639.346L598.96 647.44ZM609.46 596.62L594.773 633.826C607.339 638.786 620.234 642.753 633.439 645.724L642.22 606.7L651 567.676C641.806 565.607 632.861 562.854 624.146 559.414L609.46 596.62ZM642.22 606.7L634.375 645.923C648.04 648.656 661.728 650.06 675.4 650.06V610.06V570.06C667.232 570.06 658.8 569.224 650.064 567.477L642.22 606.7ZM675.4 610.06V650.06C687.407 650.06 703.37 649.209 716.792 642.893L699.76 606.7L682.728 570.507C684.262 569.785 685.283 569.512 685.463 569.465C685.678 569.409 685.445 569.483 684.634 569.595C682.941 569.829 679.975 570.06 675.4 570.06V610.06ZM699.76 606.7L716.792 642.893C726.317 638.41 734.666 631.067 740.187 620.998C745.439 611.422 746.9 601.658 746.9 593.68H706.9H666.9C666.9 592.142 667.171 587.768 670.042 582.532C673.184 576.803 677.963 572.75 682.728 570.507L699.76 606.7ZM706.9 593.68H746.9C746.9 577.538 739.552 564.213 729.458 555.128L702.7 584.86L675.941 614.592C674.035 612.876 671.625 610.121 669.735 606.152C667.795 602.077 666.9 597.755 666.9 593.68H706.9ZM702.7 584.86L730.984 556.576C723.906 549.498 715.471 544.424 707.988 540.683L690.1 576.46L672.211 612.237C673.864 613.064 674.823 613.649 675.262 613.942C675.467 614.079 675.482 614.101 675.349 613.995C675.219 613.891 674.884 613.613 674.415 613.144L702.7 584.86ZM690.1 576.46L708.73 541.063C701.282 537.143 692.636 533.512 683.29 530.085L669.52 567.64L655.75 605.195C663.204 607.928 668.278 610.177 671.47 611.857L690.1 576.46ZM669.52 567.64L684.096 530.39C672.643 525.909 663.126 521.396 655.345 516.95L635.5 551.68L615.654 586.41C627.474 593.164 640.636 599.291 654.944 604.89L669.52 567.64ZM635.5 551.68L655.345 516.95C650.737 514.317 648.359 511.699 646.924 509.358L612.82 530.26L578.716 551.162C587.921 566.181 600.662 577.843 615.654 586.41L635.5 551.68ZM612.82 530.26L647.214 509.838C646.679 508.937 644.84 505.048 644.84 495.4H604.84H564.84C564.84 514.312 568.321 533.663 578.426 550.682L612.82 530.26ZM604.84 495.4H644.84C644.84 488.338 646.489 484.91 647.889 482.95L615.34 459.7L582.79 436.45C570.19 454.09 564.84 474.462 564.84 495.4H604.84ZM615.34 459.7L648.195 482.516C650.241 479.57 653.66 476.367 660.43 473.57L645.16 436.6L629.889 399.63C610.9 407.473 594.439 419.67 582.485 436.884L615.34 459.7ZM645.16 436.6L661.109 473.283C667.773 470.385 677.471 468.2 691.36 468.2V428.2V388.2C669.409 388.2 648.306 391.615 629.211 399.917L645.16 436.6ZM691.36 428.2V468.2C702.291 468.2 712.476 469.224 721.984 471.169L730 431.98L738.016 392.791C722.884 389.696 707.309 388.2 691.36 388.2V428.2ZM730 431.98L722.844 471.335C733.989 473.361 741.058 475.342 745.041 476.874L759.4 439.54L773.759 402.206C763.182 398.138 750.651 395.079 737.155 392.625L730 431.98ZM759.4 439.54L720.368 430.792L709.448 479.512L748.48 488.26L787.511 497.008L798.431 448.288L759.4 439.54ZM748.48 488.26L761.564 450.461C752.688 447.388 743.26 444.76 733.35 442.522L724.54 481.54L715.729 520.558C723.179 522.24 729.711 524.092 735.395 526.059L748.48 488.26ZM724.54 481.54L733.629 442.586C721.653 439.792 709 438.6 695.98 438.6V478.6V518.6C704.24 518.6 710.627 519.368 715.451 520.494L724.54 481.54ZM695.98 478.6V438.6C683.552 438.6 668.086 440.172 654.294 447.834L673.72 482.8L693.145 517.766C692.012 518.396 691.153 518.722 690.723 518.867C690.293 519.012 690.182 519.013 690.481 518.956C691.149 518.83 692.877 518.6 695.98 518.6V478.6ZM673.72 482.8L655.004 447.448C647.027 451.672 639.323 458.182 633.857 467.506C628.441 476.745 626.58 486.426 626.58 494.98H666.58H706.58C706.58 497.934 705.908 502.785 702.873 507.964C699.787 513.228 695.653 516.448 692.435 518.151L673.72 482.8ZM666.58 494.98H626.58C626.58 505.751 629.624 515.753 634.8 524.38L669.1 503.8L703.399 483.22C705.216 486.247 706.58 490.369 706.58 494.98H666.58ZM669.1 503.8L635.818 525.988C643.041 536.823 653.331 543.158 660.044 546.712L678.76 511.36L697.475 476.008C696.569 475.529 696.698 475.509 697.427 476.08C698.077 476.588 700.195 478.333 702.382 481.612L669.1 503.8ZM678.76 511.36L660.044 546.712C667.248 550.525 676.282 554.205 686.09 557.772L699.76 520.18L713.429 482.588C704.758 479.435 699.792 477.235 697.475 476.008L678.76 511.36ZM699.76 520.18L686.09 557.772C703.179 563.986 713.752 569.348 719.559 573.329L742.18 540.34L764.801 507.351C751.007 497.892 733.301 489.814 713.429 482.588L699.76 520.18ZM742.18 540.34L719.992 573.622C725.513 577.303 726.627 579.687 726.725 579.903L763.18 563.44L799.635 546.977C791.892 529.833 779.007 516.817 764.368 507.058L742.18 540.34ZM763.18 563.44L726.932 580.355C727.708 582.017 729.06 586.213 729.06 594.52H769.06H809.06C809.06 578.187 806.491 561.663 799.427 546.525L763.18 563.44ZM769.06 594.52H729.06C729.06 602.192 727.256 605.557 726.03 607.207L758.14 631.06L790.249 654.913C803.584 636.963 809.06 615.968 809.06 594.52H769.06ZM758.14 631.06L726.03 607.207C724.385 609.421 720.899 612.722 712.671 615.685L726.22 653.32L739.768 690.956C759.541 683.838 777.334 672.299 790.25 654.913L758.14 631.06ZM726.22 653.32L712.671 615.685C704.255 618.714 692.051 620.88 674.98 620.88V660.88V700.88C698.228 700.88 720.184 698.006 739.768 690.956L726.22 653.32ZM820.867 645.34L799.872 679.387L799.997 679.464L800.123 679.54L820.867 645.34ZM783.487 603.76L746.935 620.006L747.092 620.358L747.255 620.707L783.487 603.76ZM785.167 486.16L749.734 467.6L749.618 467.822L749.504 468.045L785.167 486.16ZM824.227 444.16L845.223 478.207L845.3 478.159L845.377 478.111L824.227 444.16ZM917.887 431.56L908.974 470.554L909.507 470.676L910.043 470.783L917.887 431.56ZM946.447 440.38L985.156 450.464L993.861 417.044L962.069 403.557L946.447 440.38ZM933.427 490.36L919.188 527.74L960.887 543.625L972.135 500.444L933.427 490.36ZM914.107 484.48L904.772 523.375V523.375L914.107 484.48ZM849.007 499.18L817.847 474.1L817.659 474.333L817.475 474.569L849.007 499.18ZM841.027 578.56L803.665 592.845L803.737 593.034L803.811 593.221L841.027 578.56ZM859.087 599.98L838.508 634.28L839.173 634.679L839.854 635.052L859.087 599.98ZM917.467 605.02L923.837 644.51V644.51L917.467 605.02ZM941.407 598.3L980.828 591.515L972.272 541.809L925.822 561.461L941.407 598.3ZM950.227 649.54L965.813 686.379L995.029 674.018L989.648 642.755L950.227 649.54ZM922.927 657.52L914.89 618.336L922.927 657.52ZM886.807 660.88V620.88C864.795 620.88 850.632 616.611 841.612 611.14L820.867 645.34L800.123 679.54C825.263 694.789 855.059 700.88 886.807 700.88V660.88ZM820.867 645.34L841.863 611.293C831.49 604.897 824.433 596.889 819.72 586.813L783.487 603.76L747.255 620.707C758.782 645.35 776.645 665.063 799.872 679.387L820.867 645.34ZM783.487 603.76L820.04 587.514C814.754 575.62 811.727 561.518 811.727 544.54H771.727H731.727C731.727 571.242 736.541 596.62 746.935 620.006L783.487 603.76ZM771.727 544.54H811.727C811.727 529.069 814.934 515.883 820.831 504.275L785.167 486.16L749.504 468.045C737.481 491.717 731.727 517.451 731.727 544.54H771.727ZM785.167 486.16L820.601 504.72C826.538 493.386 834.596 484.76 845.223 478.207L824.227 444.16L803.232 410.113C780.258 424.28 762.277 443.654 749.734 467.6L785.167 486.16ZM824.227 444.16L845.377 478.111C855.031 472.097 867.841 468.2 885.547 468.2V428.2V388.2C855.654 388.2 827.583 394.943 803.077 410.209L824.227 444.16ZM885.547 428.2V468.2C894.801 468.2 902.542 469.084 908.974 470.554L917.887 431.56L926.8 392.566C913.632 389.556 899.814 388.2 885.547 388.2V428.2ZM917.887 431.56L910.043 470.783C917.164 472.207 924.079 474.341 930.825 477.203L946.447 440.38L962.069 403.557C950.336 398.579 938.211 394.833 925.732 392.337L917.887 431.56ZM946.447 440.38L907.739 430.296L894.719 480.276L933.427 490.36L972.135 500.444L985.156 450.464L946.447 440.38ZM933.427 490.36L947.667 452.98C939.978 450.051 931.876 447.609 923.442 445.585L914.107 484.48L904.772 523.375C910.339 524.711 915.117 526.189 919.188 527.74L933.427 490.36ZM914.107 484.48L923.442 445.585C912.835 443.039 901.791 441.96 890.587 441.96V481.96V521.96C896.743 521.96 901.379 522.561 904.772 523.375L914.107 484.48ZM890.587 481.96V441.96C863.363 441.96 836.565 450.844 817.847 474.1L849.007 499.18L880.168 524.26C880.504 523.843 880.788 523.573 881.637 523.221C882.731 522.768 885.418 521.96 890.587 521.96V481.96ZM849.007 499.18L817.475 474.569C801.62 494.883 795.567 519.458 795.567 544.54H835.567H875.567C875.567 532.102 878.475 526.437 880.54 523.791L849.007 499.18ZM835.567 544.54H795.567C795.567 561.23 797.856 577.652 803.665 592.845L841.027 578.56L878.389 564.275C876.919 560.428 875.567 554.17 875.567 544.54H835.567ZM841.027 578.56L803.811 593.221C810.633 610.539 822.438 624.638 838.508 634.28L859.087 599.98L879.667 565.68C879.061 565.317 878.885 565.098 878.853 565.061C878.818 565.019 878.572 564.733 878.244 563.899L841.027 578.56ZM859.087 599.98L839.854 635.052C856.367 644.108 875.009 647.12 893.107 647.12V607.12V567.12C883.206 567.12 879.167 565.372 878.321 564.908L859.087 599.98ZM893.107 607.12V647.12C903.112 647.12 913.381 646.196 923.837 644.51L917.467 605.02L911.098 565.53C904.193 566.644 898.223 567.12 893.107 567.12V607.12ZM917.467 605.02L923.837 644.51C935.335 642.655 946.449 639.599 956.993 635.139L941.407 598.3L925.822 561.461C921.805 563.16 916.96 564.585 911.098 565.53L917.467 605.02ZM941.407 598.3L901.987 605.085L910.807 656.325L950.227 649.54L989.648 642.755L980.828 591.515L941.407 598.3ZM950.227 649.54L934.642 612.701C930.557 614.429 924.185 616.429 914.89 618.336L922.927 657.52L930.965 696.704C943.51 694.131 955.338 690.811 965.813 686.379L950.227 649.54ZM922.927 657.52L914.89 618.336C907.037 619.947 897.737 620.88 886.807 620.88V660.88V700.88C902.198 700.88 916.977 699.573 930.965 696.704L922.927 657.52Z" fill="#2F0056" mask="url(#path-9-outside-1_3373_59)"/>
</g>
</svg>
