<svg width="960" height="1030" viewBox="0 0 960 1030" fill="none" xmlns="http://www.w3.org/2000/svg">
<circle cx="480" cy="550" r="440" fill="#D9D9D9" stroke="black" stroke-width="80"/>
<circle cx="480" cy="550" r="400" fill="#D9D9D9" stroke="white" stroke-width="80"/>
<circle cx="480" cy="550" r="310" fill="#D9D9D9" stroke="black" stroke-width="40"/>
<circle cx="480" cy="550" r="330" fill="#D9D9D9" stroke="black" stroke-width="40"/>
<circle cx="480" cy="550" r="340" fill="#D9D9D9" stroke="white" stroke-width="20"/>
<mask id="path-6-outside-1_3373_129" maskUnits="userSpaceOnUse" x="260" y="281" width="444" height="511" fill="black">
<rect fill="white" x="260" y="281" width="444" height="511"/>
<path d="M300 752V345.6C320.267 339.733 346.4 334.4 378.4 329.6C410.4 324.267 444 321.6 479.2 321.6C527.2 321.6 564.533 329.867 591.2 346.4C617.867 362.4 636.533 384.8 647.2 413.6C657.867 442.4 663.2 476 663.2 514.4V752H544V528.8C544 503.2 541.867 482.667 537.6 467.2C533.333 451.733 525.867 440.533 515.2 433.6C505.067 426.667 490.667 423.2 472 423.2C463.467 423.2 454.4 423.733 444.8 424.8C435.2 425.333 426.667 426.133 419.2 427.2V752H300Z"/>
</mask>
<path d="M300 752V345.6C320.267 339.733 346.4 334.4 378.4 329.6C410.4 324.267 444 321.6 479.2 321.6C527.2 321.6 564.533 329.867 591.2 346.4C617.867 362.4 636.533 384.8 647.2 413.6C657.867 442.4 663.2 476 663.2 514.4V752H544V528.8C544 503.2 541.867 482.667 537.6 467.2C533.333 451.733 525.867 440.533 515.2 433.6C505.067 426.667 490.667 423.2 472 423.2C463.467 423.2 454.4 423.733 444.8 424.8C435.2 425.333 426.667 426.133 419.2 427.2V752H300Z" fill="white"/>
<path d="M300 752H260V792H300V752ZM300 345.6L288.878 307.177L260 315.537V345.6H300ZM378.4 329.6L384.334 369.157L384.655 369.109L384.976 369.056L378.4 329.6ZM591.2 346.4L570.122 380.396L570.37 380.55L570.62 380.7L591.2 346.4ZM647.2 413.6L609.69 427.493V427.493L647.2 413.6ZM663.2 752V792H703.2V752H663.2ZM544 752H504V792H544V752ZM537.6 467.2L499.04 477.837L499.04 477.837L537.6 467.2ZM515.2 433.6L492.613 466.612L493.003 466.88L493.4 467.138L515.2 433.6ZM444.8 424.8L447.019 464.738L448.121 464.677L449.217 464.555L444.8 424.8ZM419.2 427.2L413.543 387.602L379.2 392.508V427.2H419.2ZM419.2 752V792H459.2V752H419.2ZM300 752H340V345.6H300H260V752H300ZM300 345.6L311.122 384.023C329.043 378.835 353.268 373.817 384.334 369.157L378.4 329.6L372.466 290.043C339.532 294.983 311.491 300.632 288.878 307.177L300 345.6ZM378.4 329.6L384.976 369.056C414.628 364.114 446.019 361.6 479.2 361.6V321.6V281.6C441.981 281.6 406.172 284.42 371.824 290.144L378.4 329.6ZM479.2 321.6V361.6C523.4 361.6 552.299 369.345 570.122 380.396L591.2 346.4L612.278 312.404C576.768 290.388 531 281.6 479.2 281.6V321.6ZM591.2 346.4L570.62 380.7C589.594 392.084 602.225 407.338 609.69 427.493L647.2 413.6L684.71 399.707C670.841 362.262 646.139 332.716 611.78 312.1L591.2 346.4ZM647.2 413.6L609.69 427.493C618.356 450.889 623.2 479.602 623.2 514.4H663.2H703.2C703.2 472.398 697.378 433.911 684.71 399.707L647.2 413.6ZM663.2 514.4H623.2V752H663.2H703.2V514.4H663.2ZM663.2 752V712H544V752V792H663.2V752ZM544 752H584V528.8H544H504V752H544ZM544 528.8H584C584 501.469 581.776 476.921 576.16 456.563L537.6 467.2L499.04 477.837C501.958 488.413 504 504.931 504 528.8H544ZM537.6 467.2L576.16 456.563C569.995 434.217 557.837 413.607 537 400.062L515.2 433.6L493.4 467.138C493.896 467.46 496.671 469.25 499.04 477.837L537.6 467.2ZM515.2 433.6L537.787 400.588C518.367 387.3 494.803 383.2 472 383.2V423.2V463.2C486.531 463.2 491.766 466.033 492.613 466.612L515.2 433.6ZM472 423.2V383.2C461.813 383.2 451.262 383.836 440.383 385.045L444.8 424.8L449.217 464.555C457.538 463.631 465.12 463.2 472 463.2V423.2ZM444.8 424.8L442.581 384.862C432.126 385.442 422.41 386.335 413.543 387.602L419.2 427.2L424.857 466.798C430.924 465.931 438.274 465.224 447.019 464.738L444.8 424.8ZM419.2 427.2H379.2V752H419.2H459.2V427.2H419.2ZM419.2 752V712H300V752V792H419.2V752Z" fill="black" mask="url(#path-6-outside-1_3373_129)"/>
<mask id="path-8-outside-2_3373_129" maskUnits="userSpaceOnUse" x="299" y="320" width="366" height="433" fill="black">
<rect fill="white" x="299" y="320" width="366" height="433"/>
<path d="M300 752V345.6C320.267 339.733 346.4 334.4 378.4 329.6C410.4 324.267 444 321.6 479.2 321.6C527.2 321.6 564.533 329.867 591.2 346.4C617.867 362.4 636.533 384.8 647.2 413.6C657.867 442.4 663.2 476 663.2 514.4V752H544V528.8C544 503.2 541.867 482.667 537.6 467.2C533.333 451.733 525.867 440.533 515.2 433.6C505.067 426.667 490.667 423.2 472 423.2C463.467 423.2 454.4 423.733 444.8 424.8C435.2 425.333 426.667 426.133 419.2 427.2V752H300Z"/>
</mask>
<path d="M300 752V345.6C320.267 339.733 346.4 334.4 378.4 329.6C410.4 324.267 444 321.6 479.2 321.6C527.2 321.6 564.533 329.867 591.2 346.4C617.867 362.4 636.533 384.8 647.2 413.6C657.867 442.4 663.2 476 663.2 514.4V752H544V528.8C544 503.2 541.867 482.667 537.6 467.2C533.333 451.733 525.867 440.533 515.2 433.6C505.067 426.667 490.667 423.2 472 423.2C463.467 423.2 454.4 423.733 444.8 424.8C435.2 425.333 426.667 426.133 419.2 427.2V752H300Z" fill="white"/>
<path d="M300 752H299V753H300V752ZM300 345.6L299.722 344.639L299 344.848V345.6H300ZM378.4 329.6L378.548 330.589L378.556 330.588L378.564 330.586L378.4 329.6ZM591.2 346.4L590.673 347.25L590.679 347.254L590.686 347.257L591.2 346.4ZM647.2 413.6L646.262 413.947V413.947L647.2 413.6ZM663.2 752V753H664.2V752H663.2ZM544 752H543V753H544V752ZM537.6 467.2L536.636 467.466V467.466L537.6 467.2ZM515.2 433.6L514.635 434.425L514.645 434.432L514.655 434.438L515.2 433.6ZM444.8 424.8L444.855 425.798L444.883 425.797L444.91 425.794L444.8 424.8ZM419.2 427.2L419.059 426.21L418.2 426.333V427.2H419.2ZM419.2 752V753H420.2V752H419.2ZM300 752H301V345.6H300H299V752H300ZM300 345.6L300.278 346.561C320.486 340.711 346.572 335.385 378.548 330.589L378.4 329.6L378.252 328.611C346.228 333.415 320.047 338.756 299.722 344.639L300 345.6ZM378.4 329.6L378.564 330.586C410.506 325.263 444.05 322.6 479.2 322.6V321.6V320.6C443.95 320.6 410.294 323.27 378.236 328.614L378.4 329.6ZM479.2 321.6V322.6C527.105 322.6 564.227 330.854 590.673 347.25L591.2 346.4L591.727 345.55C564.839 328.88 527.295 320.6 479.2 320.6V321.6ZM591.2 346.4L590.686 347.257C617.16 363.142 635.676 385.363 646.262 413.947L647.2 413.6L648.138 413.253C637.391 384.237 618.573 361.658 591.715 345.542L591.2 346.4ZM647.2 413.6L646.262 413.947C656.879 442.612 662.2 476.09 662.2 514.4H663.2H664.2C664.2 475.91 658.854 442.188 648.138 413.253L647.2 413.6ZM663.2 514.4H662.2V752H663.2H664.2V514.4H663.2ZM663.2 752V751H544V752V753H663.2V752ZM544 752H545V528.8H544H543V752H544ZM544 528.8H545C545 503.157 542.864 482.523 538.564 466.934L537.6 467.2L536.636 467.466C540.869 482.81 543 503.243 543 528.8H544ZM537.6 467.2L538.564 466.934C534.25 451.295 526.666 439.86 515.745 432.762L515.2 433.6L514.655 434.438C525.067 441.206 532.417 452.171 536.636 467.466L537.6 467.2ZM515.2 433.6L515.765 432.775C505.399 425.682 490.77 422.2 472 422.2V423.2V424.2C490.563 424.2 504.734 427.651 514.635 434.425L515.2 433.6ZM472 423.2V422.2C463.425 422.2 454.322 422.736 444.69 423.806L444.8 424.8L444.91 425.794C454.478 424.731 463.508 424.2 472 424.2V423.2ZM444.8 424.8L444.745 423.802C435.123 424.336 426.56 425.138 419.059 426.21L419.2 427.2L419.341 428.19C426.773 427.128 435.277 426.331 444.855 425.798L444.8 424.8ZM419.2 427.2H418.2V752H419.2H420.2V427.2H419.2ZM419.2 752V751H300V752V753H419.2V752Z" fill="black" mask="url(#path-8-outside-2_3373_129)"/>
</svg>
