<svg width="1772" height="498" viewBox="0 0 1772 498" fill="none" xmlns="http://www.w3.org/2000/svg">
<circle cx="220" cy="278" r="200" fill="#D9D9D9" stroke="white" stroke-width="40"/>
<circle cx="220" cy="278" r="155" fill="#D9D9D9" stroke="#F4E6FF" stroke-width="20"/>
<circle cx="220" cy="278" r="100" fill="white"/>
<circle cx="220" cy="278" r="20" fill="#AA43FF"/>
<mask id="path-5-outside-1_3381_68" maskUnits="userSpaceOnUse" x="470" y="41" width="862" height="361" fill="black">
<rect fill="white" x="470" y="41" width="862" height="361"/>
<path d="M490 376V172.8C500.133 169.867 513.2 167.2 529.2 164.8C545.2 162.133 562 160.8 579.6 160.8C603.6 160.8 622.267 164.933 635.6 173.2C648.933 181.2 658.267 192.4 663.6 206.8C668.933 221.2 671.6 238 671.6 257.2V376H612V264.4C612 251.6 610.933 241.333 608.8 233.6C606.667 225.867 602.933 220.267 597.6 216.8C592.533 213.333 585.333 211.6 576 211.6C571.733 211.6 567.2 211.867 562.4 212.4C557.6 212.667 553.333 213.067 549.6 213.6V376H490ZM793.147 381.2C769.947 381.2 750.214 376.8 733.947 368C717.68 359.2 705.147 346.667 696.347 330.4C687.814 313.867 683.547 294.4 683.547 272C683.547 249.067 687.28 229.333 694.747 212.8C702.214 196.267 712.88 183.6 726.747 174.8C740.88 165.733 757.814 161.2 777.547 161.2C785.814 161.2 793.147 162 799.547 163.6C806.214 165.2 812.88 167.467 819.547 170.4V75.2L879.147 65.6V369.2C872.214 371.333 863.814 373.333 853.947 375.2C844.08 377.067 833.814 378.533 823.147 379.6C812.747 380.667 802.747 381.2 793.147 381.2ZM793.547 330.4C798.88 330.4 803.814 330.267 808.347 330C812.88 329.467 816.614 328.933 819.547 328.4V220C815.814 217.6 810.88 215.6 804.747 214C798.88 212.4 792.88 211.6 786.747 211.6C779.547 211.6 773.28 212.8 767.947 215.2C762.88 217.6 758.48 221.2 754.747 226C751.28 230.8 748.614 236.8 746.747 244C745.147 251.2 744.347 259.6 744.347 269.2C744.347 281.467 746.214 292.267 749.947 301.6C753.68 310.667 759.147 317.733 766.347 322.8C773.814 327.867 782.88 330.4 793.547 330.4ZM902.953 376V165.6H962.553V376H902.953ZM932.953 132C923.353 132 914.953 128.933 907.753 122.8C900.82 116.4 897.353 107.733 897.353 96.8C897.353 85.8667 900.82 77.3333 907.753 71.2C914.953 64.8 923.353 61.6 932.953 61.6C942.553 61.6 950.82 64.8 957.753 71.2C964.953 77.3333 968.553 85.8667 968.553 96.8C968.553 107.733 964.953 116.4 957.753 122.8C950.82 128.933 942.553 132 932.953 132ZM1046.58 381.6C1027.91 381.6 1012.31 380 999.778 376.8C987.511 373.6 978.978 370.933 974.178 368.8L984.178 320.4C994.311 324.4 1004.71 327.6 1015.38 330C1026.04 332.133 1036.58 333.2 1046.98 333.2C1057.91 333.2 1065.64 332.133 1070.18 330C1074.71 327.867 1076.98 323.733 1076.98 317.6C1076.98 314.4 1075.64 311.6 1072.98 309.2C1070.31 306.533 1066.31 303.867 1060.98 301.2C1055.91 298.533 1049.38 295.733 1041.38 292.8C1029.11 288 1018.31 282.933 1008.98 277.6C999.645 272.267 992.445 265.467 987.378 257.2C982.311 248.667 979.778 237.6 979.778 224C979.778 210.667 983.111 199.333 989.778 190C996.445 180.4 1005.91 173.067 1018.18 168C1030.44 162.667 1045.11 160 1062.18 160C1074.98 160 1087.24 161.2 1098.98 163.6C1110.71 165.733 1120.04 168.133 1126.98 170.8L1116.58 217.2C1109.64 214.8 1102.04 212.667 1093.78 210.8C1085.78 208.933 1076.71 208 1066.58 208C1057.24 208 1050.18 209.333 1045.38 212C1040.84 214.4 1038.58 218.267 1038.58 223.6C1038.58 226.533 1039.38 229.333 1040.98 232C1042.58 234.4 1045.64 236.8 1050.18 239.2C1054.71 241.6 1061.38 244.4 1070.18 247.6C1087.78 254 1101.24 260.4 1110.58 266.8C1120.18 273.2 1126.84 280.533 1130.58 288.8C1134.31 296.8 1136.18 306.667 1136.18 318.4C1136.18 332.267 1132.71 343.867 1125.78 353.2C1118.84 362.533 1108.71 369.6 1095.38 374.4C1082.04 379.2 1065.78 381.6 1046.58 381.6ZM1248.32 381.6C1222.72 381.6 1201.79 376.667 1185.52 366.8C1169.52 356.933 1157.65 343.733 1149.92 327.2C1142.45 310.4 1138.72 291.6 1138.72 270.8C1138.72 250.533 1142.99 232 1151.52 215.2C1160.32 198.4 1172.72 185.067 1188.72 175.2C1204.99 165.067 1224.45 160 1247.12 160C1258.32 160 1268.59 161.067 1277.92 163.2C1287.25 165.067 1296.32 167.867 1305.12 171.6L1292.72 219.2C1287.12 217.067 1280.99 215.2 1274.32 213.6C1267.65 212 1260.19 211.2 1251.92 211.2C1234.32 211.2 1221.12 216.667 1212.32 227.6C1203.79 238.533 1199.52 252.933 1199.52 270.8C1199.52 283.333 1201.25 294.133 1204.72 303.2C1208.19 312 1213.92 318.8 1221.92 323.6C1230.19 328.133 1240.99 330.4 1254.32 330.4C1261.52 330.4 1269.25 329.733 1277.52 328.4C1285.79 327.067 1293.39 324.933 1300.32 322L1308.72 370.8C1301.79 373.733 1293.12 376.267 1282.72 378.4C1272.32 380.533 1260.85 381.6 1248.32 381.6Z"/>
</mask>
<path d="M490 376V172.8C500.133 169.867 513.2 167.2 529.2 164.8C545.2 162.133 562 160.8 579.6 160.8C603.6 160.8 622.267 164.933 635.6 173.2C648.933 181.2 658.267 192.4 663.6 206.8C668.933 221.2 671.6 238 671.6 257.2V376H612V264.4C612 251.6 610.933 241.333 608.8 233.6C606.667 225.867 602.933 220.267 597.6 216.8C592.533 213.333 585.333 211.6 576 211.6C571.733 211.6 567.2 211.867 562.4 212.4C557.6 212.667 553.333 213.067 549.6 213.6V376H490ZM793.147 381.2C769.947 381.2 750.214 376.8 733.947 368C717.68 359.2 705.147 346.667 696.347 330.4C687.814 313.867 683.547 294.4 683.547 272C683.547 249.067 687.28 229.333 694.747 212.8C702.214 196.267 712.88 183.6 726.747 174.8C740.88 165.733 757.814 161.2 777.547 161.2C785.814 161.2 793.147 162 799.547 163.6C806.214 165.2 812.88 167.467 819.547 170.4V75.2L879.147 65.6V369.2C872.214 371.333 863.814 373.333 853.947 375.2C844.08 377.067 833.814 378.533 823.147 379.6C812.747 380.667 802.747 381.2 793.147 381.2ZM793.547 330.4C798.88 330.4 803.814 330.267 808.347 330C812.88 329.467 816.614 328.933 819.547 328.4V220C815.814 217.6 810.88 215.6 804.747 214C798.88 212.4 792.88 211.6 786.747 211.6C779.547 211.6 773.28 212.8 767.947 215.2C762.88 217.6 758.48 221.2 754.747 226C751.28 230.8 748.614 236.8 746.747 244C745.147 251.2 744.347 259.6 744.347 269.2C744.347 281.467 746.214 292.267 749.947 301.6C753.68 310.667 759.147 317.733 766.347 322.8C773.814 327.867 782.88 330.4 793.547 330.4ZM902.953 376V165.6H962.553V376H902.953ZM932.953 132C923.353 132 914.953 128.933 907.753 122.8C900.82 116.4 897.353 107.733 897.353 96.8C897.353 85.8667 900.82 77.3333 907.753 71.2C914.953 64.8 923.353 61.6 932.953 61.6C942.553 61.6 950.82 64.8 957.753 71.2C964.953 77.3333 968.553 85.8667 968.553 96.8C968.553 107.733 964.953 116.4 957.753 122.8C950.82 128.933 942.553 132 932.953 132ZM1046.58 381.6C1027.91 381.6 1012.31 380 999.778 376.8C987.511 373.6 978.978 370.933 974.178 368.8L984.178 320.4C994.311 324.4 1004.71 327.6 1015.38 330C1026.04 332.133 1036.58 333.2 1046.98 333.2C1057.91 333.2 1065.64 332.133 1070.18 330C1074.71 327.867 1076.98 323.733 1076.98 317.6C1076.98 314.4 1075.64 311.6 1072.98 309.2C1070.31 306.533 1066.31 303.867 1060.98 301.2C1055.91 298.533 1049.38 295.733 1041.38 292.8C1029.11 288 1018.31 282.933 1008.98 277.6C999.645 272.267 992.445 265.467 987.378 257.2C982.311 248.667 979.778 237.6 979.778 224C979.778 210.667 983.111 199.333 989.778 190C996.445 180.4 1005.91 173.067 1018.18 168C1030.44 162.667 1045.11 160 1062.18 160C1074.98 160 1087.24 161.2 1098.98 163.6C1110.71 165.733 1120.04 168.133 1126.98 170.8L1116.58 217.2C1109.64 214.8 1102.04 212.667 1093.78 210.8C1085.78 208.933 1076.71 208 1066.58 208C1057.24 208 1050.18 209.333 1045.38 212C1040.84 214.4 1038.58 218.267 1038.58 223.6C1038.58 226.533 1039.38 229.333 1040.98 232C1042.58 234.4 1045.64 236.8 1050.18 239.2C1054.71 241.6 1061.38 244.4 1070.18 247.6C1087.78 254 1101.24 260.4 1110.58 266.8C1120.18 273.2 1126.84 280.533 1130.58 288.8C1134.31 296.8 1136.18 306.667 1136.18 318.4C1136.18 332.267 1132.71 343.867 1125.78 353.2C1118.84 362.533 1108.71 369.6 1095.38 374.4C1082.04 379.2 1065.78 381.6 1046.58 381.6ZM1248.32 381.6C1222.72 381.6 1201.79 376.667 1185.52 366.8C1169.52 356.933 1157.65 343.733 1149.92 327.2C1142.45 310.4 1138.72 291.6 1138.72 270.8C1138.72 250.533 1142.99 232 1151.52 215.2C1160.32 198.4 1172.72 185.067 1188.72 175.2C1204.99 165.067 1224.45 160 1247.12 160C1258.32 160 1268.59 161.067 1277.92 163.2C1287.25 165.067 1296.32 167.867 1305.12 171.6L1292.72 219.2C1287.12 217.067 1280.99 215.2 1274.32 213.6C1267.65 212 1260.19 211.2 1251.92 211.2C1234.32 211.2 1221.12 216.667 1212.32 227.6C1203.79 238.533 1199.52 252.933 1199.52 270.8C1199.52 283.333 1201.25 294.133 1204.72 303.2C1208.19 312 1213.92 318.8 1221.92 323.6C1230.19 328.133 1240.99 330.4 1254.32 330.4C1261.52 330.4 1269.25 329.733 1277.52 328.4C1285.79 327.067 1293.39 324.933 1300.32 322L1308.72 370.8C1301.79 373.733 1293.12 376.267 1282.72 378.4C1272.32 380.533 1260.85 381.6 1248.32 381.6Z" fill="black"/>
<path d="M490 376H470V396H490V376ZM490 172.8L484.439 153.589L470 157.768V172.8H490ZM529.2 164.8L532.167 184.579L532.328 184.555L532.488 184.528L529.2 164.8ZM635.6 173.2L625.061 190.198L625.185 190.275L625.31 190.35L635.6 173.2ZM663.6 206.8L644.845 213.746V213.746L663.6 206.8ZM671.6 376V396H691.6V376H671.6ZM612 376H592V396H612V376ZM608.8 233.6L589.52 238.919L589.52 238.919L608.8 233.6ZM597.6 216.8L586.306 233.306L586.502 233.44L586.7 233.569L597.6 216.8ZM562.4 212.4L563.509 232.369L564.06 232.339L564.609 232.278L562.4 212.4ZM549.6 213.6L546.772 193.801L529.6 196.254V213.6H549.6ZM549.6 376V396H569.6V376H549.6ZM490 376H510V172.8H490H470V376H490ZM490 172.8L495.561 192.011C504.521 189.418 516.634 186.909 532.167 184.579L529.2 164.8L526.233 145.021C509.766 147.491 495.745 150.316 484.439 153.589L490 172.8ZM529.2 164.8L532.488 184.528C547.314 182.057 563.009 180.8 579.6 180.8V160.8V140.8C560.991 140.8 543.086 142.21 525.912 145.072L529.2 164.8ZM579.6 160.8V180.8C601.7 180.8 616.149 184.673 625.061 190.198L635.6 173.2L646.139 156.202C628.384 145.194 605.5 140.8 579.6 140.8V160.8ZM635.6 173.2L625.31 190.35C634.797 196.042 641.113 203.669 644.845 213.746L663.6 206.8L682.355 199.854C675.421 181.131 663.07 166.358 645.89 156.05L635.6 173.2ZM663.6 206.8L644.845 213.746C649.178 225.445 651.6 239.801 651.6 257.2H671.6H691.6C691.6 236.199 688.689 216.955 682.355 199.854L663.6 206.8ZM671.6 257.2H651.6V376H671.6H691.6V257.2H671.6ZM671.6 376V356H612V376V396H671.6V376ZM612 376H632V264.4H612H592V376H612ZM612 264.4H632C632 250.734 630.888 238.46 628.08 228.281L608.8 233.6L589.52 238.919C590.979 244.206 592 252.466 592 264.4H612ZM608.8 233.6L628.08 228.281C624.998 217.109 618.918 206.803 608.5 200.031L597.6 216.8L586.7 233.569C586.948 233.73 588.336 234.625 589.52 238.919L608.8 233.6ZM597.6 216.8L608.894 200.294C599.184 193.65 587.401 191.6 576 191.6V211.6V231.6C583.265 231.6 585.883 233.017 586.306 233.306L597.6 216.8ZM576 211.6V191.6C570.907 191.6 565.631 191.918 560.191 192.522L562.4 212.4L564.609 232.278C568.769 231.815 572.56 231.6 576 231.6V211.6ZM562.4 212.4L561.291 192.431C556.063 192.721 551.205 193.168 546.772 193.801L549.6 213.6L552.428 233.399C555.462 232.966 559.137 232.612 563.509 232.369L562.4 212.4ZM549.6 213.6H529.6V376H549.6H569.6V213.6H549.6ZM549.6 376V356H490V376V396H549.6V376ZM733.947 368L724.431 385.591V385.591L733.947 368ZM696.347 330.4L678.574 339.573L678.664 339.745L678.756 339.916L696.347 330.4ZM694.747 212.8L712.974 221.032V221.032L694.747 212.8ZM726.747 174.8L737.463 191.687L737.505 191.66L737.546 191.634L726.747 174.8ZM799.547 163.6L794.696 183.003L794.788 183.026L794.879 183.048L799.547 163.6ZM819.547 170.4L811.492 188.706L839.547 201.05V170.4H819.547ZM819.547 75.2L816.366 55.4545L799.547 58.1637V75.2H819.547ZM879.147 65.6H899.147V42.1207L875.966 45.8545L879.147 65.6ZM879.147 369.2L885.029 388.316L899.147 383.971V369.2H879.147ZM823.147 379.6L821.157 359.699L821.132 359.702L821.106 359.704L823.147 379.6ZM808.347 330L809.521 349.965L810.104 349.931L810.684 349.863L808.347 330ZM819.547 328.4L823.125 348.077L839.547 345.092V328.4H819.547ZM819.547 220H839.547V209.081L830.362 203.176L819.547 220ZM804.747 214L799.485 233.295L799.591 233.324L799.698 233.352L804.747 214ZM767.947 215.2L759.74 196.962L759.562 197.042L759.385 197.125L767.947 215.2ZM754.747 226L738.96 213.721L738.742 214.002L738.533 214.29L754.747 226ZM746.747 244L727.387 238.981L727.299 239.32L727.223 239.661L746.747 244ZM749.947 301.6L731.377 309.028L731.415 309.122L731.453 309.215L749.947 301.6ZM766.347 322.8L754.837 339.156L754.976 339.254L755.117 339.35L766.347 322.8ZM793.147 381.2V361.2C772.44 361.2 756.155 357.275 743.463 350.409L733.947 368L724.431 385.591C744.272 396.325 767.454 401.2 793.147 401.2V381.2ZM733.947 368L743.463 350.409C730.616 343.459 720.888 333.731 713.938 320.884L696.347 330.4L678.756 339.916C689.406 359.602 704.745 374.941 724.431 385.591L733.947 368ZM696.347 330.4L714.119 321.227C707.319 308.052 703.547 291.853 703.547 272H683.547H663.547C663.547 296.947 668.308 319.681 678.574 339.573L696.347 330.4ZM683.547 272H703.547C703.547 251.18 706.941 234.39 712.974 221.032L694.747 212.8L676.519 204.568C667.619 224.277 663.547 246.953 663.547 272H683.547ZM694.747 212.8L712.974 221.032C719.01 207.668 727.231 198.18 737.463 191.687L726.747 174.8L716.03 157.913C698.529 169.02 685.418 184.865 676.519 204.568L694.747 212.8ZM726.747 174.8L737.546 191.634C747.927 184.974 760.96 181.2 777.547 181.2V161.2V141.2C754.667 141.2 733.834 146.492 715.948 157.966L726.747 174.8ZM777.547 161.2V181.2C784.571 181.2 790.223 181.884 794.696 183.003L799.547 163.6L804.398 144.197C796.071 142.115 787.056 141.2 777.547 141.2V161.2ZM799.547 163.6L794.879 183.048C800.316 184.352 805.851 186.224 811.492 188.706L819.547 170.4L827.602 152.094C819.91 148.709 812.111 146.048 804.214 144.152L799.547 163.6ZM819.547 170.4H839.547V75.2H819.547H799.547V170.4H819.547ZM819.547 75.2L822.727 94.9455L882.327 85.3455L879.147 65.6L875.966 45.8545L816.366 55.4545L819.547 75.2ZM879.147 65.6H859.147V369.2H879.147H899.147V65.6H879.147ZM879.147 369.2L873.265 350.084C867.254 351.934 859.62 353.772 850.229 355.549L853.947 375.2L857.665 394.851C868.007 392.895 877.173 390.733 885.029 388.316L879.147 369.2ZM853.947 375.2L850.229 355.549C840.971 357.3 831.283 358.687 821.157 359.699L823.147 379.6L825.137 399.501C836.344 398.38 847.189 396.833 857.665 394.851L853.947 375.2ZM823.147 379.6L821.106 359.704C811.325 360.708 802.008 361.2 793.147 361.2V381.2V401.2C803.485 401.2 814.169 400.626 825.187 399.496L823.147 379.6ZM793.547 330.4V350.4C799.207 350.4 804.537 350.259 809.521 349.965L808.347 330L807.172 310.035C803.09 310.275 798.554 310.4 793.547 310.4V330.4ZM808.347 330L810.684 349.863C815.44 349.303 819.625 348.714 823.125 348.077L819.547 328.4L815.969 308.723C813.602 309.153 810.321 309.63 806.01 310.137L808.347 330ZM819.547 328.4H839.547V220H819.547H799.547V328.4H819.547ZM819.547 220L830.362 203.176C824.27 199.26 817.173 196.572 809.795 194.648L804.747 214L799.698 233.352C804.587 234.628 807.357 235.94 808.732 236.824L819.547 220ZM804.747 214L810.009 194.705C802.413 192.633 794.642 191.6 786.747 191.6V211.6V231.6C791.118 231.6 795.348 232.167 799.485 233.295L804.747 214ZM786.747 211.6V191.6C777.355 191.6 768.177 193.165 759.74 196.962L767.947 215.2L776.154 233.438C778.383 232.435 781.739 231.6 786.747 231.6V211.6ZM767.947 215.2L759.385 197.125C751.255 200.976 744.449 206.664 738.96 213.721L754.747 226L770.534 238.279C772.512 235.736 774.505 234.224 776.509 233.275L767.947 215.2ZM754.747 226L738.533 214.29C733.291 221.549 729.724 229.967 727.387 238.981L746.747 244L766.107 249.019C767.503 243.633 769.269 240.051 770.96 237.71L754.747 226ZM746.747 244L727.223 239.661C725.228 248.638 724.347 258.552 724.347 269.2H744.347H764.347C764.347 260.648 765.065 253.762 766.271 248.339L746.747 244ZM744.347 269.2H724.347C724.347 283.467 726.516 296.874 731.377 309.028L749.947 301.6L768.516 294.172C765.911 287.659 764.347 279.467 764.347 269.2H744.347ZM749.947 301.6L731.453 309.215C736.465 321.387 744.179 331.656 754.837 339.156L766.347 322.8L777.857 306.444C774.115 303.811 770.895 299.946 768.44 293.985L749.947 301.6ZM766.347 322.8L755.117 339.35C766.464 347.049 779.621 350.4 793.547 350.4V330.4V310.4C786.14 310.4 781.163 308.684 777.577 306.25L766.347 322.8ZM902.953 376H882.953V396H902.953V376ZM902.953 165.6V145.6H882.953V165.6H902.953ZM962.553 165.6H982.553V145.6H962.553V165.6ZM962.553 376V396H982.553V376H962.553ZM907.753 122.8L894.188 137.496L894.48 137.766L894.784 138.025L907.753 122.8ZM907.753 71.2L921.005 86.1799L921.023 86.1641L921.04 86.1482L907.753 71.2ZM957.753 71.2L944.188 85.8961L944.48 86.1664L944.784 86.4249L957.753 71.2ZM957.753 122.8L971.005 137.78L971.023 137.764L971.04 137.748L957.753 122.8ZM902.953 376H922.953V165.6H902.953H882.953V376H902.953ZM902.953 165.6V185.6H962.553V165.6V145.6H902.953V165.6ZM962.553 165.6H942.553V376H962.553H982.553V165.6H962.553ZM962.553 376V356H902.953V376V396H962.553V376ZM932.953 132V112C928.028 112 924.245 110.576 920.722 107.575L907.753 122.8L894.784 138.025C905.661 147.291 918.678 152 932.953 152V132ZM907.753 122.8L921.319 108.104C919.15 106.102 917.353 103.122 917.353 96.8H897.353H877.353C877.353 112.344 882.49 126.698 894.188 137.496L907.753 122.8ZM897.353 96.8H917.353C917.353 90.4574 919.148 87.8227 921.005 86.1799L907.753 71.2L894.502 56.2201C882.492 66.8439 877.353 81.2759 877.353 96.8H897.353ZM907.753 71.2L921.04 86.1482C924.593 82.99 928.27 81.6 932.953 81.6V61.6V41.6C918.436 41.6 905.313 46.61 894.466 56.2518L907.753 71.2ZM932.953 61.6V81.6C937.622 81.6 941.019 82.9716 944.188 85.8961L957.753 71.2L971.319 56.5039C960.62 46.6284 947.484 41.6 932.953 41.6V61.6ZM957.753 71.2L944.784 86.4249C946.803 88.1453 948.553 90.7104 948.553 96.8H968.553H988.553C988.553 81.0229 983.103 66.5213 970.722 55.9751L957.753 71.2ZM968.553 96.8H948.553C948.553 102.876 946.796 105.781 944.466 107.852L957.753 122.8L971.04 137.748C983.111 127.019 988.553 112.59 988.553 96.8H968.553ZM957.753 122.8L944.502 107.82C941.371 110.59 937.87 112 932.953 112V132V152C947.237 152 960.269 147.277 971.005 137.78L957.753 122.8ZM999.778 376.8L994.73 396.152L994.78 396.165L994.83 396.178L999.778 376.8ZM974.178 368.8L954.592 364.753L951.332 380.532L966.055 387.076L974.178 368.8ZM984.178 320.4L991.521 301.797L969.403 293.066L964.592 316.353L984.178 320.4ZM1015.38 330L1010.99 349.512L1011.22 349.565L1011.46 349.612L1015.38 330ZM1070.18 330L1078.69 348.096V348.096L1070.18 330ZM1072.98 309.2L1058.84 323.342L1059.21 323.714L1059.6 324.066L1072.98 309.2ZM1060.98 301.2L1051.66 318.898L1051.85 318.995L1052.03 319.089L1060.98 301.2ZM1041.38 292.8L1034.09 311.425L1034.29 311.503L1034.49 311.578L1041.38 292.8ZM1008.98 277.6L999.055 294.965V294.965L1008.98 277.6ZM987.378 257.2L970.181 267.411L970.253 267.531L970.326 267.651L987.378 257.2ZM989.778 190L1006.05 201.625L1006.13 201.517L1006.21 201.408L989.778 190ZM1018.18 168L1025.81 186.485L1025.98 186.415L1026.15 186.341L1018.18 168ZM1098.98 163.6L1094.97 183.194L1095.18 183.238L1095.4 183.277L1098.98 163.6ZM1126.98 170.8L1146.49 175.174L1150.27 158.33L1134.16 152.133L1126.98 170.8ZM1116.58 217.2L1110.04 236.1L1131.2 243.425L1136.09 221.574L1116.58 217.2ZM1093.78 210.8L1089.23 230.277L1089.3 230.293L1089.37 230.309L1093.78 210.8ZM1045.38 212L1054.74 229.676L1054.91 229.581L1055.09 229.483L1045.38 212ZM1040.98 232L1023.83 242.29L1024.07 242.698L1024.34 243.094L1040.98 232ZM1050.18 239.2L1059.54 221.524V221.524L1050.18 239.2ZM1070.18 247.6L1063.34 266.396L1070.18 247.6ZM1110.58 266.8L1099.27 283.295L1099.38 283.368L1099.48 283.441L1110.58 266.8ZM1130.58 288.8L1112.35 297.032L1112.4 297.145L1112.45 297.258L1130.58 288.8ZM1125.78 353.2L1109.72 341.273V341.274L1125.78 353.2ZM1095.38 374.4L1088.6 355.582V355.582L1095.38 374.4ZM1046.58 381.6V361.6C1028.91 361.6 1015.1 360.071 1004.73 357.422L999.778 376.8L994.83 396.178C1009.52 399.929 1026.91 401.6 1046.58 401.6V381.6ZM999.778 376.8L1004.83 357.448C992.556 354.247 985.451 351.924 982.301 350.524L974.178 368.8L966.055 387.076C972.505 389.943 982.467 392.953 994.73 396.152L999.778 376.8ZM974.178 368.8L993.764 372.847L1003.76 324.447L984.178 320.4L964.592 316.353L954.592 364.753L974.178 368.8ZM984.178 320.4L976.835 339.003C987.931 343.383 999.318 346.887 1010.99 349.512L1015.38 330L1019.77 310.488C1010.1 308.313 1000.69 305.417 991.521 301.797L984.178 320.4ZM1015.38 330L1011.46 349.612C1023.35 351.991 1035.2 353.2 1046.98 353.2V333.2V313.2C1037.95 313.2 1028.73 312.275 1019.3 310.388L1015.38 330ZM1046.98 333.2V353.2C1058.17 353.2 1069.83 352.268 1078.69 348.096L1070.18 330L1061.66 311.904C1061.95 311.769 1061.09 312.195 1058.25 312.588C1055.56 312.958 1051.86 313.2 1046.98 313.2V333.2ZM1070.18 330L1078.69 348.096C1084.53 345.348 1089.52 340.933 1092.81 334.917C1095.98 329.147 1096.98 323.046 1096.98 317.6H1076.98H1056.98C1056.98 318.288 1056.84 317.32 1057.74 315.683C1058.2 314.853 1058.82 314.033 1059.6 313.318C1060.37 312.611 1061.11 312.165 1061.66 311.904L1070.18 330ZM1076.98 317.6H1096.98C1096.98 308.009 1092.67 300.016 1086.36 294.334L1072.98 309.2L1059.6 324.066C1059.28 323.778 1058.55 323.018 1057.92 321.699C1057.27 320.326 1056.98 318.877 1056.98 317.6H1076.98ZM1072.98 309.2L1087.12 295.058C1082.31 290.252 1076.2 286.449 1069.92 283.311L1060.98 301.2L1052.03 319.089C1056.43 321.285 1058.31 322.814 1058.84 323.342L1072.98 309.2ZM1060.98 301.2L1070.29 283.502C1064.16 280.275 1056.74 277.129 1048.26 274.022L1041.38 292.8L1034.49 311.578C1042.02 314.337 1047.66 316.792 1051.66 318.898L1060.98 301.2ZM1041.38 292.8L1048.67 274.175C1037.11 269.654 1027.22 264.991 1018.9 260.235L1008.98 277.6L999.055 294.965C1009.4 300.875 1021.11 306.346 1034.09 311.425L1041.38 292.8ZM1008.98 277.6L1018.9 260.235C1012.16 256.385 1007.55 251.846 1004.43 246.749L987.378 257.2L970.326 267.651C977.335 279.087 987.126 288.148 999.055 294.965L1008.98 277.6ZM987.378 257.2L1004.58 246.989C1001.9 242.485 999.778 235.284 999.778 224H979.778H959.778C959.778 239.916 962.722 254.848 970.181 267.411L987.378 257.2ZM979.778 224H999.778C999.778 214.136 1002.19 207.038 1006.05 201.625L989.778 190L973.503 178.375C964.037 191.628 959.778 207.198 959.778 224H979.778ZM989.778 190L1006.21 201.408C1010.4 195.375 1016.6 190.29 1025.81 186.485L1018.18 168L1010.54 149.515C995.221 155.843 982.494 165.425 973.351 178.592L989.778 190ZM1018.18 168L1026.15 186.341C1035.31 182.359 1047.13 180 1062.18 180V160V140C1043.1 140 1025.58 142.974 1010.2 149.659L1018.18 168ZM1062.18 160V180C1073.72 180 1084.64 181.082 1094.97 183.194L1098.98 163.6L1102.99 144.006C1089.85 141.318 1076.23 140 1062.18 140V160ZM1098.98 163.6L1095.4 183.277C1106.55 185.304 1114.51 187.434 1119.8 189.467L1126.98 170.8L1134.16 152.133C1125.58 148.832 1114.88 146.163 1102.56 143.923L1098.98 163.6ZM1126.98 170.8L1107.46 166.426L1097.06 212.826L1116.58 217.2L1136.09 221.574L1146.49 175.174L1126.98 170.8ZM1116.58 217.2L1123.12 198.3C1115.39 195.624 1107.07 193.297 1098.18 191.291L1093.78 210.8L1089.37 230.309C1097.02 232.037 1103.9 233.976 1110.04 236.1L1116.58 217.2ZM1093.78 210.8L1098.32 191.323C1088.53 189.039 1077.9 188 1066.58 188V208V228C1075.52 228 1083.02 228.827 1089.23 230.277L1093.78 210.8ZM1066.58 208V188C1055.93 188 1044.84 189.419 1035.67 194.517L1045.38 212L1055.09 229.483C1055.09 229.484 1055.14 229.454 1055.26 229.404C1055.38 229.353 1055.55 229.284 1055.79 229.202C1056.28 229.037 1057 228.84 1057.99 228.653C1060 228.274 1062.81 228 1066.58 228V208ZM1045.38 212L1036.02 194.324C1030.96 197.006 1026.3 201.005 1023.02 206.586C1019.78 212.123 1018.58 218.056 1018.58 223.6H1038.58H1058.58C1058.58 223.81 1058.51 225.143 1057.53 226.814C1056.53 228.528 1055.27 229.394 1054.74 229.676L1045.38 212ZM1038.58 223.6H1018.58C1018.58 230.379 1020.48 236.71 1023.83 242.29L1040.98 232L1058.13 221.71C1058.17 221.776 1058.3 222.013 1058.41 222.406C1058.52 222.806 1058.58 223.222 1058.58 223.6H1038.58ZM1040.98 232L1024.34 243.094C1028.71 249.652 1035.31 253.959 1040.82 256.876L1050.18 239.2L1059.54 221.524C1058.01 220.714 1057.17 220.135 1056.8 219.85C1056.64 219.719 1056.65 219.716 1056.79 219.858C1056.93 219.999 1057.24 220.342 1057.62 220.906L1040.98 232ZM1050.18 239.2L1040.82 256.876C1046.58 259.923 1054.26 263.093 1063.34 266.396L1070.18 247.6L1077.01 228.804C1068.5 225.707 1062.85 223.277 1059.54 221.524L1050.18 239.2ZM1070.18 247.6L1063.34 266.396C1080.25 272.543 1091.93 278.264 1099.27 283.295L1110.58 266.8L1121.89 250.305C1110.56 242.536 1095.31 235.457 1077.01 228.804L1070.18 247.6ZM1110.58 266.8L1099.48 283.441C1106.8 288.321 1110.53 292.997 1112.35 297.032L1130.58 288.8L1148.81 280.568C1143.16 268.07 1133.55 258.079 1121.67 250.159L1110.58 266.8ZM1130.58 288.8L1112.45 297.258C1114.62 301.889 1116.18 308.673 1116.18 318.4H1136.18H1156.18C1156.18 304.66 1154.01 291.711 1148.7 280.342L1130.58 288.8ZM1136.18 318.4H1116.18C1116.18 328.822 1113.63 336.015 1109.72 341.273L1125.78 353.2L1141.83 365.126C1151.79 351.718 1156.18 335.711 1156.18 318.4H1136.18ZM1125.78 353.2L1109.72 341.274C1105.61 346.814 1099.05 351.821 1088.6 355.582L1095.38 374.4L1102.15 393.218C1118.37 387.379 1132.08 378.253 1141.83 365.126L1125.78 353.2ZM1095.38 374.4L1088.6 355.582C1078.06 359.377 1064.23 361.6 1046.58 361.6V381.6V401.6C1067.32 401.6 1086.03 399.023 1102.15 393.218L1095.38 374.4ZM1185.52 366.8L1175.02 383.823L1175.08 383.862L1175.15 383.9L1185.52 366.8ZM1149.92 327.2L1131.64 335.323L1131.72 335.499L1131.8 335.674L1149.92 327.2ZM1151.52 215.2L1133.8 205.92L1133.74 206.031L1133.69 206.143L1151.52 215.2ZM1188.72 175.2L1199.22 192.223L1199.26 192.2L1199.29 192.176L1188.72 175.2ZM1277.92 163.2L1273.46 182.697L1273.73 182.758L1274 182.812L1277.92 163.2ZM1305.12 171.6L1324.47 176.642L1328.83 159.932L1312.93 153.188L1305.12 171.6ZM1292.72 219.2L1285.6 237.89L1306.45 245.832L1312.07 224.242L1292.72 219.2ZM1274.32 213.6L1269.65 233.048H1269.65L1274.32 213.6ZM1212.32 227.6L1196.74 215.06L1196.64 215.176L1196.55 215.295L1212.32 227.6ZM1204.72 303.2L1186.04 310.343L1186.07 310.437L1186.11 310.53L1204.72 303.2ZM1221.92 323.6L1211.63 340.75L1211.96 340.95L1212.3 341.136L1221.92 323.6ZM1277.52 328.4L1280.7 348.145H1280.7L1277.52 328.4ZM1300.32 322L1320.03 318.607L1315.75 293.755L1292.53 303.581L1300.32 322ZM1308.72 370.8L1316.51 389.219L1331.12 383.039L1328.43 367.407L1308.72 370.8ZM1282.72 378.4L1278.7 358.808L1282.72 378.4ZM1248.32 381.6V361.6C1225.15 361.6 1208.13 357.122 1195.89 349.7L1185.52 366.8L1175.15 383.9C1195.44 396.211 1220.28 401.6 1248.32 401.6V381.6ZM1185.52 366.8L1196.02 349.777C1183.23 341.892 1174.06 331.618 1168.03 318.726L1149.92 327.2L1131.8 335.674C1141.24 355.849 1155.81 371.975 1175.02 383.823L1185.52 366.8ZM1149.92 327.2L1168.2 319.077C1162.01 305.15 1158.72 289.169 1158.72 270.8H1138.72H1118.72C1118.72 294.031 1122.9 315.65 1131.64 335.323L1149.92 327.2ZM1138.72 270.8H1158.72C1158.72 253.438 1162.35 238.042 1169.35 224.257L1151.52 215.2L1133.69 206.143C1123.62 225.958 1118.72 247.629 1118.72 270.8H1138.72ZM1151.52 215.2L1169.24 224.48C1176.38 210.833 1186.3 200.187 1199.22 192.223L1188.72 175.2L1178.22 158.177C1159.13 169.947 1144.25 185.967 1133.8 205.92L1151.52 215.2ZM1188.72 175.2L1199.29 192.176C1211.85 184.355 1227.5 180 1247.12 180V160V140C1221.41 140 1198.12 145.778 1178.14 158.224L1188.72 175.2ZM1247.12 160V180C1257.07 180 1265.81 180.949 1273.46 182.697L1277.92 163.2L1282.38 143.703C1271.36 141.185 1259.57 140 1247.12 140V160ZM1277.92 163.2L1274 182.812C1281.99 184.41 1289.75 186.807 1297.31 190.012L1305.12 171.6L1312.93 153.188C1302.88 148.926 1292.51 145.723 1281.84 143.588L1277.92 163.2ZM1305.12 171.6L1285.76 166.558L1273.36 214.158L1292.72 219.2L1312.07 224.242L1324.47 176.642L1305.12 171.6ZM1292.72 219.2L1299.84 200.51C1293.33 198.032 1286.37 195.924 1278.99 194.152L1274.32 213.6L1269.65 233.048C1275.6 234.476 1280.9 236.101 1285.6 237.89L1292.72 219.2ZM1274.32 213.6L1278.99 194.152C1270.52 192.119 1261.45 191.2 1251.92 191.2V211.2V231.2C1258.92 231.2 1264.79 231.881 1269.65 233.048L1274.32 213.6ZM1251.92 211.2V191.2C1229.95 191.2 1210.28 198.239 1196.74 215.06L1212.32 227.6L1227.9 240.14C1231.96 235.095 1238.69 231.2 1251.92 231.2V211.2ZM1212.32 227.6L1196.55 215.295C1184.57 230.645 1179.52 249.772 1179.52 270.8H1199.52H1219.52C1219.52 256.095 1223 246.422 1228.09 239.905L1212.32 227.6ZM1199.52 270.8H1179.52C1179.52 285.098 1181.49 298.439 1186.04 310.343L1204.72 303.2L1223.4 296.057C1221.02 289.828 1219.52 281.569 1219.52 270.8H1199.52ZM1204.72 303.2L1186.11 310.53C1191.17 323.369 1199.79 333.649 1211.63 340.75L1221.92 323.6L1232.21 306.45C1228.04 303.951 1225.2 300.631 1223.33 295.87L1204.72 303.2ZM1221.92 323.6L1212.3 341.136C1224.49 347.817 1238.94 350.4 1254.32 350.4V330.4V310.4C1243.03 310.4 1235.89 308.449 1231.54 306.064L1221.92 323.6ZM1254.32 330.4V350.4C1262.74 350.4 1271.55 349.621 1280.7 348.145L1277.52 328.4L1274.33 308.655C1266.96 309.845 1260.3 310.4 1254.32 310.4V330.4ZM1277.52 328.4L1280.7 348.145C1290.38 346.584 1299.55 344.043 1308.11 340.419L1300.32 322L1292.53 303.581C1287.22 305.824 1281.19 307.549 1274.33 308.655L1277.52 328.4ZM1300.32 322L1280.61 325.393L1289.01 374.193L1308.72 370.8L1328.43 367.407L1320.03 318.607L1300.32 322ZM1308.72 370.8L1300.93 352.381C1295.59 354.638 1288.29 356.841 1278.7 358.808L1282.72 378.4L1286.74 397.992C1297.95 395.692 1307.98 392.829 1316.51 389.219L1308.72 370.8ZM1282.72 378.4L1278.7 358.808C1269.83 360.627 1259.74 361.6 1248.32 361.6V381.6V401.6C1261.97 401.6 1274.8 400.44 1286.74 397.992L1282.72 378.4Z" fill="black" mask="url(#path-5-outside-1_3381_68)"/>
<path d="M490 376V172.8C500.133 169.867 513.2 167.2 529.2 164.8C545.2 162.133 562 160.8 579.6 160.8C603.6 160.8 622.267 164.933 635.6 173.2C648.933 181.2 658.267 192.4 663.6 206.8C668.933 221.2 671.6 238 671.6 257.2V376H612V264.4C612 251.6 610.933 241.333 608.8 233.6C606.667 225.867 602.933 220.267 597.6 216.8C592.533 213.333 585.333 211.6 576 211.6C571.733 211.6 567.2 211.867 562.4 212.4C557.6 212.667 553.333 213.067 549.6 213.6V376H490Z" fill="white"/>
<path d="M793.147 381.2C769.947 381.2 750.214 376.8 733.947 368C717.68 359.2 705.147 346.667 696.347 330.4C687.814 313.867 683.547 294.4 683.547 272C683.547 249.067 687.28 229.333 694.747 212.8C702.214 196.267 712.88 183.6 726.747 174.8C740.88 165.733 757.814 161.2 777.547 161.2C785.814 161.2 793.147 162 799.547 163.6C806.214 165.2 812.88 167.467 819.547 170.4V75.2L879.147 65.6V369.2C872.214 371.333 863.814 373.333 853.947 375.2C844.08 377.067 833.814 378.533 823.147 379.6C812.747 380.667 802.747 381.2 793.147 381.2ZM793.547 330.4C798.88 330.4 803.814 330.267 808.347 330C812.88 329.467 816.614 328.933 819.547 328.4V220C815.814 217.6 810.88 215.6 804.747 214C798.88 212.4 792.88 211.6 786.747 211.6C779.547 211.6 773.28 212.8 767.947 215.2C762.88 217.6 758.48 221.2 754.747 226C751.28 230.8 748.614 236.8 746.747 244C745.147 251.2 744.347 259.6 744.347 269.2C744.347 281.467 746.214 292.267 749.947 301.6C753.68 310.667 759.147 317.733 766.347 322.8C773.814 327.867 782.88 330.4 793.547 330.4ZM902.953 376V165.6H962.553V376H902.953ZM932.953 132C923.353 132 914.953 128.933 907.753 122.8C900.82 116.4 897.353 107.733 897.353 96.8C897.353 85.8667 900.82 77.3333 907.753 71.2C914.953 64.8 923.353 61.6 932.953 61.6C942.553 61.6 950.82 64.8 957.753 71.2C964.953 77.3333 968.553 85.8667 968.553 96.8C968.553 107.733 964.953 116.4 957.753 122.8C950.82 128.933 942.553 132 932.953 132ZM1046.58 381.6C1027.91 381.6 1012.31 380 999.778 376.8C987.511 373.6 978.978 370.933 974.178 368.8L984.178 320.4C994.311 324.4 1004.71 327.6 1015.38 330C1026.04 332.133 1036.58 333.2 1046.98 333.2C1057.91 333.2 1065.64 332.133 1070.18 330C1074.71 327.867 1076.98 323.733 1076.98 317.6C1076.98 314.4 1075.64 311.6 1072.98 309.2C1070.31 306.533 1066.31 303.867 1060.98 301.2C1055.91 298.533 1049.38 295.733 1041.38 292.8C1029.11 288 1018.31 282.933 1008.98 277.6C999.645 272.267 992.445 265.467 987.378 257.2C982.311 248.667 979.778 237.6 979.778 224C979.778 210.667 983.111 199.333 989.778 190C996.445 180.4 1005.91 173.067 1018.18 168C1030.44 162.667 1045.11 160 1062.18 160C1074.98 160 1087.24 161.2 1098.98 163.6C1110.71 165.733 1120.04 168.133 1126.98 170.8L1116.58 217.2C1109.64 214.8 1102.04 212.667 1093.78 210.8C1085.78 208.933 1076.71 208 1066.58 208C1057.24 208 1050.18 209.333 1045.38 212C1040.84 214.4 1038.58 218.267 1038.58 223.6C1038.58 226.533 1039.38 229.333 1040.98 232C1042.58 234.4 1045.64 236.8 1050.18 239.2C1054.71 241.6 1061.38 244.4 1070.18 247.6C1087.78 254 1101.24 260.4 1110.58 266.8C1120.18 273.2 1126.84 280.533 1130.58 288.8C1134.31 296.8 1136.18 306.667 1136.18 318.4C1136.18 332.267 1132.71 343.867 1125.78 353.2C1118.84 362.533 1108.71 369.6 1095.38 374.4C1082.04 379.2 1065.78 381.6 1046.58 381.6ZM1248.32 381.6C1222.72 381.6 1201.79 376.667 1185.52 366.8C1169.52 356.933 1157.65 343.733 1149.92 327.2C1142.45 310.4 1138.72 291.6 1138.72 270.8C1138.72 250.533 1142.99 232 1151.52 215.2C1160.32 198.4 1172.72 185.067 1188.72 175.2C1204.99 165.067 1224.45 160 1247.12 160C1258.32 160 1268.59 161.067 1277.92 163.2C1287.25 165.067 1296.32 167.867 1305.12 171.6L1292.72 219.2C1287.12 217.067 1280.99 215.2 1274.32 213.6C1267.65 212 1260.19 211.2 1251.92 211.2C1234.32 211.2 1221.12 216.667 1212.32 227.6C1203.79 238.533 1199.52 252.933 1199.52 270.8C1199.52 283.333 1201.25 294.133 1204.72 303.2C1208.19 312 1213.92 318.8 1221.92 323.6C1230.19 328.133 1240.99 330.4 1254.32 330.4C1261.52 330.4 1269.25 329.733 1277.52 328.4C1285.79 327.067 1293.39 324.933 1300.32 322L1308.72 370.8C1301.79 373.733 1293.12 376.267 1282.72 378.4C1272.32 380.533 1260.85 381.6 1248.32 381.6Z" fill="#AA43FF"/>
</svg>
